<?xml version="1.0" standalone="no"?>
<!DOCTYPE svg PUBLIC "-//W3C//DTD SVG 1.1//EN" "http://www.w3.org/Graphics/SVG/1.1/DTD/svg11.dtd" >
<svg xmlns="http://www.w3.org/2000/svg" xmlns:xlink="http://www.w3.org/1999/xlink" version="1.1">
<metadata>
Created by FontForge 20170924 at Wed Oct 19 23:59:11 1927
 By www-data
Generated by Fontographer 3.5
</metadata>
<defs>
<font id="Freestyle-ScriptNormal" horiz-adv-x="474" >
  <font-face 
    font-family="FreestyleScript"
    font-weight="400"
    font-stretch="normal"
    units-per-em="1000"
    panose-1="0 0 0 0 0 0 0 0 0 0"
    ascent="800"
    descent="-200"
    x-height="274"
    cap-height="588"
    bbox="-118 -338 1913 800"
    underline-thickness="20"
    underline-position="-143"
    unicode-range="U+0020-2122"
  />
<missing-glyph horiz-adv-x="800" 
d="M50 0v800h700v-800h-700zM700 50v700h-600v-700h600z" />
    <glyph glyph-name=".notdef" horiz-adv-x="800" 
d="M50 0v800h700v-800h-700zM700 50v700h-600v-700h600z" />
    <glyph glyph-name=".null" horiz-adv-x="0" 
 />
    <glyph glyph-name="nonmarkingreturn" 
 />
    <glyph glyph-name="space" unicode=" " 
 />
    <glyph glyph-name="exclam" unicode="!" horiz-adv-x="278" 
d="M-14 42q4 14 12 21t18 7l10 -2q14 -7 14 -28q0 -14 -6 -32q-12 -30 -38 -30q-18 0 -18 24q0 11 1 18t7 22zM54 174l220 374q19 32 32 32q24 0 24 -20q0 -6 -3.5 -14.5t-6.5 -17.5l-220 -374q-17 -32 -18 -33q-9 -13 -22 -13q-24 0 -24 22q0 20 18 44z" />
    <glyph glyph-name="quotedbl" unicode="&#x22;" horiz-adv-x="890" 
d="M112 294v254q-58 0 -65.5 -5.5t-12.5 -48.5h-26v80h272v-80h-26q0 36 -10 45t-44 9h-32v-254q0 -25 16 -33q10 -5 36 -5v-20h-154v20q30 0 38 5t8 33zM352 574h102l92 -252l108 252h106v-20q-24 0 -29 -5t-5 -27v-234l-2 -22q0 -7 8.5 -8t19.5 -2v-20h-118v20q21 0 27 4
q13 8 13 34v254l-134 -320l-132 312v-246q0 -24 7 -31t31 -7v-20h-100v20q23 0 28.5 5.5t5.5 32.5v228q0 18 -4 25t-24 7v20z" />
    <glyph glyph-name="numbersign" unicode="#" 
 />
    <glyph glyph-name="dollar" unicode="$" horiz-adv-x="446" 
d="M30 8q-31 17 -45.5 37t-14.5 41q0 27 16.5 50.5t43.5 37.5l20 4q8 0 14 -4t6 -10q0 -10 -14 -16q-34 -19 -34 -50q0 -16 8 -28t20 -14l100 172q-42 48 -42 94q0 59 56.5 102.5t131.5 43.5q17 25 22 33q9 13 18 13q16 0 16 -12t-16 -34q34 0 53 -18t19 -42q0 -40 -47 -77
q-54 -43 -143 -57l-22 -32q48 -60 48 -112q0 -55 -46.5 -92.5t-113.5 -37.5l-20 2q-11 -23 -18 -31.5t-16 -8.5q-16 0 -16 10q0 6 5 15q11 20 11 21zM84 48l22 -4q25 0 46.5 14.5t29.5 35.5q14 25 14 48q0 17 -6 30.5t-20 21.5zM250 334l10 -2q19 0 42.5 12t39.5 30
q18 18 18 32q0 10 -11 18.5t-33 11.5zM210 328l60 100q-45 -7 -79.5 -41t-34.5 -69q0 -24 20 -44q4 4 4 14v14q0 18 30 26z" />
    <glyph glyph-name="percent" unicode="%" horiz-adv-x="504" 
d="M362 236q-4 0 -26.5 -27.5t-39.5 -54.5q-11 -17 -19.5 -38t-8.5 -36q0 -19 16 -32l6 -2q23 0 61.5 59t38.5 97q0 16 -6.5 25t-21.5 9zM150 474q-11 0 -32.5 -26.5t-33.5 -59.5q-12 -17 -20 -36.5t-8 -33.5q0 -20 20 -30l4 -2q23 0 59.5 58t36.5 98q0 16 -5.5 24t-20.5 8z
M182 494q17 0 25.5 -11.5t8.5 -30.5q0 -53 -45 -122q-49 -74 -95 -74q-27 0 -42.5 16.5t-15.5 43.5q0 28 15 63t43 69q19 26 49 49t45 23q12 0 12 -16v-10zM396 262q15 -6 23.5 -20.5t8.5 -33.5q0 -53 -47.5 -119.5t-90.5 -72.5l-16 -2q-23 0 -34.5 17t-11.5 43q0 32 16 60
q30 63 74 106q39 38 62 38q16 0 16 -16zM24 42q24 51 96 138q36 43 142 159q92 100 120 135q24 27 32 37q15 17 22 17q22 -8 22 -26q0 -13 -15 -33q-7 -9 -55 -61q-58 -60 -144 -155q-111 -122 -142 -165l-30 -50q-23 -36 -48 -36q-10 0 -10 12q0 11 10 28z" />
    <glyph glyph-name="ampersand" unicode="&#x26;" horiz-adv-x="624" 
d="M254 42q-19 -19 -53 -34.5t-69 -15.5q-18 0 -26 2q-44 12 -71 50t-27 88q0 60 41 113q48 63 137 95l-2 20q0 97 43 147q35 41 85 41q27 0 49.5 -22.5t22.5 -55.5q0 -35 -30 -71q-36 -42 -108 -77l34 -182q18 23 30 50t16 52q-20 4 -39 9q-13 7 -13 23q0 15 11 20.5
t33 5.5h42l32 2q13 0 43 4t45 4q21 0 33.5 -8t12.5 -28q0 -14 -24 -14l-52 2q-20 0 -39 -3t-39 -11q-5 -37 -27.5 -83.5t-50.5 -76.5q15 -25 31.5 -36.5t36.5 -11.5q6 0 23.5 4t20.5 4l12 2q8 0 16 -7t8 -15q0 -10 -14.5 -22.5t-41.5 -17.5l-28 -2q-28 0 -52.5 12.5
t-51.5 43.5zM234 88l-42 214q-60 -29 -92 -81q-26 -43 -26 -87q0 -30 12 -46q34 -40 70 -40q22 0 42.5 11.5t35.5 28.5zM240 360q32 14 55 38q19 19 31 44l2 18q0 16 -6.5 25t-21.5 9q-28 0 -44 -41.5t-16 -92.5z" />
    <glyph glyph-name="quotesingle" unicode="'" horiz-adv-x="168" 
d="M152 456q29 23 49 56t25 62q7 26 30 26q8 0 16 -8.5t8 -23.5q0 -40 -45 -97t-75 -57q-20 0 -20 16q0 11 12 26z" />
    <glyph glyph-name="parenleft" unicode="(" horiz-adv-x="376" 
d="M56 -32q0 170 70 317q54 113 150 215q36 39 138 126q12 12 24 12q14 0 14 -14q0 -11 -10 -24q-148 -133 -238 -303q-83 -157 -110 -329q0 -34 -7 -53t-25 -19q-7 0 -10.5 8t-3.5 22q0 22 8 42z" />
    <glyph glyph-name="parenright" unicode=")" horiz-adv-x="376" 
d="M-52 -58q143 119 248 329q98 196 98 329q0 17 7.5 27.5t16.5 10.5q16 0 16 -24q0 -134 -50 -266q-41 -108 -116 -218q-54 -79 -126 -156q-39 -39 -52 -50q-33 -28 -50 -28h-4q-10 0 -10 8q0 16 22 38z" />
    <glyph glyph-name="asterisk" unicode="*" horiz-adv-x="416" 
d="M220 468q-10 11 -60 42q-16 10 -16 20l2 4q0 14 14 14q12 0 33 -11q23 -15 47 -29q2 3 6 41.5t28 38.5q8 0 12 -8t4 -20q0 -15 -3.5 -29t-12.5 -37q2 -2 4.5 -3t5.5 -1q9 0 40 11t42 11q14 0 14 -10q0 -22 -40 -36q-30 -10 -60 -10q6 -19 29 -45t23 -33t-9 -11.5
t-11 -4.5q-17 0 -37.5 26.5t-28.5 53.5q-8 -2 -43 -53q-16 -23 -27 -23l-4 2q-18 3 -18 16q0 18 24 48t42 36z" />
    <glyph glyph-name="plus" unicode="+" 
 />
    <glyph glyph-name="comma" unicode="," horiz-adv-x="238" 
d="M-58 -84q28 22 49 59q18 31 25 61q1 12 9.5 19t18.5 7q24 0 24 -34q0 -40 -45 -96t-75 -56q-18 0 -18 16q0 9 12 24z" />
    <glyph glyph-name="hyphen" unicode="-" horiz-adv-x="258" 
d="M-8 168v48h220v-48h-220z" />
    <glyph glyph-name="period" unicode="." horiz-adv-x="238" 
d="M28 36q4 14 12 21t16 7l12 -2q6 -4 10 -12t4 -16q0 -16 -8 -32q-12 -30 -38 -30q-18 0 -18 24q0 10 10 40z" />
    <glyph glyph-name="slash" unicode="/" horiz-adv-x="336" 
d="M-64 -6q41 72 119 175q45 60 139 178q82 104 108 141.5t44 59.5q36 42 56 42l12 -2q14 -11 14 -22q0 -7 -60 -78q-47 -54 -122 -148q-82 -102 -144 -188q-78 -108 -114 -170q-9 -15 -18 -31q-9 -13 -18 -13q-11 0 -24 10q-8 4 -8 16q0 14 16 30z" />
    <glyph glyph-name="zero" unicode="0" horiz-adv-x="316" 
d="M254 428q24 -11 34 -33.5t10 -54.5q0 -26 -5 -48t-13 -44q-30 -78 -77 -138q-58 -74 -117 -88l-22 -4q-35 0 -49.5 30.5t-14.5 73.5v32q10 69 59 146t113 128q21 15 37 23.5t25 8.5q20 0 20 -32zM208 394h-4q-30 0 -82.5 -74.5t-61.5 -125.5q-5 -27 -7.5 -46t-2.5 -28
q0 -22 8.5 -38t25.5 -16l10 2q39 9 87 82q40 60 59 118q10 30 10 56q0 29 -10.5 48t-31.5 22z" />
    <glyph glyph-name="one" unicode="1" horiz-adv-x="258" 
d="M178 374q-43 -25 -67.5 -37.5t-36.5 -12.5t-16 16l-2 2q0 13 27 27q37 19 75 39q59 44 86 44q18 0 18 -20q0 -12 -4 -18q-35 -58 -90.5 -158.5t-89.5 -167.5q-8 -17 -15 -33q-15 -29 -29 -29q-6 0 -16 10q-6 6 -6 12q0 13 14 41q8 16 20 39q25 58 65 131q25 46 67 115z
" />
    <glyph glyph-name="two" unicode="2" horiz-adv-x="356" 
d="M212 56q0 -16 -12 -16q-1 0 -21 2t-37 2q-22 0 -53.5 -5.5t-70.5 -16.5q-15 -6 -28 -6q-30 0 -30 26q0 11 3.5 20t14.5 20q48 47 124 107q60 48 150 113q14 8 23 24.5t9 31.5q0 16 -11 26t-35 10t-51 -19.5t-55 -40.5q-28 0 -28 14q0 15 20 32q17 17 58 36q48 22 82 22
q12 0 22.5 -2.5t17.5 -7.5q17 -10 25.5 -26.5t8.5 -33.5q0 -20 -11 -41.5t-30 -39t-150 -113.5q-96 -70 -115 -106q22 7 62 15.5t64 8.5q23 0 38.5 -8t15.5 -22v-6z" />
    <glyph glyph-name="three" unicode="3" horiz-adv-x="336" 
d="M200 282q46 -20 46 -70q0 -17 -5.5 -34.5t-18.5 -43.5q-31 -51 -76.5 -83.5t-85.5 -32.5q-39 0 -66 30q-6 7 -9 21.5t-3 28.5q0 22 9 36t31 14q8 0 13 -5t5 -19l-2 -24q0 -20 9.5 -27t26.5 -7l8 2q37 4 75.5 53.5t38.5 86.5l-2 14q-6 19 -16 27.5t-22 8.5q-8 0 -16 -2
t-18 -4l-8 4q-12 12 -12 18q0 15 32 29q40 14 54 19q21 11 32.5 25.5t11.5 26.5q0 26 -32 26q-15 0 -47 -18t-43 -18l-8 4q-8 4 -8 10q0 16 44.5 40t83.5 24q25 0 42.5 -10t23.5 -32q2 -6 2 -20q0 -55 -90 -98z" />
    <glyph glyph-name="four" unicode="4" horiz-adv-x="356" 
d="M138 194q-32 0 -83 -13q-27 -7 -37 -7q-20 0 -20 20q0 19 20 42q48 49 78 78q56 55 86.5 79t61 46.5t50.5 22.5q15 0 24 -6q6 -6 6 -16q0 -15 -33 -65q-25 -37 -33 -53l-40 -74l36 4q30 0 30 -18v-6q-4 -19 -20.5 -23.5t-65.5 -4.5q-35 -58 -54 -116q-22 -68 -40 -68
q-26 0 -26 26t24 78zM164 242q16 38 46 86l42 66q-27 -11 -79 -56q-56 -49 -109 -110q18 5 44.5 8t55.5 6z" />
    <glyph glyph-name="five" unicode="5" horiz-adv-x="336" 
d="M148 408q-12 6 -12 14q0 10 30 18t76 8l52 4q24 0 34 -10q6 -6 6 -16q0 -7 -5.5 -12.5t-14.5 -5.5l-114 -14q-19 -10 -55 -54q-8 -10 -37 -46q48 16 76 16q36 0 54 -21t18 -53q0 -28 -11.5 -59.5t-28.5 -54.5q-28 -39 -67 -67q-48 -35 -91 -35l-10 2q-32 4 -48 26.5
t-16 53.5q0 29 11.5 50.5t26.5 21.5q24 0 24 -22q0 -5 -4 -22t-4 -26q0 -13 7 -22.5t23 -13.5l10 -2q37 0 79.5 55.5t42.5 100.5q0 37 -32 46h-12q-13 0 -33 -10q-44 -22 -49 -22q-13 0 -26 26l-2 2q0 17 30 57q22 29 72 87z" />
    <glyph glyph-name="six" unicode="6" horiz-adv-x="336" 
d="M94 268q22 9 49.5 17.5t44.5 8.5q30 0 49 -18.5t19 -59.5q0 -51 -46 -109q-35 -44 -76 -71q-35 -22 -66 -22q-38 0 -62 29t-24 75q0 24 6 42q14 55 46 102q23 33 60 66q59 53 98 79q43 29 64 29q16 0 16 -16q0 -14 -16 -26q-60 -31 -103 -67q-33 -27 -59 -59zM56 216
q-11 -14 -19.5 -39t-8.5 -49q0 -29 13 -47.5t41 -18.5l2 -2q40 0 80 54.5t40 99.5q0 18 -8.5 30t-27.5 12q-29 0 -59 -12q-22 -9 -53 -28z" />
    <glyph glyph-name="seven" unicode="7" horiz-adv-x="298" 
d="M264 394q-41 -8 -87.5 -16t-76.5 -8q-44 0 -44 18q4 25 67.5 26.5t126.5 21.5l30 4q34 0 34 -26q0 -16 -12 -26q-73 -70 -145 -167t-107 -173q-9 -27 -24 -35q-9 -5 -30 -5q-10 0 -10 10q0 9 8 27.5t24 42.5q57 95 134 188q64 77 112 118z" />
    <glyph glyph-name="eight" unicode="8" horiz-adv-x="336" 
d="M140 294q-38 29 -38 66q0 40 34 72q38 36 92 36h8q35 0 55.5 -17.5t20.5 -44.5q0 -31 -26.5 -63.5t-77.5 -54.5q25 -16 36.5 -37t11.5 -47q0 -63 -63.5 -123.5t-126.5 -60.5l-10 2q-39 0 -62.5 23.5t-23.5 58.5q0 46 40 94q46 55 130 96zM188 322q37 18 52.5 36.5
t15.5 35.5q-4 15 -15.5 24.5t-22.5 9.5h-10q-26 -7 -40 -23t-14 -33q0 -13 9 -26t25 -24zM168 268q-41 -24 -72.5 -52.5t-47.5 -55.5q-20 -30 -20 -50q0 -24 28 -36q16 -8 30 -8q41 0 78.5 41.5t37.5 88.5q0 21 -8.5 40t-25.5 32z" />
    <glyph glyph-name="nine" unicode="9" horiz-adv-x="316" 
d="M186 222q-16 -14 -39.5 -24t-44.5 -10t-37 9.5t-25 30.5q-2 6 -7 21.5t-5 28.5q0 71 67 133.5t125 62.5h6q37 0 56.5 -23.5t19.5 -60.5q0 -54 -42 -134.5t-114 -161.5q-21 -26 -47.5 -46t-44.5 -20q-5 0 -8 2.5t-6 5.5q0 11 25 35q20 18 42.5 39t48 57.5t30.5 54.5z
M220 282q10 16 19 46.5t9 55.5q0 21 -9.5 36.5t-26.5 15.5h-4q-44 -4 -88 -59t-44 -99q0 -30 24 -36q4 -1 10 -3.5t10 -2.5q21 0 48 13t52 33z" />
    <glyph glyph-name="colon" unicode=":" horiz-adv-x="238" 
d="M102 262q6 28 28 28l10 -2q14 -7 14 -28q0 -14 -6 -30t-17 -25t-21 -9q-18 0 -18 24q910 3 1821 7q-454 8 -906.5 17t-904.5 18zM16 42q6 28 28 28l12 -2q12 -8 12 -28q0 -14 -6 -32q-12 -30 -38 -30q-18 0 -18 24q0 5 1 14.5t9 25.5z" />
    <glyph glyph-name="semicolon" unicode=";" horiz-adv-x="238" 
d="M102 256q6 28 28 28l10 -2q14 -7 14 -28q0 -14 -6 -30t-17.5 -26t-20.5 -10q-18 0 -18 26q0 9 2 19.5t8 22.5zM-58 -84q28 22 49 59q18 31 25 61q1 12 9.5 19t18.5 7q24 0 24 -34q0 -40 -45 -96t-75 -56q-18 0 -18 16q0 9 12 24z" />
    <glyph glyph-name="less" unicode="&#x3c;" 
 />
    <glyph glyph-name="equal" unicode="=" 
 />
    <glyph glyph-name="greater" unicode="&#x3e;" 
 />
    <glyph glyph-name="question" unicode="?" horiz-adv-x="376" 
d="M68 42q8 28 28 28l12 -2q5 -3 9.5 -10.5t4.5 -17.5q0 -16 -8 -32q-12 -30 -38 -30q-18 0 -18 24q0 13 10 40zM108 216q26 52 86 112q16 15 63 47q68 47 77 53q22 16 36 41t14 45q0 18 -10.5 29t-33.5 11q-43 0 -89 -35.5t-91 -72.5q-9 0 -12 10l-4 8q0 32 69.5 81
t120.5 49h14q32 -5 55 -27t23 -55q0 -27 -18 -58.5t-60 -65.5q-66 -52 -131 -104q-31 -27 -43 -56q-16 -32 -25 -44q-18 -24 -35 -24q-7 0 -11.5 5.5t-4.5 14.5q0 16 10 36z" />
    <glyph glyph-name="at" unicode="@" 
 />
    <glyph glyph-name="A" unicode="A" horiz-adv-x="584" 
d="M106 208q-19 -9 -38 -15.5t-28 -6.5q-14 0 -14 14q0 22 52 44l82 30q58 89 139 184q77 90 127 130q22 16 36 16q22 0 22 -28q0 -18 -4 -28q-14 -33 -35 -101.5t-33 -112.5l24 4q34 0 34 -20q0 -11 -17 -21.5t-45 -10.5l-10 2q-29 -111 -39 -202.5t-27 -91.5q-14 0 -21 17
t-7 43q0 49 23 149q9 39 19 79l-166 -46q-51 -79 -95 -160.5t-71 -81.5q-14 0 -14 14q0 26 58 122zM226 294l134 34q5 29 42 135q16 46 16 59q-30 -18 -100 -104q-61 -75 -92 -124z" />
    <glyph glyph-name="B" unicode="B" horiz-adv-x="574" 
d="M216 374q52 0 129 47q83 51 83 95v12q-4 14 -19.5 21t-34.5 7q-35 0 -64 -16l4 -8q0 -8 -45 -73q-33 -47 -53 -85zM182 322l-37 -74q-44 -89 -81 -186q0 -7 24.5 -15.5t51.5 -8.5q52 0 88 24q43 29 72.5 80.5t29.5 93.5q0 28 -15.5 47t-36.5 26t-44 7l-34 -2q-13 0 -18 8
zM264 528q-14 -3 -63 -24q-23 -10 -31 -10q-11 0 -14 8l-4 8q0 20 42 40t128 44l40 4q47 0 79.5 -24.5t32.5 -61.5q0 -21 -10.5 -44t-35.5 -48q-18 -18 -67.5 -43.5t-84.5 -36.5q50 -10 77 -46t27 -84q0 -10 -0.5 -20.5t-3.5 -21.5q-15 -69 -84.5 -120.5t-147.5 -51.5
q-48 0 -94 26q0 -15 -5.5 -27.5t-16.5 -12.5h-4q-10 1 -16 11t-6 23q0 18 11 50q5 15 23 62q35 83 117 225.5t111 174.5z" />
    <glyph glyph-name="C" unicode="C" horiz-adv-x="534" 
d="M64 282q48 99 139 198q103 112 169 112q26 0 44 -18q20 -23 20 -52q0 -40 -28.5 -89t-71.5 -93q-9 -7 -17 -11.5t-15 -4.5q-10 0 -18 11q-4 6 -4 13q0 15 20 32q49 38 77 81q25 38 25 65q0 28 -24 28h-10q-58 -17 -150 -128q-79 -95 -110 -158q-54 -105 -54 -168
q0 -35 15.5 -54.5t42.5 -19.5q40 0 89 38q54 42 99 116q19 26 34 26q4 -6 4 -8q0 -4 -0.5 -8t-3.5 -10q-52 -94 -121 -147q-64 -49 -121 -49q-42 0 -67 27t-25 79q0 38 15 85.5t47 106.5z" />
    <glyph glyph-name="D" unicode="D" horiz-adv-x="564" 
d="M210 502q-20 -30 -42 -30q-13 0 -18 10l-2 8q0 15 24 35t66 43q33 18 82 18q41 0 77 -16t55 -48q12 -22 12 -64q0 -75 -59 -183q-53 -96 -107 -147q-94 -85 -116 -100q-66 -46 -130 -46q-25 0 -37.5 13.5t-12.5 32.5q0 23 12 56l18 44q20 55 64 145q34 69 72.5 143.5
t41.5 85.5zM264 522q6 0 6 -10q0 -15 -38 -85q-79 -146 -85 -157q-54 -108 -83 -196l-6 -30q0 -18 16 -18q12 0 30.5 8.5t39.5 21.5q91 55 171 172t95 220v18q0 74 -72 74q-35 0 -74 -18z" />
    <glyph glyph-name="E" unicode="E" horiz-adv-x="652" 
d="M306 540q12 0 12 -8q0 -6 -50 -76q-36 -50 -62 -96l146 20q36 0 36 -20q0 -26 -76 -26q-38 0 -76 -7q-15 -3 -56 -13q-27 -52 -53 -104q-40 -83 -53 -128q27 14 85.5 30t86.5 16q25 0 40.5 -4t15.5 -18q0 -8 -3 -14t-77 -14q-50 -5 -96 -30q-28 -12 -50.5 -19t-37.5 -7
q-30 0 -30 24q0 4 2.5 11.5l3.5 10.5q32 86 75 174q47 97 91 166q4 7 49 73q22 33 31 53q-5 0 -12.5 5.5t-7.5 12.5q0 9 12 18q16 13 50 19t96 12.5t102 6.5h24q20 -2 22 -8l2 -12q0 -21 -42 -26q-18 -2 -40 -2q-27 0 -86.5 -7t-73.5 -13z" />
    <glyph glyph-name="F" unicode="F" horiz-adv-x="632" 
d="M244 522q-18 0 -18 18q0 6 7 15t17 13q48 16 105 28t101 12q31 0 49.5 -4.5t18.5 -19.5l-2 -10q-5 -18 -30 -18h-36q-28 0 -61.5 -4.5t-84.5 -17.5q-37 -48 -66.5 -93.5t-47.5 -80.5q47 9 70 13q45 7 76 7q10 0 16 -8t6 -18q0 -9 -5.5 -14.5t-16.5 -5.5q-31 0 -83 -9
t-97 -17q-20 -35 -49 -98q-35 -77 -49 -128q-9 -39 -11 -43q-8 -17 -29 -17q-22 0 -22 24q0 20 16 62q11 36 64 134q48 89 96 170z" />
    <glyph glyph-name="G" unicode="G" horiz-adv-x="544" 
d="M192 108q-31 -28 -61 -45t-53 -17q-43 0 -64 56q-10 20 -10 44q0 57 46 143q36 68 82 125q55 69 111 118q78 68 129 68q38 0 56 -19t18 -51t-15.5 -68t-38.5 -62q-27 -28 -53 -55q-33 -31 -51 -31q-4 0 -10 4t-12 10l-4 8q40 38 81.5 80t62.5 98l4 28q0 26 -24 26
q-23 0 -63 -29q-47 -34 -103 -97q-67 -77 -117.5 -164.5t-50.5 -131.5l2 -12q9 -40 42 -40q32 0 85 38q40 29 65 56q12 11 24 16.5t18 5.5q12 0 12 -16q0 -7 -4 -18.5t-10 -21.5q-32 -52 -65 -113q-43 -80 -61 -125q-10 -40 -16 -59q-11 -35 -32 -35q-28 0 -28 24q0 11 5 28
t11 34q7 33 49.5 111t42.5 89z" />
    <glyph glyph-name="H" unicode="H" horiz-adv-x="632" 
d="M328 302q-37 -8 -100 -27q-44 -14 -88 -27q-24 -53 -47 -105q-30 -71 -36.5 -114t-32.5 -43q-24 0 -24 28l2 8q0 35 21 89q25 58 51 117q-22 -16 -34 -16t-12 24q0 20 29 32q35 10 45 14q27 51 71 126q73 123 101 192q5 15 13 22.5t15 7.5q8 0 14 -11t6 -19v-6
q-10 -43 -48 -112l-100 -174q3 1 105 26q27 7 75 20q6 10 66 108q43 70 54 98q19 44 44 44q16 0 16 -24q0 -22 -47 -104q-38 -66 -73 -116l32 2q11 0 16.5 -4t5.5 -18q0 -19 -27 -21.5t-53 -4.5q-39 -76 -69 -144q-42 -96 -49.5 -134t-25.5 -38q-9 0 -17.5 13t-8.5 27l2 18
q16 52 49 125q24 53 59 121z" />
    <glyph glyph-name="I" unicode="I" horiz-adv-x="416" 
d="M8 62q0 39 40 123q34 70 88 161q28 46 90 142q25 41 46 67q27 33 40 33q22 0 22 -18q0 -7 -5 -19t-17 -29q-67 -95 -128 -196q-80 -133 -110 -212q-9 -21 -16 -59.5t-32 -38.5q-22 0 -22 24z" />
    <glyph glyph-name="J" unicode="J" horiz-adv-x="672" 
d="M398 540q-21 0 -68 -15t-62 -15q-19 0 -22 18q0 28 81.5 50t152.5 22q45 0 65.5 -4t20.5 -22q0 -26 -106 -26q-40 -115 -82 -204q-65 -139 -133 -220q-86 -102 -171 -102q-36 0 -55 25t-19 65q0 17 5.5 40.5t8.5 35.5q10 40 37.5 88.5t60.5 77.5q10 9 19.5 13.5t14.5 4.5
q8 0 8 -12q0 -18 -22 -46q-36 -44 -56 -95.5t-20 -88.5q0 -68 44 -68q31 0 70 41q34 36 64 91q47 95 94 191q64 130 70 155z" />
    <glyph glyph-name="K" unicode="K" horiz-adv-x="652" 
d="M228 388q-81 -140 -100 -173q-80 -144 -80 -173q0 -20 -9 -32t-19 -12q-18 0 -18 30q0 45 32 117q21 47 68 129q66 101 96 148q53 85 76 152q15 42 34 42q14 0 14 -24v-18q-5 -20 -33 -75q-24 -46 -47 -91q66 41 132 83q79 47 134 63l14 2q16 0 16 -16q0 -9 -6.5 -19
t-17.5 -13q-56 -19 -94 -39q-61 -32 -146 -95q-10 -35 -22 -117t-12 -129q0 -54 16 -54q19 0 57 46q27 34 55 68l6 2q8 0 8 -14q0 -12 -8 -28q-17 -32 -53 -70q-49 -52 -83 -52q-23 0 -38 30q-12 21 -12 66q0 50 13.5 124t26.5 142z" />
    <glyph glyph-name="L" unicode="L" horiz-adv-x="446" 
d="M66 74q51 14 73 20q39 10 67 14l18 2q34 0 34 -26q0 -22 -32 -22q-52 0 -117 -23t-83 -23q-22 0 -22 24t16 65q12 31 40 83q32 66 115 186q75 109 137 186q13 16 28 16q18 0 18 -16q0 -8 -6 -20q-20 -37 -69 -102q-111 -147 -131 -182q-26 -50 -52 -99q-29 -57 -34 -83z
" />
    <glyph glyph-name="M" unicode="M" horiz-adv-x="752" 
d="M274 174q28 43 66 97q95 136 114 165q65 94 110 137q37 35 58 35q18 0 18 -20q0 -33 -45 -113q-31 -54 -61 -107q-65 -134 -72 -150q-48 -109 -48 -156v-36q0 -18 -4.5 -28t-15.5 -10h-6q-13 1 -20.5 14t-7.5 34q0 36 17 92q14 45 31 80q45 99 84 172q14 27 76 134
q-38 -37 -103.5 -127t-162.5 -239q-28 -40 -54 -40q-12 0 -20 10t-8 22q0 54 17 108.5t51 119.5q19 35 30 57q18 35 30 63q-29 -23 -89 -118q-51 -82 -107 -184q-46 -84 -78 -150q-11 -23 -22 -45.5t-30 -22.5q-18 0 -18 16q0 19 19 56q14 25 19 34q38 82 94 178
q65 111 126 190q27 36 54.5 72t51.5 60q16 16 40 16q22 0 22 -22l-4 -20q-71 -144 -110 -232q-42 -95 -42 -142z" />
    <glyph glyph-name="N" unicode="N" horiz-adv-x="692" 
d="M284 102l80 172q53 115 91 185q32 59 63 109q12 20 27 32t25 12t10 -14q0 -15 -10 -30q-31 -48 -82.5 -139.5t-77.5 -140.5q-19 -36 -42 -95q-28 -73 -56 -145q-11 -21 -27 -35.5t-29 -14.5q-24 0 -24 50q0 100 16 205q22 110 44 221q-25 -28 -61.5 -81.5t-46.5 -78.5
q-26 -48 -58 -115q-27 -58 -48 -111q-25 -64 -27 -69q-15 -31 -33 -31q-16 0 -16 22q0 24 25 79q18 39 37 79q46 92 125.5 218.5t122.5 173.5q9 14 19.5 20t18.5 6q7 0 11.5 -5.5t4.5 -14.5q0 -8 -2 -12q-33 -71 -56.5 -206.5t-23.5 -221.5v-24z" />
    <glyph glyph-name="O" unicode="O" horiz-adv-x="554" 
d="M288 540q-17 0 -51 -17t-45 -17q-8 0 -12 8l-2 8q0 22 52.5 44t109.5 22q29 0 51 -6.5t38 -22t24.5 -38.5t8.5 -49q0 -80 -70 -197q-55 -93 -130 -173q-46 -49 -94 -77.5t-86 -28.5q-30 0 -50 21t-24 65v14q0 95 94 237q86 130 186 207zM314 540q8 0 8 -8q0 -12 -34 -48
l-60 -64q-71 -78 -117.5 -171.5t-46.5 -150.5q0 -50 38 -50q62 0 176 147q50 65 82 119q20 40 32 75q16 47 16 83v30q-9 18 -22 28q-18 14 -44 14z" />
    <glyph glyph-name="P" unicode="P" horiz-adv-x="574" 
d="M162 288q20 -4 32 -4q90 0 175 81q75 71 75 117q-3 25 -22.5 37.5t-51.5 12.5q-43 0 -100 -18q-28 -60 -42 -91q-47 -101 -66 -135zM204 468q-25 -12 -32.5 -15t-13.5 -3q-8 0 -16 12q-4 4 -4 10q0 15 28.5 35t63.5 33q3 20 13.5 31t20.5 11q20 0 20 -16v-6q20 10 44 15
t44 5q47 0 75.5 -24t28.5 -68q0 -100 -98 -178q-93 -74 -194 -74q-27 0 -48 6l-86 -214q-3 -16 -13 -26t-19 -10q-7 0 -12.5 8.5t-5.5 21.5l4 20q8 29 26 72q7 17 66 142q-14 14 -14 30q0 18 18 18l22 -2q35 67 51 99q22 44 31 67z" />
    <glyph glyph-name="Q" unicode="Q" horiz-adv-x="564" 
d="M168 82q-22 50 -46 58q-2 1 -12 2q-19 0 -48 -20q0 -76 38 -76q13 0 29.5 9t38.5 27zM82 174q30 12 52 12q29 0 47 -21q14 -16 27 -51q31 15 88 97q13 19 52 77q23 38 41.5 88t18.5 88t-19 59q-22 25 -67 25h-8q8 -11 8 -20q0 -11 -30 -36q-20 -17 -30 -30
q-89 -113 -108 -141q-55 -80 -72 -147zM180 28q-65 -40 -102 -40q-36 0 -53 31.5t-17 82.5q0 92 95 230q82 119 185 208q-18 -6 -51.5 -21t-42.5 -15q-11 0 -14 10v6q0 24 56.5 46t109.5 22q19 0 28 -1.5t20 -6.5q36 -14 52 -42t16 -64q0 -51 -26 -114q-20 -50 -56 -104
q-37 -62 -74 -107.5t-84 -86.5q11 -63 41.5 -109.5t62.5 -46.5q18 0 34 16q18 14 26 14q16 0 16 -14q0 -12 -8 -20q-42 -42 -84 -42q-47 0 -83 48t-47 120z" />
    <glyph glyph-name="R" unicode="R" horiz-adv-x="594" 
d="M140 222q-36 -80 -56 -126q-24 -55 -28 -68q-15 -30 -32 -30q-7 0 -15.5 7.5t-8.5 16.5l2 6q19 58 44.5 112.5t67.5 127.5l-4 34q0 13 8 19.5t30 6.5q36 59 57 96q27 47 37 70q-9 -3 -21.5 -10.5t-14.5 -7.5q-9 0 -12 18q0 22 74 66q0 11 5 19q9 13 23 13q18 0 18 -18
q20 7 43.5 11.5t38.5 4.5q34 0 59 -14q19 -11 27 -28q12 -30 12 -62q0 -84 -87 -149t-197 -65l-42 2q21 -55 51 -119q37 -79 63 -119l4 -22q0 -10 -6 -16t-14 -6q-7 0 -13.5 3.5t-10.5 12.5q-19 30 -45 84q-22 45 -57 130zM194 314q83 0 149 35t99 93q12 21 12 44
q0 25 -17.5 40.5t-48.5 15.5q-20 0 -43 -6.5t-51 -21.5q0 -13 -50 -106q-25 -46 -50 -94z" />
    <glyph glyph-name="S" unicode="S" horiz-adv-x="574" 
d="M182 274q-15 22 -23.5 44.5t-8.5 49.5q0 51 34 99q39 55 118 101q16 10 47.5 20t56.5 10q16 0 33 -6.5t25 -17.5q10 -17 10 -36q0 -55 -80 -123q-72 -61 -104 -61q-38 0 -38 16q0 20 38 30q52 13 94 57t42 75q0 22 -26 22q-14 0 -38 -6q-51 -20 -94 -57q-57 -49 -66 -103
l-2 -18q0 -39 43 -107q48 -76 53 -109l2 -20q0 -55 -70 -90q-56 -28 -106 -28q-58 0 -88 27.5t-30 66.5q0 31 21 59t51 31h10q26 0 26 -16t-20 -23t-29 -19t-9 -26q0 -22 19 -40t47 -18l22 4q106 23 106 82q0 49 -66 130z" />
    <glyph glyph-name="T" unicode="T" horiz-adv-x="662" 
d="M256 534q-50 0 -94 -12l-88 -28q-11 0 -18 14l-4 6q0 16 27.5 29.5t60.5 16.5q98 26 215 39q84 9 153 9q22 0 33 -7.5t11 -16.5t-11 -16.5t-27 -7.5q-99 -9 -124.5 -10.5t-81.5 -1.5l2 -10q0 -12 -30 -56q-16 -24 -24 -40l-110 -202q-70 -134 -90 -212q-9 -36 -30 -36
q-7 0 -13 6q-13 12 -13 34l2 16q11 44 65 146q24 45 105 188q62 110 84 152z" />
    <glyph glyph-name="U" unicode="U" horiz-adv-x="662" 
d="M394 368q-93 -125 -156.5 -206t-103.5 -120q-46 -46 -82 -46q-23 0 -36.5 19.5t-13.5 52.5q0 73 59 190q50 98 123 197q66 89 104 119q10 9 20.5 13.5t15.5 4.5q14 0 14 -16q0 -18 -10 -28q-35 -35 -82 -92q-61 -74 -92 -128q-100 -167 -100 -250q0 -22 14 -22
q24 0 101 94q72 89 142 177t99 125q66 83 92 108q15 18 30 18q20 0 20 -24q0 -16 -12 -26q-51 -57 -135.5 -239t-84.5 -239l2 -8v-16q0 -26 -20 -26q-13 0 -23.5 13t-10.5 35q0 54 62 189q25 54 64 131z" />
    <glyph glyph-name="V" unicode="V" horiz-adv-x="544" 
d="M54 36q56 95 90 151q83 137 126 202q73 109 124 165q11 14 22.5 21t19.5 7q12 0 12 -16q0 -9 -3 -18.5t-11 -19.5q-34 -42 -110 -153q-84 -123 -138 -208q-70 -111 -92 -159q-8 -19 -21.5 -29.5t-24.5 -10.5q-16 0 -28 16t-12 38l-2 24q0 96 23 199q18 81 51 173l52 136
q6 17 19.5 27.5t28.5 10.5q16 0 16 -16q0 -10 -2 -16q-31 -66 -57 -137q-37 -98 -57 -185q-26 -111 -26 -202z" />
    <glyph glyph-name="W" unicode="W" horiz-adv-x="722" 
d="M216 222q-23 -29 -103 -166q-51 -88 -87 -88h-4q-22 0 -22 40q0 25 9 65.5t19 86.5q19 68 45 139q17 46 53 136q27 66 54 133q12 24 32 24q24 0 24 -24q-61 -146 -110 -268q-55 -136 -70 -244q20 20 57 80q7 12 71 119q45 76 72 113q12 24 36 24q16 0 16 -18v-6
q-28 -71 -46 -148t-18 -126q0 -16 4 -32q23 33 83 150q80 157 108 208q66 119 115 174q5 8 15.5 12t18.5 4t14 -4t6 -10q0 -8 -8 -16q-49 -57 -113 -165q-50 -83 -110 -202q-49 -96 -83 -171q-10 -25 -29.5 -41.5t-36.5 -16.5q-18 0 -29 19.5t-11 58.5q0 26 11 82
q7 34 17 78z" />
    <glyph glyph-name="X" unicode="X" horiz-adv-x="702" 
d="M284 282q-39 -39 -115.5 -127.5t-104.5 -126.5q-24 -34 -44 -34q-3 0 -7.5 4.5t-4.5 9.5q0 4 2.5 10.5t9 21.5t69.5 88q57 65 115 131q64 73 72 89q0 84 -5.5 143.5t-20.5 88.5l-4 16q0 22 26 22q23 0 26 -18q9 -29 17 -79q12 -94 17 -127q60 60 99 97q74 70 127 103
q9 6 18 6q14 0 14 -20q0 -8 -1 -12q-4 -14 -11 -20q-41 -34 -115 -100q-58 -52 -131 -120l-2 -38q0 -77 14.5 -167.5t33.5 -140.5l2 -10q0 -10 -8 -16t-20 -6q-19 0 -28 18q-11 34 -25 115q-17 100 -17 169z" />
    <glyph glyph-name="Y" unicode="Y" horiz-adv-x="554" 
d="M234 322q-31 -31 -64 -61q-39 -36 -64 -53q-15 -9 -30.5 -15.5t-29.5 -6.5q-18 0 -29 12t-11 40l2 24q0 64 72.5 168.5t145.5 149.5q15 6 24 6q10 0 17 -6t7 -14t-6 -16.5t-22 -15.5q-79 -49 -142 -155q-52 -88 -52 -127l2 -4q5 -10 12 -10q39 0 160 130q101 108 182 220
q13 20 28 20q8 0 15 -8t7 -20q0 -9 -2.5 -16t-9.5 -16q-87 -102 -190 -280q-99 -171 -136 -280q-4 -10 -13 -17t-17 -7t-15 7.5t-7 20.5q0 4 2 10.5t4 13.5q9 40 59 135q46 88 101 171z" />
    <glyph glyph-name="Z" unicode="Z" horiz-adv-x="652" 
d="M48 56q50 0 120 22q22 7 120 44h14q12 0 21 -7t9 -15q0 -9 -12 -17.5t-32 -8.5q-31 0 -120 -34t-120 -34t-40 22q-4 12 -4 18q0 20 25 56q9 13 33 46q55 80 186 214q120 123 212 198q-28 -3 -93.5 -11.5t-84.5 -8.5h-12q-29 0 -43.5 9.5t-14.5 22.5q0 18 22 18l20 -2
q7 -2 19 -4t15 -2q32 0 89 9q31 5 89 17l40 2q20 0 30 -6.5t10 -15.5q0 -11 -6.5 -20.5t-11.5 -13.5q-144 -115 -285 -264q-128 -135 -195 -234z" />
    <glyph glyph-name="bracketleft" unicode="[" horiz-adv-x="524" 
d="M60 -46q47 40 82 40q11 0 18.5 -5.5t7.5 -14.5q0 -12 -47 -33q-34 -16 -61 -45q-14 -14 -28 -14q-11 0 -18.5 13.5t-7.5 36.5l2 16q6 48 50.5 178.5t97.5 257.5q60 143 104 216q10 18 30 18q5 0 19 -2t23 -2q24 0 48 12q16 8 20 8q8 0 16 -7t8 -15q0 -11 -16 -24
q-21 -12 -56.5 -16t-65.5 -4q-14 -37 -74 -176.5t-94 -231.5q-49 -134 -58 -206z" />
    <glyph glyph-name="backslash" unicode="\" 
 />
    <glyph glyph-name="bracketright" unicode="]" horiz-adv-x="514" 
d="M370 580q-9 -18 -35.5 -31t-48.5 -13q-24 0 -24 18t14 23q58 21 86 49q17 20 36 20q9 0 16.5 -11t7.5 -27v-14q-7 -62 -55 -200q-39 -111 -101 -258q-54 -127 -90 -200q-6 -16 -16.5 -20t-15.5 -4q-4 0 -18 2t-24 2q-24 0 -52 -14l-20 -4q-8 0 -15 8t-7 16q0 19 22 26
q32 7 55 11.5t37 4.5q18 0 20 -2q228 509 228 618z" />
    <glyph glyph-name="asciicircum" unicode="^" 
 />
    <glyph glyph-name="underscore" unicode="_" horiz-adv-x="514" 
d="M8 -104v52h418v-52h-418z" />
    <glyph glyph-name="grave" unicode="`" horiz-adv-x="238" 
d="M46 456q5 30 34 77.5t58 66.5q7 7 14 7.5t8 0.5q16 0 16 -18q0 -12 -10 -22q-35 -35 -50 -63t-17 -50.5t-9.5 -31.5t-17.5 -9q-11 0 -19.5 9.5t-8.5 22.5z" />
    <glyph glyph-name="a" unicode="a" horiz-adv-x="298" 
d="M136 102q-19 -33 -43.5 -53.5t-44.5 -20.5q-12 0 -22 9t-15 23t-5 26q0 50 35 115t81 93q27 18 58 18q42 0 42 -34l-4 -22q4 -4 4 -12q0 -13 -26 -66t-26 -70l-2 -14q0 -29 20 -40t20 -26q0 -16 -24 -16q-19 0 -34 14q-18 17 -18 46zM188 248q-1 11 -8 16.5t-16 5.5
q-13 0 -29.5 -11.5t-24.5 -22.5q-18 -29 -36 -67q-22 -47 -22 -67q0 -17 12 -20l2 -2q18 0 48 49q37 59 74 119z" />
    <glyph glyph-name="b" unicode="b" horiz-adv-x="376" 
d="M154 274q12 12 30 19t34 7t27 -10t11 -32v-16q-10 -53 -34 -95.5t-62 -79.5t-68 -37q-24 0 -44 26q-1 -13 -12.5 -24.5t-21.5 -11.5q-12 0 -12 16q0 5 2 14l4 18q13 37 52.5 110t80.5 149q56 105 87 175q14 30 29 44t27 14q18 0 18 -22v-10q-18 -34 -71 -124
q-74 -126 -77 -130zM62 88q12 -16 26 -16q31 0 66 50q22 28 38 58.5t16 53.5v14q-5 10 -18 10q-19 0 -57 -48q-19 -24 -31 -42z" />
    <glyph glyph-name="c" unicode="c" horiz-adv-x="298" 
d="M18 160q15 51 72 108q17 17 39 31q27 17 43 17q30 0 30 -42q0 -30 -21 -60t-39 -30l-6 4q-6 0 -6 10q0 9 18 31t18 31l-4 8h-4q-16 0 -57.5 -48t-50.5 -80q-3 -10 -6.5 -23t-3.5 -17q0 -15 7.5 -23.5t18.5 -8.5q22 0 55.5 25t60.5 67q9 18 24 18q12 0 12 -14v-10
q-26 -45 -69 -82q-51 -44 -93 -44l-8 -2q-25 0 -36.5 16t-11.5 42q0 17 5.5 37.5t12.5 38.5z" />
    <glyph glyph-name="d" unicode="d" horiz-adv-x="466" 
d="M136 114q-17 -41 -41.5 -62.5t-46.5 -21.5q-25 0 -38 26q-3 8 -6.5 20t-3.5 22q0 40 21 87.5t55 82.5q16 16 40 27t44 11q22 0 28 -12l88 162q25 49 40 72q20 30 34 30q8 0 12.5 -3.5t6 -8.5t1.5 -12q0 -12 -11.5 -30t-22.5 -36q-54 -91 -93 -170q-63 -129 -63 -190
q0 -30 16 -46q12 -12 12 -22q0 -6 -7 -10t-15 -4q-14 0 -25 11t-20 26.5t-9 32.5q4 14 4 18zM176 262q-8 2 -24 2q-25 0 -50 -22q-18 -19 -39 -63.5t-21 -68.5q0 -19 14 -22l2 -2q24 0 63 67q15 26 55 109z" />
    <glyph glyph-name="e" unicode="e" horiz-adv-x="316" 
d="M54 114q0 -19 8 -29.5t22 -10.5q28 0 67 25t69 61q11 16 20 16q6 0 6 -12v-10q-12 -34 -69 -76q-63 -46 -111 -46q-34 0 -52 30q-4 9 -8 19.5t-4 20.5q0 33 23 78q20 39 41 62q26 25 49 40q32 22 53 22l18 -2q18 -12 18 -34q0 -26 -30 -64q-23 -29 -48 -50
q-12 -12 -36 -24q-16 -8 -36 -16zM60 160q32 0 80 48q20 20 20 38q0 12 -10 12q-7 0 -14 -3.5t-16 -12.5q-15 -15 -33 -39t-27 -43z" />
    <glyph glyph-name="f" unicode="f" horiz-adv-x="484" 
d="M24 -190q-8 9 -12 23.5t-4 32.5q0 30 9 66q4 18 13 42q16 48 37.5 99t42.5 101l-8 -2q-16 0 -16 10q0 12 18.5 32.5t45.5 41.5q53 99 89 161q56 96 97 143q10 13 20 18.5t22 5.5q18 0 18 -16q0 -14 -14 -28q-36 -36 -87 -112.5t-87 -145.5q22 10 42 16q32 10 54 10
q20 0 32 -6q16 -13 16 -28t-22 -18l-8 -2q-6 0 -18 6t-24 6l-32 -4q-11 0 -36.5 -11.5t-35.5 -22.5q29 -9 43 -45q11 -29 11 -69v-16q0 -10 -2 -24q-29 -128 -81 -209q-48 -75 -91 -75q-9 0 -17.5 5t-14.5 15zM162 188q-27 -56 -68 -165q-44 -117 -44 -141q6 -38 22 -38
q20 0 51 49.5t53 114.5q8 23 13 49.5t5 54.5q0 30 -7.5 50t-24.5 26z" />
    <glyph glyph-name="g" unicode="g" horiz-adv-x="494" 
d="M176 -26q-19 0 -45 -19t-47 -47q-16 -14 -28 -32.5t-12 -29.5q0 -16 12 -16h8q23 0 56 51q28 47 56 93zM262 174q-9 2 -11 2.5t-5 3.5q15 15 31 33.5t25 42.5v8q0 10 -12 10q-17 0 -44 -28q-36 -38 -76 -112q-10 -13 -10 -28q0 -20 16 -20q14 0 35 20q27 25 51 68z
M96 -198q-24 -24 -52 -24q-17 0 -30.5 14t-13.5 38q0 9 4 23.5t6 22.5q14 41 65 81q42 32 121 71q12 20 17 30q9 18 9 30q-39 -42 -72 -42q-14 0 -23 12t-9 32q0 59 70 152q33 42 64 61t54 19q19 0 31.5 -13.5t12.5 -32.5q0 -23 -14 -40q12 0 12 -10q-28 -40 -50 -77
q-25 -41 -30 -75q41 31 75 74q26 34 53 68q8 0 8 -12q0 -30 -45 -86q-53 -66 -123 -102q-37 -80 -62 -122q-41 -69 -78 -92z" />
    <glyph glyph-name="h" unicode="h" horiz-adv-x="376" 
d="M122 222q41 41 72.5 59.5t51.5 18.5q18 0 18 -18l-2 -14q-29 -46 -58 -91q-34 -56 -34 -73q0 -10 10 -10q25 0 53 41q20 30 29 45q13 20 26 20q6 0 6 -10q0 -7 -6 -22q-16 -40 -52 -80q-43 -48 -76 -48l-6 2q-30 3 -30 38q0 30 20 75q17 39 50 87q-95 -77 -139 -184
q-15 -36 -33 -36t-18 22q0 20 12 51t32 65q52 95 98 195q27 61 55 123q24 50 47 76q6 6 18 6q22 0 22 -22q0 -12 -6 -24q-37 -53 -87 -143q-55 -98 -73 -149z" />
    <glyph glyph-name="i" unicode="i" horiz-adv-x="316" 
d="M178 436q9 13 20.5 20.5t17.5 7.5l8 -2q16 0 16 -20l-2 -14q-10 -20 -25.5 -33t-26.5 -13q-18 0 -18 22q0 12 10 32zM118 288q11 14 22 14q12 0 12 -16q0 -13 -8 -24q-21 -27 -57.5 -105t-41.5 -104.5t-23 -26.5q-16 0 -16 30q4 38 40.5 112t71.5 120z" />
    <glyph glyph-name="j" unicode="j" horiz-adv-x="564" 
d="M402 428q10 13 22 20.5t18 7.5h8q6 0 10 -6t4 -14v-16q-11 -21 -26 -32.5t-28 -11.5q-18 0 -18 20q0 6 4 16.5t6 15.5zM184 -18q-30 -10 -60.5 -37t-45.5 -57q-11 -17 -19.5 -34t-8.5 -24q0 -14 14 -14q28 0 74 68.5t46 97.5zM276 74q34 25 56 48.5t38 51.5q6 14 22 14
q14 0 14 -12l-4 -16q-17 -33 -57 -71q-47 -45 -101 -73q-47 -112 -73 -154q-54 -88 -107 -88h-6q-25 0 -39.5 14.5t-14.5 33.5q0 26 18.5 58.5t49.5 61.5q22 22 58 44l88 50q2 4 63 145q30 70 55 107q11 14 24 14q5 0 12.5 -4.5t7.5 -13.5q0 -10 -4 -16q-8 -14 -30 -51
q-38 -63 -70 -143z" />
    <glyph glyph-name="k" unicode="k" horiz-adv-x="484" 
d="M162 302q29 20 51 39q26 22 63 59q27 27 51.5 63.5t24.5 52.5q0 12 -10 12q-29 0 -99 -98q-53 -74 -81 -128zM136 174q-19 -19 -41 -53t-39 -65q-4 -10 -12.5 -15t-17.5 -5q-7 0 -12.5 5.5t-5.5 14.5l2 12q63 153 150 295q101 165 176 211q20 10 32 10q26 0 26 -38
q0 -51 -58 -125q-72 -92 -206 -179l-34 -68q33 40 88.5 79t81.5 39q18 0 18 -10v-8q0 -9 -36 -23q-28 -11 -46 -23q-32 -70 -32 -112t30 -42q22 0 52.5 25.5t57.5 68.5q2 8 7 12t13 4q8 -7 8 -12l-2 -12q-14 -43 -56 -85q-48 -49 -92 -49q-14 0 -18 2q-21 5 -29.5 28
t-8.5 56q0 15 1 27.5t3 34.5z" />
    <glyph glyph-name="l" unicode="l" horiz-adv-x="426" 
d="M114 268q35 26 76 73t72 95q20 30 32 55.5t12 40.5q0 16 -12 16q-20 0 -87.5 -103t-92.5 -177zM74 180q-28 -62 -28 -82q0 -14 10 -14q13 0 41 32t37 58q2 6 7 11t11 5q4 0 9 -5.5t5 -12.5q0 -9 -6 -18q-26 -54 -65 -88q-34 -30 -59 -30q-32 0 -32 40q0 4 2 15t2 17
q43 149 132 294q83 136 148 178q8 6 17 7.5l15 2.5q14 0 21 -9.5t7 -26.5q0 -19 -8 -32q-36 -93 -115 -190q-68 -84 -151 -152z" />
    <glyph glyph-name="m" unicode="m" horiz-adv-x="446" 
d="M102 188q27 25 55 51q39 35 65 35q16 0 16 -10q0 -9 -20.5 -36.5t-21.5 -33.5q19 13 53 44q56 50 81 50q20 0 20 -14q0 -8 -5.5 -18.5t-14.5 -19.5q-31 -26 -55.5 -69.5t-24.5 -72.5q0 -21 14 -32q10 -10 10 -22q0 -9 -9.5 -16.5t-18.5 -7.5t-18 12q-11 20 -15 30
q-7 18 -7 36q0 21 11 48t33 58q-54 -43 -84 -92q-45 -72 -56 -72q-16 0 -16 18q0 22 21 67t41 73q-38 -24 -69 -70q-26 -39 -43 -88q-3 -20 -22 -20q-18 0 -18 26q11 64 59 158t73 94q18 0 18 -10q0 -6 -26 -48q-18 -30 -26 -48z" />
    <glyph glyph-name="n" unicode="n" horiz-adv-x="336" 
d="M152 188q-38 -27 -69 -74q-51 -78 -69 -78q-14 0 -14 12q0 16 19 55q5 9 41 77q57 108 72 108q18 0 18 -14q0 -12 -13.5 -36t-24.5 -44q46 45 66 63q35 31 62 31q20 0 20 -14q0 -8 -16 -30q-45 -61 -52 -76q-14 -29 -22 -53q-12 -34 -12 -57q0 -19 8 -30q6 -12 6 -24
q0 -16 -14 -16q-12 0 -26 14q-18 22 -18 52q0 31 14 73q7 22 24 61z" />
    <glyph glyph-name="o" unicode="o" horiz-adv-x="288" 
d="M132 154q-5 0 -7 2t-3 4q0 8 22 38q19 26 22 30q10 20 10 30q0 16 -14 16q-12 0 -34 -23q-27 -29 -54 -77q-26 -40 -26 -68t22 -28q17 0 35 20t27 56zM186 322q15 -1 22.5 -14t7.5 -34q0 -20 -7.5 -46.5t-22.5 -59.5q-28 -61 -61 -98q-37 -42 -71 -42q-23 0 -34.5 15.5
t-11.5 40.5q0 70 55 151q59 87 123 87z" />
    <glyph glyph-name="p" unicode="p" horiz-adv-x="446" 
d="M152 48q-49 -97 -92 -216q-21 -58 -40 -58h-6q-8 0 -8 16q0 33 42 130q48 112 104 214q116 214 126 214q18 0 18 -16q0 -10 -11 -28.5t-21 -35.5q36 26 62 26q16 0 26 -11t10 -33q0 -16 -5.5 -40t-16.5 -50q-23 -46 -67 -85q-48 -43 -85 -43q-23 0 -36 16zM166 82
q6 -12 22 -12t41 22q20 18 43 48q19 27 31.5 54.5t12.5 43.5q0 18 -12 18q-33 0 -81 -72q-24 -37 -57 -102z" />
    <glyph glyph-name="q" unicode="q" horiz-adv-x="316" 
d="M116 74q-42 -48 -70 -48q-34 0 -34 52q0 28 10.5 60.5t33.5 69.5q37 57 71 82.5t61 25.5q16 0 27 -11t11 -25t-2 -18q18 -3 18 -16q0 -10 -12 -34l-12 -24q-47 -95 -89 -191q-50 -114 -73 -181q-5 -20 -9 -41q-9 -27 -29 -27q-18 0 -18 24q0 33 42 133q37 85 74 169z
M142 154l-4 6q0 8 21 32t23 34t2 26q0 22 -14 22q-11 0 -32 -23q-25 -28 -54 -77q-13 -18 -20.5 -39.5t-7.5 -34.5q0 -24 14 -24q12 0 30 18q23 23 42 60z" />
    <glyph glyph-name="r" unicode="r" horiz-adv-x="396" 
d="M112 188q40 35 60 53q39 34 66 53q12 6 22 6q16 0 16 -12q0 -10 -10 -20q-23 -20 -34.5 -35.5t-11.5 -22.5q0 -10 14 -10q13 0 31 8.5t29 19.5q5 8 14 8q12 0 12 -12q0 -11 -8 -16q-25 -27 -49.5 -40.5t-50.5 -13.5q-19 0 -30.5 9t-11.5 29l2 16q-39 -40 -71 -85
q-37 -51 -41 -75q-4 -15 -15.5 -25.5t-22.5 -10.5q-16 0 -16 18l2 12q33 91 65 153q51 99 87 99q10 0 10 -8q0 -9 -32 -55q-19 -28 -26 -43z" />
    <glyph glyph-name="s" unicode="s" horiz-adv-x="356" 
d="M88 160q-14 28 -14 48q0 48 44.5 84t95.5 36q30 0 46 -15t16 -35q0 -31 -30.5 -57.5t-77.5 -26.5q-10 0 -18 4t-8 10q0 17 28 20t42 15t14 25q0 20 -26 20h-6q-36 0 -56 -22.5t-20 -53.5q0 -23 16 -52q22 -35 22 -76q0 -31 -17.5 -49.5t-56.5 -18.5q-38 0 -57 22.5
t-19 55.5q0 26 10 46q4 13 14.5 21.5t19.5 8.5q8 0 8 -10l-2 -12q-12 -18 -12 -38t12 -37t26 -17q38 0 38 28q0 14 -10 36.5t-22 39.5z" />
    <glyph glyph-name="t" unicode="t" horiz-adv-x="346" 
d="M82 294l-28 -8q-18 0 -18 22q0 15 23.5 20.5t48.5 11.5q23 39 43 66q11 15 29 36q16 16 30 16q12 0 12 -14v-8q-3 -15 -13 -29q-18 -24 -35 -47q10 3 33.5 6.5t36.5 3.5q24 0 24 -10v-6q0 -17 -50.5 -23t-77.5 -17q-45 -85 -66.5 -140.5t-21.5 -79.5q0 -20 12 -20
q17 0 45.5 29.5t44.5 64.5q7 12 18 12q12 0 12 -14q0 -4 -4 -12q-29 -59 -63 -90.5t-63 -31.5q-14 0 -26 8t-20 22q-2 8 -4 17t-2 13q0 39 30 107q22 50 50 95z" />
    <glyph glyph-name="u" unicode="u" horiz-adv-x="298" 
d="M132 102q-50 -68 -82 -68q-16 0 -29 13t-13 37q0 22 10.5 51.5t28 59.5t36.5 51q25 28 43 28t18 -10q0 -8 -34 -53q-39 -52 -50 -89q-2 -6 -3 -16.5t-1 -11.5q0 -12 6 -12q14 0 47.5 45.5t56.5 100.5q8 21 17.5 30.5t18.5 9.5q18 0 18 -26q0 -15 -8 -26
q-19 -32 -29.5 -60t-10.5 -46t7.5 -30.5t18.5 -17.5q22 -9 22 -26q0 -14 -28 -14q-26 0 -43 17.5t-17 46.5v16z" />
    <glyph glyph-name="v" unicode="v" horiz-adv-x="346" 
d="M160 154q-18 -38 -58 -79t-64 -41l-2 2q-15 1 -24.5 16.5t-9.5 35.5q0 8 2.5 21t3.5 19q8 23 25 55q24 45 49 91q3 16 18 16q16 0 16 -16l-2 -12q-4 -17 -48 -108q-20 -41 -20 -54q0 -12 10 -12q15 0 43 33t41 73v14q0 39 18 62.5t36 23.5q16 0 16 -24q0 -25 -30 -76
q12 -6 14 -6q11 0 24.5 9t23.5 19q2 2 6 4l8 4q6 0 10 -6t4 -14q0 -12 -8 -24q-35 -32 -70 -32q-17 0 -32 6z" />
    <glyph glyph-name="w" unicode="w" horiz-adv-x="426" 
d="M160 148q-42 -63 -69.5 -87.5t-56.5 -24.5q-30 0 -30 30q0 67 96 190q11 18 32 18q18 0 18 -16q0 -15 -18 -30q-18 -20 -46 -61q-32 -47 -32 -61q0 -4 6 -4l2 -2q20 0 68 57q31 39 62 79q10 12 20.5 17t19.5 5q14 0 14 -14t-6 -22q-21 -30 -38 -65q-22 -44 -22 -63
q0 -12 12 -12q15 0 58.5 69t43.5 97q0 25 11.5 39.5t24.5 14.5q16 0 16 -26v-14q-7 -45 -61 -132q-64 -102 -113 -102q-18 0 -28 11t-10 29q0 15 7 36.5t19 43.5z" />
    <glyph glyph-name="x" unicode="x" horiz-adv-x="346" 
d="M110 114q-10 -12 -24 -29q-37 -42 -42 -49q-13 -16 -26 -16q-16 0 -16 14q0 15 22 34l86 92v90q2 44 20 44q13 0 16.5 -6.5t3.5 -23.5v-56q11 15 30 35q26 27 35.5 39t20.5 12q18 0 18 -14q0 -6 -6 -12q-12 -15 -53 -59q-34 -37 -45 -55l-6 -38q0 -32 16 -32q13 0 36 26
t40 58q8 12 20 12t12 -14l-4 -18q-20 -37 -56 -75q-42 -45 -66 -45q-18 0 -25 24t-7 62z" />
    <glyph glyph-name="y" unicode="y" horiz-adv-x="514" 
d="M198 -12q-63 -31 -108 -79q-38 -41 -38 -59q0 -32 22 -32q10 0 18.5 3.5t19.5 14.5q24 25 50 78.5t36 73.5zM276 154q-31 -48 -72.5 -82t-67.5 -34t-26 36l2 8q0 37 35 89q28 42 77 91q12 12 22 12q14 0 14 -18l-4 -14q-24 -28 -41.5 -50.5t-36.5 -51.5q-18 -21 -18 -36
q0 -8 8 -8q5 0 14.5 4.5t21.5 13.5q23 19 85 93q28 33 55 67q7 12 22 12q22 0 22 -22q0 -10 -4 -16q-23 -39 -36 -61q-44 -74 -58 -113q34 24 57 47t37 47q9 20 22 20q12 0 12 -18v-10q-23 -37 -66 -76q-49 -44 -96 -62q-46 -130 -102 -197q-48 -57 -90 -57q-58 0 -58 74
q4 49 67 105t145 89q29 53 36 66q15 29 22 52z" />
    <glyph glyph-name="z" unicode="z" horiz-adv-x="336" 
d="M74 88q11 4 27.5 6t32.5 2q22 0 37 -5.5t15 -16.5q0 -24 -22 -24q-6 0 -25 3t-31 3q-21 0 -34 -8q-17 -8 -26 -12q-19 -8 -28 -8q-16 0 -16 18q4 10 4 16q8 34 73 102q45 47 105 98q-13 0 -39 -4t-35 -4q-38 0 -38 28q0 14 20 14q6 0 27 -2t35 -2l30 2q21 6 38 6
q15 0 23.5 -6t8.5 -14q0 -11 -10 -18q-78 -61 -121 -105q-35 -36 -51 -69z" />
    <glyph glyph-name="braceleft" unicode="{" horiz-adv-x="662" 
d="M88 262q27 -17 41.5 -45t14.5 -59q0 -13 -3 -25t-5 -19l-54 -106q-2 -6 -4 -12.5t-2 -7.5q0 -25 18.5 -45.5t41.5 -20.5h14l22 4q12 0 12 -8t-13.5 -19t-28.5 -11q-50 0 -79 18q-35 22 -35 68q0 28 35 91t35 91q0 19 -10 32q-41 32 -60.5 46.5t-19.5 27.5q0 10 75 43
q83 36 99 49q32 23 66 81q46 80 62 100q45 56 112 85q13 5 41.5 11.5t48.5 6.5q18 0 28 -4t10 -14q0 -13 -8 -17.5t-22 -4.5h-28q-19 0 -35 -3.5t-35 -14.5q-60 -35 -95 -97q-63 -112 -65 -115q-20 -27 -77.5 -62t-96.5 -44z" />
    <glyph glyph-name="bar" unicode="|" 
 />
    <glyph glyph-name="braceright" unicode="}" horiz-adv-x="642" 
d="M454 268q-25 17 -38.5 43.5t-13.5 54.5q0 38 18 70q44 67 44 114q0 52 -52 52q-16 0 -24 -2l-14 -2q-14 0 -14 10q0 9 13.5 21.5t26.5 12.5q60 0 88 -23t28 -63q0 -29 -13.5 -63.5t-36.5 -72.5q-16 -29 -16 -48q0 -34 61 -70q29 -17 29 -28q0 -18 -83 -54
q-52 -22 -77 -40q-51 -34 -95 -110q-50 -87 -78 -114q-58 -56 -165 -68q-42 0 -42 22q0 7 7.5 13.5t18.5 6.5l10 -2l20 -2q58 0 110 46q56 49 94 142q24 52 79 93q45 34 115 61z" />
    <glyph glyph-name="asciitilde" unicode="~" 
 />
    <glyph glyph-name="c128" horiz-adv-x="1000" 
 />
    <glyph glyph-name="c129" horiz-adv-x="1000" 
 />
    <glyph glyph-name="quotesinglbase" unicode="&#x201a;" 
 />
    <glyph glyph-name="florin" unicode="&#x192;" 
 />
    <glyph glyph-name="quotedblbase" unicode="&#x201e;" 
 />
    <glyph glyph-name="ellipsis" unicode="&#x2026;" 
 />
    <glyph glyph-name="dagger" unicode="&#x2020;" 
 />
    <glyph glyph-name="daggerdbl" unicode="&#x2021;" 
 />
    <glyph glyph-name="circumflex" unicode="&#x2c6;" 
 />
    <glyph glyph-name="perthousand" unicode="&#x2030;" 
 />
    <glyph glyph-name="Scaron" unicode="&#x160;" 
 />
    <glyph glyph-name="guilsinglleft" unicode="&#x2039;" 
 />
    <glyph glyph-name="OE" unicode="&#x152;" 
 />
    <glyph glyph-name="c141" horiz-adv-x="1000" 
 />
    <glyph glyph-name="c142" horiz-adv-x="1000" 
 />
    <glyph glyph-name="c143" horiz-adv-x="1000" 
 />
    <glyph glyph-name="c144" horiz-adv-x="1000" 
 />
    <glyph glyph-name="quoteleft" unicode="&#x2018;" horiz-adv-x="752" 
d="M582 62q8 28 28 28l12 -2q5 -3 9.5 -10.5t4.5 -17.5q0 -16 -8 -32q-12 -30 -38 -30q-18 0 -18 24q0 13 10 40zM302 62q3 13 12 20.5t18 7.5l10 -2q14 -7 14 -28q0 -14 -6 -32q-15 -30 -38 -30q-20 0 -20 24q0 13 10 40zM16 62q6 28 28 28l12 -2q12 -8 12 -28
q0 -14 -6 -32q-12 -30 -38 -30q-18 0 -18 24q0 5 1 14.5t9 25.5z" />
    <glyph glyph-name="quoteright" unicode="&#x2019;" horiz-adv-x="168" 
d="M152 456q29 23 49 56t25 62q7 26 30 26q8 0 16 -8.5t8 -23.5q0 -40 -45 -97t-75 -57q-20 0 -20 16q0 11 12 26z" />
    <glyph glyph-name="quotedblleft" unicode="&#x201c;" horiz-adv-x="890" 
d="M112 294v254q-58 0 -65.5 -5.5t-12.5 -48.5h-26v80h272v-80h-26q0 36 -10 45t-44 9h-32v-254q0 -25 16 -33q10 -5 36 -5v-20h-154v20q30 0 38 5t8 33zM352 574h102l92 -252l108 252h106v-20q-24 0 -29 -5t-5 -27v-234l-2 -22q0 -7 8.5 -8t19.5 -2v-20h-118v20q21 0 27 4
q13 8 13 34v254l-134 -320l-132 312v-246q0 -24 7 -31t31 -7v-20h-100v20q23 0 28.5 5.5t5.5 32.5v228q0 18 -4 25t-24 7v20z" />
    <glyph glyph-name="quotedblright" unicode="&#x201d;" 
 />
    <glyph glyph-name="bullet" unicode="&#x2022;" horiz-adv-x="178" 
d="M26 428q-10 10 -10 18q0 18 20 18q11 0 16 -8q5 -13 48 -68q18 -23 18 -32q0 -2 -6 -8l-10 -4q-13 0 -33 27q-41 55 -43 57z" />
    <glyph glyph-name="endash" unicode="&#x2013;" 
 />
    <glyph glyph-name="emdash" unicode="&#x2014;" 
 />
    <glyph glyph-name="tilde" unicode="&#x2dc;" 
 />
    <glyph glyph-name="trademark" unicode="&#x2122;" 
 />
    <glyph glyph-name="scaron" unicode="&#x161;" 
 />
    <glyph glyph-name="guilsinglright" unicode="&#x203a;" 
 />
    <glyph glyph-name="oe" unicode="&#x153;" 
 />
    <glyph glyph-name="c157" horiz-adv-x="1000" 
 />
    <glyph glyph-name="c158" horiz-adv-x="1000" 
 />
    <glyph glyph-name="Ydieresis" unicode="&#x178;" horiz-adv-x="316" 
d="M180 174q13 29 16 44q2 2 2 12q0 12 -11 21t-27 9q-20 0 -36.5 -13.5t-19.5 -38.5l-2 -12q0 -16 11 -24t25 -8q11 0 22 3t20 7zM166 140q-9 -2 -16.5 -3t-15.5 -1q-22 -8 -60 -53t-44 -47q-12 0 -20 5t-8 11l2 4q8 13 33 39q54 56 57 59q-16 5 -24 13t-8 23l2 20
q0 40 39 64q33 20 75 20q27 0 46.5 -10.5t19.5 -27.5v-4q-6 -42 -38 -109.5t-68 -114.5q-13 -16 -26 -16q-12 0 -12 16q0 13 11.5 26.5t28 40t26.5 45.5z" />
    <glyph glyph-name="nonbreakingspace" unicode="&#xa0;" horiz-adv-x="500" 
 />
    <glyph glyph-name="exclamdown" unicode="&#xa1;" horiz-adv-x="446" 
d="M298 360q3 13 12 20.5t18 7.5h12q12 -8 12 -28q0 -14 -6 -30t-18 -25t-22 -9q-18 0 -18 26q0 15 10 38zM238 236q9 20 26 20q9 0 17.5 -8.5t8.5 -21.5q0 -14 -12 -32q-20 -26 -75 -120q-49 -83 -95 -168q-49 -90 -54 -104q-6 -11 -13.5 -16.5t-14.5 -5.5q-9 0 -16.5 9.5
t-7.5 22.5q4 10 6 18q32 65 81 148q42 71 86 145t63 113z" />
    <glyph glyph-name="cent" unicode="&#xa2;" horiz-adv-x="336" 
d="M172 328q-34 -15 -61.5 -43.5t-44.5 -62.5q-14 -32 -14 -52q0 -22 22 -22q27 56 53 103q32 54 45 77zM100 140q31 0 63.5 15.5t56.5 44.5q11 14 20 14q16 0 16 -16q0 -2 -0.5 -4.5t-1.5 -5.5q-29 -34 -76.5 -62t-83.5 -28l-14 4q-16 -34 -32 -67q-15 -27 -28 -27
q-10 3 -10 12q0 10 12 34.5t24 47.5q-42 15 -42 60q0 17 8 40t22 46q28 48 63 76q45 36 111 50q9 21 14.5 33.5t17.5 12.5q16 0 16 -12q0 -7 -6 -17.5t-16 -22.5q30 -15 30 -52q0 -36 -30 -60q-9 -8 -17.5 -12t-14.5 -4q-14 0 -14 12q0 6 10 16q13 9 20.5 21.5t7.5 22.5
q0 16 -12 16q-11 0 -43 -55q-25 -42 -71 -133z" />
    <glyph glyph-name="sterling" unicode="&#xa3;" horiz-adv-x="554" 
d="M176 236q-6 0 -27 -4t-31 -4q-28 0 -28 20q0 17 8 21.5t28 4.5h28q17 0 26.5 1.5t21.5 6.5q64 128 94 163q42 49 104 49h16q18 0 28 -6.5t10 -15.5q0 -18 -26 -18l-6 2h-14q-49 0 -95 -62q-17 -23 -57 -100q21 3 49 9.5t35 6.5l16 -2q13 -3 18.5 -8.5t5.5 -15.5
q0 -7 -9.5 -15.5t-18.5 -8.5l-2 2q-8 2 -26 2q-14 0 -45 -6t-51 -10q-5 -30 -34 -88.5t-58 -91.5q56 13 90 19.5t54 6.5h16q13 0 19.5 -6.5t6.5 -13.5q0 -9 -7.5 -17.5t-18.5 -8.5h-18q-57 0 -136 -25q-107 -34 -112 -35h-6q-8 0 -15 6t-7 14q0 10 7.5 20t20.5 14
q43 14 83 71q34 48 63 123z" />
    <glyph glyph-name="currency" unicode="&#xa4;" 
 />
    <glyph glyph-name="yen" unicode="&#xa5;" horiz-adv-x="574" 
d="M254 288q79 99 108 131q44 49 78 75q8 8 18 8q8 0 15 -9t7 -17q0 -11 -6 -14q-36 -29 -80 -76q-33 -35 -134 -158l32 2q25 0 39.5 -5.5t14.5 -16.5q0 -18 -24 -18h-32q-15 0 -32 -2.5t-32 -7.5l-14 -20h38q18 0 31 -2.5t13 -17.5q0 -18 -22 -18l-46 2l-46 -2
q-6 -10 -63 -98q-26 -40 -31.5 -52t-25.5 -12q-18 0 -18 18l4 16q29 61 74 114q-24 -3 -52.5 -7.5t-35.5 -4.5q-24 0 -24 26q0 8 10 10.5t32 2.5q33 0 51 1.5t45 11.5l14 20q-5 0 -34 -4t-36 -4q-17 0 -26.5 4.5t-9.5 15.5q0 20 30 20l30 -2q39 0 78 18q0 6 14 20
q0 56 -8 116.5t-18 95.5q-4 8 -4 12q0 16 18 16q21 0 24 -14q11 -23 21 -77q7 -37 15 -97z" />
    <glyph glyph-name="brokenbar" unicode="&#xa6;" 
 />
    <glyph glyph-name="section" unicode="&#xa7;" 
 />
    <glyph glyph-name="dieresis" unicode="&#xa8;" horiz-adv-x="248" 
d="M16 420q10 18 23 27t25 9h10q10 -3 10 -16q0 -15 -22 -40q-23 -20 -36 -20q-18 0 -18 18q0 10 8 22zM108 420q21 42 46 42q8 -3 14 -10t6 -16l-4 -16q-12 -20 -25.5 -30t-26.5 -10q-18 0 -18 18q0 10 8 22z" />
    <glyph glyph-name="copyright" unicode="&#xa9;" horiz-adv-x="712" 
d="M294 574h8q109 0 199 -80q99 -88 99 -216v-10q0 -135 -99 -213q-85 -67 -201 -67q-110 0 -195 69q-97 79 -97 205l-2 12q0 132 84 216t204 84zM294 534q-103 0 -172.5 -68.5t-69.5 -179.5l2 -24q0 -115 87 -180q73 -54 171 -54q91 0 163 65q77 70 77 175v12
q0 106 -72 180t-186 74zM414 200l20 -6q-9 -34 -49.5 -59t-88.5 -25q-34 0 -66.5 16t-55.5 48q-34 46 -34 106q0 35 12 66.5t36 53.5q23 24 56.5 35t67.5 11q39 0 74 -9.5t40 -16.5v-86h-26v12q0 42 -28 64q-23 18 -52 18q-51 0 -85.5 -34.5t-34.5 -99.5q0 -16 4.5 -36.5
t9.5 -41.5q9 -38 36 -61t60 -23q27 0 54.5 17t49.5 51z" />
    <glyph glyph-name="ordfeminine" unicode="&#xaa;" horiz-adv-x="278" 
d="M64 394h142v-20h-142v20zM172 560q-2 2 -4.5 2.5l-7.5 1.5q-13 0 -26 -12.5t-21 -26.5t-13 -25q-10 -20 -10 -30q0 -8 8 -8q24 0 74 98zM144 468q-10 -19 -25 -30.5t-27 -11.5q-11 0 -19.5 10.5t-8.5 27.5q0 8 3.5 20.5t10.5 29.5q16 41 45.5 62.5t54.5 21.5q13 0 21 -9
q5 -5 5 -11q0 -9 -6 -18q8 0 8 -10q0 -5 -4 -13q-18 -36 -21.5 -46.5l-4.5 -13.5q-4 -10 -4 -13q0 -8 10 -17t10 -19t-14 -10q-13 0 -23 9q-13 12 -13 31z" />
    <glyph glyph-name="guillemotleft" unicode="&#xab;" horiz-adv-x="278" 
d="M154 194q0 -11 4 -20l16 -34v-8q0 -10 -11 -18q-6 -4 -13 -4q-13 0 -22 18q-12 19 -17 27q-9 17 -9 29q0 32 52 78q8 4 20 4q9 0 17.5 -4.5t8.5 -11.5l-4 -14q-18 -16 -26 -24q-16 -15 -16 -18zM56 194q0 -13 6 -27t12 -27v-8q0 -22 -22 -22q-12 0 -24 18q-8 13 -16 28.5
t-8 27.5q0 16 12 35t40 43q4 4 18 4q9 0 17.5 -4.5t8.5 -11.5q0 -8 -6 -14.5t-22 -22.5t-16 -19z" />
    <glyph glyph-name="logicalnot" unicode="&#xac;" 
 />
    <glyph glyph-name="minus" unicode="&#xad;" horiz-adv-x="258" 
d="M-8 168v48h220v-48h-220z" />
    <glyph glyph-name="registered" unicode="&#xae;" horiz-adv-x="712" 
d="M302 548q-98 0 -172 -69q-80 -74 -80 -185l-2 -10q0 -106 80 -179q75 -69 168 -69q99 0 171 60q83 69 83 186v12q0 120 -85 192q-73 62 -163 62zM302 588q129 -11 208 -84q86 -79 86 -210v-16q0 -125 -88.5 -204.5t-217.5 -79.5q-123 0 -202.5 85.5t-79.5 202.5l2 12
q0 121 78 205q83 89 214 89zM250 308l34 -6q37 0 61.5 22.5t24.5 49.5q0 42 -28 64q-23 18 -56 18q-15 0 -25.5 -4.5t-10.5 -9.5v-134zM156 134v14q28 6 34 10q14 9 14 36v206q0 28 -4 38q-7 18 -28 18h-10v12h134q61 0 94 -26q28 -22 28 -56q0 -35 -27.5 -63.5t-68.5 -28.5
q28 -8 82 -105q24 -43 48 -43l4 2v-14h-38q-39 0 -75 70t-67 70h-26v-86q0 -22 8 -31t32 -9v-14h-134z" />
    <glyph glyph-name="macron" unicode="&#xaf;" 
 />
    <glyph glyph-name="degree" unicode="&#xb0;" horiz-adv-x="208" 
d="M46 414q12 19 27.5 29.5t28.5 10.5q18 0 24 -6q16 -3 16 -28q0 -10 -5.5 -22.5t-16.5 -23.5q-39 -42 -68 -42q-28 0 -28 30q0 27 22 52zM64 400q-14 -21 -14 -28q0 -12 10 -12q6 0 15 6t17 14q18 24 18 34q0 3 -3 5q-2 0 -3 1t-3.5 1.5t-6.5 0.5q-14 0 -30 -22z" />
    <glyph glyph-name="plusminus" unicode="&#xb1;" 
 />
    <glyph glyph-name="twosuperior" unicode="&#xb2;" horiz-adv-x="860" 
 />
    <glyph glyph-name="threesuperior" unicode="&#xb3;" horiz-adv-x="860" 
 />
    <glyph glyph-name="acute" unicode="&#xb4;" horiz-adv-x="178" 
d="M78 442q12 8 22 8q16 0 16 -14l-4 -16q-15 -19 -31 -39t-30.5 -34.5t-26.5 -14.5q-14 0 -14 14q0 6 8 22q10 16 30 38t30 36z" />
    <glyph glyph-name="mu" unicode="&#xb5;" horiz-adv-x="860" 
 />
    <glyph glyph-name="paragraph" unicode="&#xb6;" 
 />
    <glyph glyph-name="periodcentered" unicode="&#xb7;" horiz-adv-x="298" 
d="M36 374q25 54 56 82t60 28q14 0 18 -2q24 -6 38 -31.5t14 -64.5t-12 -84q-16 -64 -58 -104q-38 -36 -78 -36q-30 0 -50 22t-20 64q0 46 32 126z" />
    <glyph glyph-name="periodcentered" unicode="&#x2219;" horiz-adv-x="298" 
d="M36 374q25 54 56 82t60 28q14 0 18 -2q24 -6 38 -31.5t14 -64.5t-12 -84q-16 -64 -58 -104q-38 -36 -78 -36q-30 0 -50 22t-20 64q0 46 32 126z" />
    <glyph glyph-name="cedilla" unicode="&#xb8;" horiz-adv-x="168" 
d="M8 -164q0 6 6 11q24 19 26 21q12 21 12 32q0 12 -19 17t-19 11q0 8 19 29q38 41 41 45h20q-28 -28 -28 -48q20 -9 20 -30q0 -27 -27.5 -59.5t-44.5 -32.5z" />
    <glyph glyph-name="onesuperior" unicode="&#xb9;" horiz-adv-x="860" 
 />
    <glyph glyph-name="ordmasculine" unicode="&#xba;" horiz-adv-x="268" 
d="M52 394h140v-26h-140v26zM150 560q-15 0 -35 -23q-5 -6 -23 -29q-14 -18 -14 -34q0 -12 14 -12q12 0 36 36t24 54zM78 534q17 31 40 45.5t42 14.5h12q6 -1 10 -8.5t4 -17.5q0 -26 -20 -66q-22 -36 -47 -56t-45 -20q-26 0 -26 30t30 78z" />
    <glyph glyph-name="guillemotright" unicode="&#xbb;" horiz-adv-x="268" 
d="M140 180q0 16 -2.5 25t-9.5 23q-6 6 -6 12q0 18 22 18q9 0 20 -6t18.5 -17.5t10.5 -23.5t3 -23q0 -13 -4.5 -21.5t-17.5 -26.5q-29 -36 -58 -36q-6 0 -10 5t-4 13l-2 4q0 10 12 19q28 21 28 35zM42 180q0 14 -4 26t-9 21t-5 13q0 18 22 18q9 0 19 -5.5t17 -17.5t9.5 -23
t2.5 -24q0 -14 -4 -23t-16 -24.5t-29 -26t-27 -10.5q-16 0 -16 18l-2 4q0 11 21 25t21 29z" />
    <glyph glyph-name="onequarter" unicode="&#xbc;" 
 />
    <glyph glyph-name="onehalf" unicode="&#xbd;" 
 />
    <glyph glyph-name="threequarters" unicode="&#xbe;" 
 />
    <glyph glyph-name="questiondown" unicode="&#xbf;" horiz-adv-x="456" 
d="M312 368q4 14 13 21t17 7l12 -2q5 -3 9.5 -10.5t4.5 -17.5q0 -16 -7 -31t-18 -24t-21 -9q-20 0 -20 26q0 4 5 21q2 6 5 19zM108 -218q-50 0 -78 22t-28 56q0 81 120 162q55 38 86 68q44 43 58 84q6 18 18 29t24 11q18 0 18 -26q0 -58 -115 -153q-42 -34 -97 -73
q-78 -54 -78 -100q0 -16 13 -28t33 -12q32 0 66 18q39 21 86 68q21 24 36 24q12 0 12 -16q0 -8 -1.5 -13.5t-6.5 -14.5q-30 -43 -79.5 -74.5t-86.5 -31.5z" />
    <glyph glyph-name="Agrave" unicode="&#xc0;" horiz-adv-x="584" 
d="M106 208q-19 -9 -38 -15.5t-28 -6.5q-14 0 -14 14q0 22 52 44l82 30q58 89 139 184q77 90 127 130q22 16 36 16q22 0 22 -28q0 -18 -4 -28q-14 -33 -35 -101.5t-33 -112.5l24 4q34 0 34 -20q0 -11 -17 -21.5t-45 -10.5l-10 2q-29 -111 -39 -202.5t-27 -91.5q-14 0 -21 17
t-7 43q0 49 23 149q9 39 19 79l-166 -46q-51 -79 -95 -160.5t-71 -81.5q-14 0 -14 14q0 26 58 122zM226 294l134 34q5 29 42 135q16 46 16 59q-30 -18 -100 -104q-61 -75 -92 -124z" />
    <glyph glyph-name="Agrave" unicode="&#x410;" horiz-adv-x="584" 
d="M106 208q-19 -9 -38 -15.5t-28 -6.5q-14 0 -14 14q0 22 52 44l82 30q58 89 139 184q77 90 127 130q22 16 36 16q22 0 22 -28q0 -18 -4 -28q-14 -33 -35 -101.5t-33 -112.5l24 4q34 0 34 -20q0 -11 -17 -21.5t-45 -10.5l-10 2q-29 -111 -39 -202.5t-27 -91.5q-14 0 -21 17
t-7 43q0 49 23 149q9 39 19 79l-166 -46q-51 -79 -95 -160.5t-71 -81.5q-14 0 -14 14q0 26 58 122zM226 294l134 34q5 29 42 135q16 46 16 59q-30 -18 -100 -104q-61 -75 -92 -124z" />
    <glyph glyph-name="Aacute" unicode="&#xc1;" horiz-adv-x="614" 
d="M314 532q0 -14 -50 -86q-34 -48 -56 -88q81 0 127.5 -35.5t46.5 -100.5q0 -24 -6 -54q-17 -66 -88.5 -118t-147.5 -52q-51 0 -90 24q0 -15 -5.5 -27.5t-16.5 -12.5h-4q-10 1 -16 11t-6 23q0 18 11 50q5 15 23 62q34 80 116 225q79 138 106 169q-18 0 -18 18q0 21 24 30
q56 17 101 26q59 12 107 12q34 0 51 -3.5t17 -18.5l-2 -10q-7 -20 -73 -20.5t-151 -23.5zM182 322l-37 -74q-44 -89 -81 -186q0 -7 24.5 -15.5t51.5 -8.5q52 0 88 24q43 29 72.5 80.5t29.5 93.5q0 28 -15.5 47t-36.5 26t-44 7l-34 -2q-13 0 -18 8z" />
    <glyph glyph-name="Aacute" unicode="&#x411;" horiz-adv-x="614" 
d="M314 532q0 -14 -50 -86q-34 -48 -56 -88q81 0 127.5 -35.5t46.5 -100.5q0 -24 -6 -54q-17 -66 -88.5 -118t-147.5 -52q-51 0 -90 24q0 -15 -5.5 -27.5t-16.5 -12.5h-4q-10 1 -16 11t-6 23q0 18 11 50q5 15 23 62q34 80 116 225q79 138 106 169q-18 0 -18 18q0 21 24 30
q56 17 101 26q59 12 107 12q34 0 51 -3.5t17 -18.5l-2 -10q-7 -20 -73 -20.5t-151 -23.5zM182 322l-37 -74q-44 -89 -81 -186q0 -7 24.5 -15.5t51.5 -8.5q52 0 88 24q43 29 72.5 80.5t29.5 93.5q0 28 -15.5 47t-36.5 26t-44 7l-34 -2q-13 0 -18 8z" />
    <glyph glyph-name="Acircumflex" unicode="&#xc2;" horiz-adv-x="574" 
d="M216 374q52 0 129 47q83 51 83 95v12q-4 14 -19.5 21t-34.5 7q-35 0 -64 -16l4 -8q0 -8 -45 -73q-33 -47 -53 -85zM182 322l-37 -74q-44 -89 -81 -186q0 -7 24.5 -15.5t51.5 -8.5q52 0 88 24q43 29 72.5 80.5t29.5 93.5q0 28 -15.5 47t-36.5 26t-44 7l-34 -2q-13 0 -18 8
zM264 528q-14 -3 -63 -24q-23 -10 -31 -10q-11 0 -14 8l-4 8q0 20 42 40t128 44l40 4q47 0 79.5 -24.5t32.5 -61.5q0 -21 -10.5 -44t-35.5 -48q-18 -18 -67.5 -43.5t-84.5 -36.5q50 -10 77 -46t27 -84q0 -10 -0.5 -20.5t-3.5 -21.5q-15 -69 -84.5 -120.5t-147.5 -51.5
q-48 0 -94 26q0 -15 -5.5 -27.5t-16.5 -12.5h-4q-10 1 -16 11t-6 23q0 18 11 50q5 15 23 62q35 83 117 225.5t111 174.5z" />
    <glyph glyph-name="Acircumflex" unicode="&#x412;" horiz-adv-x="574" 
d="M216 374q52 0 129 47q83 51 83 95v12q-4 14 -19.5 21t-34.5 7q-35 0 -64 -16l4 -8q0 -8 -45 -73q-33 -47 -53 -85zM182 322l-37 -74q-44 -89 -81 -186q0 -7 24.5 -15.5t51.5 -8.5q52 0 88 24q43 29 72.5 80.5t29.5 93.5q0 28 -15.5 47t-36.5 26t-44 7l-34 -2q-13 0 -18 8
zM264 528q-14 -3 -63 -24q-23 -10 -31 -10q-11 0 -14 8l-4 8q0 20 42 40t128 44l40 4q47 0 79.5 -24.5t32.5 -61.5q0 -21 -10.5 -44t-35.5 -48q-18 -18 -67.5 -43.5t-84.5 -36.5q50 -10 77 -46t27 -84q0 -10 -0.5 -20.5t-3.5 -21.5q-15 -69 -84.5 -120.5t-147.5 -51.5
q-48 0 -94 26q0 -15 -5.5 -27.5t-16.5 -12.5h-4q-10 1 -16 11t-6 23q0 18 11 50q5 15 23 62q35 83 117 225.5t111 174.5z" />
    <glyph glyph-name="Atilde" unicode="&#xc3;" horiz-adv-x="594" 
d="M244 522q-18 0 -18 18q0 6 7 15t17 13q48 16 105 28t101 12q31 0 49.5 -4.5t18.5 -19.5l-2 -10q-5 -18 -30 -18h-36q-28 0 -61.5 -4.5t-84.5 -17.5q-32 -42 -83.5 -120.5t-64.5 -105.5q-20 -35 -49 -98q-35 -77 -49 -128q-9 -39 -11 -43q-8 -17 -29 -17q-22 0 -22 24
q0 20 16 62q11 36 64 134q48 89 96 170z" />
    <glyph glyph-name="Atilde" unicode="&#x413;" horiz-adv-x="594" 
d="M244 522q-18 0 -18 18q0 6 7 15t17 13q48 16 105 28t101 12q31 0 49.5 -4.5t18.5 -19.5l-2 -10q-5 -18 -30 -18h-36q-28 0 -61.5 -4.5t-84.5 -17.5q-32 -42 -83.5 -120.5t-64.5 -105.5q-20 -35 -49 -98q-35 -77 -49 -128q-9 -39 -11 -43q-8 -17 -29 -17q-22 0 -22 24
q0 20 16 62q11 36 64 134q48 89 96 170z" />
    <glyph glyph-name="Adieresis" unicode="&#xc4;" horiz-adv-x="732" 
d="M94 8q-47 -64 -76 -64q-12 0 -12 18q0 8 8.5 24.5t19.5 35.5q0 13 28 20.5t68 7.5h26q49 74 126 179q94 129 162 215q85 108 114 130q19 16 36 16q24 0 24 -28q0 -13 -6 -28q-10 -23 -44 -131q-12 -39 -62 -203q-42 -138 -44 -146l56 2q37 0 58.5 -8t27.5 -22
q-8 -46 -25.5 -73t-30.5 -27q-14 0 -14 26q0 17 16 62zM214 52l196 4q6 30 42 139q32 97 65 199t33 114q-21 -12 -100 -118q-62 -83 -144 -202q-58 -83 -92 -136z" />
    <glyph glyph-name="Adieresis" unicode="&#x414;" horiz-adv-x="732" 
d="M94 8q-47 -64 -76 -64q-12 0 -12 18q0 8 8.5 24.5t19.5 35.5q0 13 28 20.5t68 7.5h26q49 74 126 179q94 129 162 215q85 108 114 130q19 16 36 16q24 0 24 -28q0 -13 -6 -28q-10 -23 -44 -131q-12 -39 -62 -203q-42 -138 -44 -146l56 2q37 0 58.5 -8t27.5 -22
q-8 -46 -25.5 -73t-30.5 -27q-14 0 -14 26q0 17 16 62zM214 52l196 4q6 30 42 139q32 97 65 199t33 114q-21 -12 -100 -118q-62 -83 -144 -202q-58 -83 -92 -136z" />
    <glyph glyph-name="Aring" unicode="&#xc5;" horiz-adv-x="652" 
d="M306 540q12 0 12 -8q0 -6 -50 -76q-36 -50 -62 -96l146 20q36 0 36 -20q0 -26 -76 -26q-38 0 -76 -7q-15 -3 -56 -13q-27 -52 -53 -104q-40 -83 -53 -128q27 14 85.5 30t86.5 16q25 0 40.5 -4t15.5 -18q0 -8 -3 -14t-77 -14q-50 -5 -96 -30q-28 -12 -50.5 -19t-37.5 -7
q-30 0 -30 24q0 4 2.5 11.5l3.5 10.5q32 86 75 174q47 97 91 166q4 7 49 73q22 33 31 53q-5 0 -12.5 5.5t-7.5 12.5q0 9 12 18q16 13 50 19t96 12.5t102 6.5h24q20 -2 22 -8l2 -12q0 -21 -42 -26q-18 -2 -40 -2q-27 0 -86.5 -7t-73.5 -13z" />
    <glyph glyph-name="Aring" unicode="&#x415;" horiz-adv-x="652" 
d="M306 540q12 0 12 -8q0 -6 -50 -76q-36 -50 -62 -96l146 20q36 0 36 -20q0 -26 -76 -26q-38 0 -76 -7q-15 -3 -56 -13q-27 -52 -53 -104q-40 -83 -53 -128q27 14 85.5 30t86.5 16q25 0 40.5 -4t15.5 -18q0 -8 -3 -14t-77 -14q-50 -5 -96 -30q-28 -12 -50.5 -19t-37.5 -7
q-30 0 -30 24q0 4 2.5 11.5l3.5 10.5q32 86 75 174q47 97 91 166q4 7 49 73q22 33 31 53q-5 0 -12.5 5.5t-7.5 12.5q0 9 12 18q16 13 50 19t96 12.5t102 6.5h24q20 -2 22 -8l2 -12q0 -21 -42 -26q-18 -2 -40 -2q-27 0 -86.5 -7t-73.5 -13z" />
    <glyph glyph-name="AE" unicode="&#xc6;" horiz-adv-x="1028" 
d="M316 50q0 33 29 98q21 47 71 134h-44q-15 -38 -34.5 -75t-39.5 -67q-52 -82 -106 -124q-49 -38 -92 -38q-42 0 -68 37t-26 97q0 46 18 104t54 114q4 7 8 9.5t8 4.5q6 0 6 -12q0 -15 -6 -30q-58 -110 -58 -182q0 -39 15.5 -61.5t42.5 -22.5q34 0 76 33q46 36 94 107
q11 16 25.5 43.5t30.5 62.5q-24 0 -38 7.5t-14 16.5q0 10 20 18t52 8q20 48 34 99.5t14 84.5v24q-6 20 -26 20q-25 0 -52 -42q-31 -48 -42 -120q0 -18 -9.5 -28t-20.5 -10q-9 0 -16.5 8.5t-7.5 21.5q0 2 2 8t2 10q20 74 56 124q41 58 86 58q16 0 22 -2q25 -4 36.5 -27.5
t11.5 -60.5q0 -70 -36 -168h52q24 41 47 77q17 28 43 67q21 38 46.5 69t39.5 31q22 0 22 -18q0 -7 -5 -19t-17 -29q-48 -65 -120 -178h48q58 93 132 164q83 80 138 80q26 0 44 -18q20 -23 20 -54q0 -39 -30 -90q-26 -44 -70 -90q-16 -16 -32 -16q-9 0 -15.5 7.5t-6.5 16.5
q0 15 20 32q49 38 77 80q25 38 25 66t-26 28h-8q-45 -14 -108 -79q-52 -53 -102 -127q20 0 33 -9t13 -19q0 -8 -16 -16t-42 -8l-24 2l-14 -30q-54 -108 -54 -168q0 -36 16 -56t42 -20q40 0 89 39q54 43 99 117q7 10 18 17t16 7q4 -4 4 -6q0 -4 -0.5 -8t-3.5 -10
q-52 -93 -122 -147q-64 -49 -122 -49q-40 0 -65 27.5t-25 78.5q0 38 14.5 85t47.5 105q0 6 6 18h-46q-28 -47 -53 -97t-37 -83q-6 -15 -18 -74q-5 -24 -28 -24q-24 0 -24 24z" />
    <glyph glyph-name="AE" unicode="&#x416;" horiz-adv-x="1028" 
d="M316 50q0 33 29 98q21 47 71 134h-44q-15 -38 -34.5 -75t-39.5 -67q-52 -82 -106 -124q-49 -38 -92 -38q-42 0 -68 37t-26 97q0 46 18 104t54 114q4 7 8 9.5t8 4.5q6 0 6 -12q0 -15 -6 -30q-58 -110 -58 -182q0 -39 15.5 -61.5t42.5 -22.5q34 0 76 33q46 36 94 107
q11 16 25.5 43.5t30.5 62.5q-24 0 -38 7.5t-14 16.5q0 10 20 18t52 8q20 48 34 99.5t14 84.5v24q-6 20 -26 20q-25 0 -52 -42q-31 -48 -42 -120q0 -18 -9.5 -28t-20.5 -10q-9 0 -16.5 8.5t-7.5 21.5q0 2 2 8t2 10q20 74 56 124q41 58 86 58q16 0 22 -2q25 -4 36.5 -27.5
t11.5 -60.5q0 -70 -36 -168h52q24 41 47 77q17 28 43 67q21 38 46.5 69t39.5 31q22 0 22 -18q0 -7 -5 -19t-17 -29q-48 -65 -120 -178h48q58 93 132 164q83 80 138 80q26 0 44 -18q20 -23 20 -54q0 -39 -30 -90q-26 -44 -70 -90q-16 -16 -32 -16q-9 0 -15.5 7.5t-6.5 16.5
q0 15 20 32q49 38 77 80q25 38 25 66t-26 28h-8q-45 -14 -108 -79q-52 -53 -102 -127q20 0 33 -9t13 -19q0 -8 -16 -16t-42 -8l-24 2l-14 -30q-54 -108 -54 -168q0 -36 16 -56t42 -20q40 0 89 39q54 43 99 117q7 10 18 17t16 7q4 -4 4 -6q0 -4 -0.5 -8t-3.5 -10
q-52 -93 -122 -147q-64 -49 -122 -49q-40 0 -65 27.5t-25 78.5q0 38 14.5 85t47.5 105q0 6 6 18h-46q-28 -47 -53 -97t-37 -83q-6 -15 -18 -74q-5 -24 -28 -24q-24 0 -24 24z" />
    <glyph glyph-name="Ccedilla" unicode="&#xc7;" horiz-adv-x="604" 
d="M358 362q52 0 83 -22.5t31 -63.5q0 -33 -22 -80q-51 -106 -131 -166t-169 -60q-32 0 -62 6q-25 14 -52.5 94t-27.5 130q0 29 10 36h10q23 0 41 -110t95 -110l14 2q97 28 163.5 101.5t66.5 146.5v24q-13 20 -31 29t-37 9t-43 -6t-47 -12q-30 9 -30 24q0 16 46 42l80 42
q50 29 76 58q22 25 22 44q0 12 -11 20t-29 8q-19 0 -39.5 -6.5t-40.5 -21.5q-30 -8 -101 -55q-35 -23 -55 -29q-18 0 -18 14q0 32 89 86q95 58 169 58q26 0 46 -7.5t34 -24.5q14 -21 14 -40q0 -34 -38 -75.5t-106 -84.5z" />
    <glyph glyph-name="Ccedilla" unicode="&#x417;" horiz-adv-x="604" 
d="M358 362q52 0 83 -22.5t31 -63.5q0 -33 -22 -80q-51 -106 -131 -166t-169 -60q-32 0 -62 6q-25 14 -52.5 94t-27.5 130q0 29 10 36h10q23 0 41 -110t95 -110l14 2q97 28 163.5 101.5t66.5 146.5v24q-13 20 -31 29t-37 9t-43 -6t-47 -12q-30 9 -30 24q0 16 46 42l80 42
q50 29 76 58q22 25 22 44q0 12 -11 20t-29 8q-19 0 -39.5 -6.5t-40.5 -21.5q-30 -8 -101 -55q-35 -23 -55 -29q-18 0 -18 14q0 32 89 86q95 58 169 58q26 0 46 -7.5t34 -24.5q14 -21 14 -40q0 -34 -38 -75.5t-106 -84.5z" />
    <glyph glyph-name="Egrave" unicode="&#xc8;" horiz-adv-x="662" 
d="M394 368q-93 -125 -156.5 -206t-103.5 -120q-46 -46 -82 -46q-23 0 -36.5 19.5t-13.5 52.5q0 73 59 190q50 98 123 197q66 89 104 119q10 9 20.5 13.5t15.5 4.5q14 0 14 -16q0 -18 -10 -28q-35 -35 -82 -92q-61 -74 -92 -128q-100 -167 -100 -250q0 -22 14 -22
q24 0 101 94q72 89 142 177t99 125q66 83 92 108q15 18 30 18q20 0 20 -24q0 -16 -12 -26q-51 -57 -135.5 -239t-84.5 -239l2 -8v-16q0 -26 -20 -26q-13 0 -23.5 13t-10.5 35q0 54 62 189q25 54 64 131z" />
    <glyph glyph-name="Egrave" unicode="&#x418;" horiz-adv-x="662" 
d="M394 368q-93 -125 -156.5 -206t-103.5 -120q-46 -46 -82 -46q-23 0 -36.5 19.5t-13.5 52.5q0 73 59 190q50 98 123 197q66 89 104 119q10 9 20.5 13.5t15.5 4.5q14 0 14 -16q0 -18 -10 -28q-35 -35 -82 -92q-61 -74 -92 -128q-100 -167 -100 -250q0 -22 14 -22
q24 0 101 94q72 89 142 177t99 125q66 83 92 108q15 18 30 18q20 0 20 -24q0 -16 -12 -26q-51 -57 -135.5 -239t-84.5 -239l2 -8v-16q0 -26 -20 -26q-13 0 -23.5 13t-10.5 35q0 54 62 189q25 54 64 131z" />
    <glyph glyph-name="Eacute" unicode="&#xc9;" horiz-adv-x="662" 
d="M394 368q-93 -125 -156.5 -206t-103.5 -120q-46 -46 -82 -46q-23 0 -36.5 19.5t-13.5 52.5q0 73 59 190q50 98 123 197q66 89 104 119q10 9 20.5 13.5t15.5 4.5q14 0 14 -16q0 -18 -10 -28q-35 -35 -82 -92q-61 -74 -92 -128q-100 -167 -100 -250q0 -22 14 -22
q24 0 101 94q72 89 142 177t99 125q66 83 92 108q15 18 30 18q20 0 20 -24q0 -16 -12 -26q-51 -57 -135.5 -239t-84.5 -239l2 -8v-16q0 -26 -20 -26q-13 0 -23.5 13t-10.5 35q0 54 62 189q25 54 64 131zM436 634l2 -2q7 0 35 13q15 7 21 7q15 0 18 -18v-4q0 -12 -29.5 -29
t-46.5 -17l-8 4q-24 11 -36 31t-12 39q0 4 1 8t3 8l10 2q12 0 26 -20.5t16 -21.5z" />
    <glyph glyph-name="Eacute" unicode="&#x419;" horiz-adv-x="662" 
d="M394 368q-93 -125 -156.5 -206t-103.5 -120q-46 -46 -82 -46q-23 0 -36.5 19.5t-13.5 52.5q0 73 59 190q50 98 123 197q66 89 104 119q10 9 20.5 13.5t15.5 4.5q14 0 14 -16q0 -18 -10 -28q-35 -35 -82 -92q-61 -74 -92 -128q-100 -167 -100 -250q0 -22 14 -22
q24 0 101 94q72 89 142 177t99 125q66 83 92 108q15 18 30 18q20 0 20 -24q0 -16 -12 -26q-51 -57 -135.5 -239t-84.5 -239l2 -8v-16q0 -26 -20 -26q-13 0 -23.5 13t-10.5 35q0 54 62 189q25 54 64 131zM436 634l2 -2q7 0 35 13q15 7 21 7q15 0 18 -18v-4q0 -12 -29.5 -29
t-46.5 -17l-8 4q-24 11 -36 31t-12 39q0 4 1 8t3 8l10 2q12 0 26 -20.5t16 -21.5z" />
    <glyph glyph-name="Ecircumflex" unicode="&#xca;" horiz-adv-x="652" 
d="M228 388q-81 -140 -100 -173q-80 -144 -80 -173q0 -20 -9 -32t-19 -12q-18 0 -18 30q0 45 32 117q21 47 68 129q66 101 96 148q53 85 76 152q15 42 34 42q14 0 14 -24v-18q-5 -20 -33 -75q-24 -46 -47 -91q66 41 132 83q79 47 134 63l14 2q16 0 16 -16q0 -9 -6.5 -19
t-17.5 -13q-56 -19 -94 -39q-61 -32 -146 -95q-10 -35 -22 -117t-12 -129q0 -54 16 -54q19 0 57 46q27 34 55 68l6 2q8 0 8 -14q0 -12 -8 -28q-17 -32 -53 -70q-49 -52 -83 -52q-23 0 -38 30q-12 21 -12 66q0 50 13.5 124t26.5 142z" />
    <glyph glyph-name="Ecircumflex" unicode="&#x41a;" horiz-adv-x="652" 
d="M228 388q-81 -140 -100 -173q-80 -144 -80 -173q0 -20 -9 -32t-19 -12q-18 0 -18 30q0 45 32 117q21 47 68 129q66 101 96 148q53 85 76 152q15 42 34 42q14 0 14 -24v-18q-5 -20 -33 -75q-24 -46 -47 -91q66 41 132 83q79 47 134 63l14 2q16 0 16 -16q0 -9 -6.5 -19
t-17.5 -13q-56 -19 -94 -39q-61 -32 -146 -95q-10 -35 -22 -117t-12 -129q0 -54 16 -54q19 0 57 46q27 34 55 68l6 2q8 0 8 -14q0 -12 -8 -28q-17 -32 -53 -70q-49 -52 -83 -52q-23 0 -38 30q-12 21 -12 66q0 50 13.5 124t26.5 142z" />
    <glyph glyph-name="Edieresis" unicode="&#xcb;" horiz-adv-x="584" 
d="M106 208q62 91 168.5 217.5t151.5 162.5q22 16 36 16q22 0 22 -28q0 -18 -4 -28q-13 -31 -42 -125t-40 -135q-29 -111 -39 -202.5t-27 -91.5q-14 0 -21 17t-7 43q0 49 23 149q9 39 18 77t29 98q44 129 44 144q-30 -18 -123 -134q-83 -103 -115 -152q-51 -79 -95 -160.5
t-71 -81.5q-14 0 -14 14q0 26 58 122z" />
    <glyph glyph-name="Edieresis" unicode="&#x41b;" horiz-adv-x="584" 
d="M106 208q62 91 168.5 217.5t151.5 162.5q22 16 36 16q22 0 22 -28q0 -18 -4 -28q-13 -31 -42 -125t-40 -135q-29 -111 -39 -202.5t-27 -91.5q-14 0 -21 17t-7 43q0 49 23 149q9 39 18 77t29 98q44 129 44 144q-30 -18 -123 -134q-83 -103 -115 -152q-51 -79 -95 -160.5
t-71 -81.5q-14 0 -14 14q0 26 58 122z" />
    <glyph glyph-name="Igrave" unicode="&#xcc;" horiz-adv-x="752" 
d="M274 174q28 43 66 97q95 136 114 165q65 94 110 137q37 35 58 35q18 0 18 -20q0 -33 -45 -113q-31 -54 -61 -107q-65 -134 -72 -150q-48 -109 -48 -156v-36q0 -18 -4.5 -28t-15.5 -10h-6q-13 1 -20.5 14t-7.5 34q0 36 17 92q14 45 31 80q45 99 84 172q14 27 76 134
q-38 -37 -103.5 -127t-162.5 -239q-28 -40 -54 -40q-12 0 -20 10t-8 22q0 54 17 108.5t51 119.5q19 35 30 57q18 35 30 63q-29 -23 -89 -118q-51 -82 -107 -184q-46 -84 -78 -150q-11 -23 -22 -45.5t-30 -22.5q-18 0 -18 16q0 19 19 56q14 25 19 34q38 82 94 178
q65 111 126 190q27 36 54.5 72t51.5 60q16 16 40 16q22 0 22 -22l-4 -20q-71 -144 -110 -232q-42 -95 -42 -142z" />
    <glyph glyph-name="Igrave" unicode="&#x41c;" horiz-adv-x="752" 
d="M274 174q28 43 66 97q95 136 114 165q65 94 110 137q37 35 58 35q18 0 18 -20q0 -33 -45 -113q-31 -54 -61 -107q-65 -134 -72 -150q-48 -109 -48 -156v-36q0 -18 -4.5 -28t-15.5 -10h-6q-13 1 -20.5 14t-7.5 34q0 36 17 92q14 45 31 80q45 99 84 172q14 27 76 134
q-38 -37 -103.5 -127t-162.5 -239q-28 -40 -54 -40q-12 0 -20 10t-8 22q0 54 17 108.5t51 119.5q19 35 30 57q18 35 30 63q-29 -23 -89 -118q-51 -82 -107 -184q-46 -84 -78 -150q-11 -23 -22 -45.5t-30 -22.5q-18 0 -18 16q0 19 19 56q14 25 19 34q38 82 94 178
q65 111 126 190q27 36 54.5 72t51.5 60q16 16 40 16q22 0 22 -22l-4 -20q-71 -144 -110 -232q-42 -95 -42 -142z" />
    <glyph glyph-name="Iacute" unicode="&#xcd;" horiz-adv-x="604" 
d="M328 302q-37 -8 -100 -27q-44 -14 -88 -27q-24 -53 -47 -105q-30 -71 -36.5 -114t-32.5 -43q-24 0 -24 28l2 8q0 35 21 89q25 58 51 117q-22 -16 -34 -16t-12 24q0 20 29 32q35 10 45 14q27 51 71 126q73 123 101 192q5 15 13 22.5t15 7.5q8 0 14 -11t6 -19v-6
q-10 -43 -48 -112l-100 -174q3 1 105 26q27 7 75 20q6 10 66 108q43 70 54 98q19 44 44 44q16 0 16 -24q0 -22 -47 -104q-38 -66 -73 -116l32 2q11 0 16.5 -4t5.5 -18q0 -19 -27 -21.5t-53 -4.5q-39 -76 -69 -144q-42 -96 -49.5 -134t-25.5 -38q-9 0 -17.5 13t-8.5 27l2 18
q16 52 49 125q24 53 59 121z" />
    <glyph glyph-name="Iacute" unicode="&#x41d;" horiz-adv-x="604" 
d="M328 302q-37 -8 -100 -27q-44 -14 -88 -27q-24 -53 -47 -105q-30 -71 -36.5 -114t-32.5 -43q-24 0 -24 28l2 8q0 35 21 89q25 58 51 117q-22 -16 -34 -16t-12 24q0 20 29 32q35 10 45 14q27 51 71 126q73 123 101 192q5 15 13 22.5t15 7.5q8 0 14 -11t6 -19v-6
q-10 -43 -48 -112l-100 -174q3 1 105 26q27 7 75 20q6 10 66 108q43 70 54 98q19 44 44 44q16 0 16 -24q0 -22 -47 -104q-38 -66 -73 -116l32 2q11 0 16.5 -4t5.5 -18q0 -19 -27 -21.5t-53 -4.5q-39 -76 -69 -144q-42 -96 -49.5 -134t-25.5 -38q-9 0 -17.5 13t-8.5 27l2 18
q16 52 49 125q24 53 59 121z" />
    <glyph glyph-name="Icircumflex" unicode="&#xce;" horiz-adv-x="554" 
d="M288 540q-17 0 -51 -17t-45 -17q-8 0 -12 8l-2 8q0 22 52.5 44t109.5 22q29 0 51 -6.5t38 -22t24.5 -38.5t8.5 -49q0 -80 -70 -197q-55 -93 -130 -173q-46 -49 -94 -77.5t-86 -28.5q-30 0 -50 21t-24 65v14q0 95 94 237q86 130 186 207zM314 540q8 0 8 -8q0 -12 -34 -48
l-60 -64q-71 -78 -117.5 -171.5t-46.5 -150.5q0 -50 38 -50q62 0 176 147q50 65 82 119q20 40 32 75q16 47 16 83v30q-9 18 -22 28q-18 14 -44 14z" />
    <glyph glyph-name="Icircumflex" unicode="&#x41e;" horiz-adv-x="554" 
d="M288 540q-17 0 -51 -17t-45 -17q-8 0 -12 8l-2 8q0 22 52.5 44t109.5 22q29 0 51 -6.5t38 -22t24.5 -38.5t8.5 -49q0 -80 -70 -197q-55 -93 -130 -173q-46 -49 -94 -77.5t-86 -28.5q-30 0 -50 21t-24 65v14q0 95 94 237q86 130 186 207zM314 540q8 0 8 -8q0 -12 -34 -48
l-60 -64q-71 -78 -117.5 -171.5t-46.5 -150.5q0 -50 38 -50q62 0 176 147q50 65 82 119q20 40 32 75q16 47 16 83v30q-9 18 -22 28q-18 14 -44 14z" />
    <glyph glyph-name="Idieresis" unicode="&#xcf;" horiz-adv-x="722" 
d="M468 546q-100 0 -166 -6q-19 -40 -58 -108q-16 -28 -63 -109q-33 -58 -41 -75q-24 -53 -47 -105q-30 -71 -36.5 -114t-32.5 -43q-24 0 -24 28l2 8q0 35 21 89q25 58 51 117l168 302q-12 0 -46 -9t-46 -9t-12 8l4 12q4 16 34.5 26.5t87.5 15.5l10 26q5 15 13 22.5t15 7.5
q8 0 14 -11t6 -19v-6l-4 -12q30 0 125.5 2t106.5 2q19 -2 39 -4q21 -4 21 -20v-4q-1 -11 -10 -15.5t-20 -4.5q-9 0 -29 3t-29 3q-20 -45 -66 -125.5t-66 -106.5q-64 -128 -87 -182q-28 -66 -34.5 -99t-24.5 -33q-9 0 -17.5 13t-8.5 27l2 18q16 52 49 125q24 53 59 121
q57 96 90 153.5t50 90.5z" />
    <glyph glyph-name="Idieresis" unicode="&#x41f;" horiz-adv-x="722" 
d="M468 546q-100 0 -166 -6q-19 -40 -58 -108q-16 -28 -63 -109q-33 -58 -41 -75q-24 -53 -47 -105q-30 -71 -36.5 -114t-32.5 -43q-24 0 -24 28l2 8q0 35 21 89q25 58 51 117l168 302q-12 0 -46 -9t-46 -9t-12 8l4 12q4 16 34.5 26.5t87.5 15.5l10 26q5 15 13 22.5t15 7.5
q8 0 14 -11t6 -19v-6l-4 -12q30 0 125.5 2t106.5 2q19 -2 39 -4q21 -4 21 -20v-4q-1 -11 -10 -15.5t-20 -4.5q-9 0 -29 3t-29 3q-20 -45 -66 -125.5t-66 -106.5q-64 -128 -87 -182q-28 -66 -34.5 -99t-24.5 -33q-9 0 -17.5 13t-8.5 27l2 18q16 52 49 125q24 53 59 121
q57 96 90 153.5t50 90.5z" />
    <glyph glyph-name="Eth" unicode="&#xd0;" horiz-adv-x="574" 
d="M162 288q20 -4 32 -4q90 0 175 81q75 71 75 117q-3 25 -22.5 37.5t-51.5 12.5q-43 0 -100 -18q-28 -60 -42 -91q-47 -101 -66 -135zM204 468q-25 -12 -32.5 -15t-13.5 -3q-8 0 -16 12q-4 4 -4 10q0 15 28.5 35t63.5 33q3 20 13.5 31t20.5 11q20 0 20 -16v-6q20 10 44 15
t44 5q47 0 75.5 -24t28.5 -68q0 -100 -98 -178q-93 -74 -194 -74q-27 0 -48 6l-86 -214q-3 -16 -13 -26t-19 -10q-7 0 -12.5 8.5t-5.5 21.5l4 20q8 29 26 72q7 17 66 142q-14 14 -14 30q0 18 18 18l22 -2q35 67 51 99q22 44 31 67z" />
    <glyph glyph-name="Eth" unicode="&#x420;" horiz-adv-x="574" 
d="M162 288q20 -4 32 -4q90 0 175 81q75 71 75 117q-3 25 -22.5 37.5t-51.5 12.5q-43 0 -100 -18q-28 -60 -42 -91q-47 -101 -66 -135zM204 468q-25 -12 -32.5 -15t-13.5 -3q-8 0 -16 12q-4 4 -4 10q0 15 28.5 35t63.5 33q3 20 13.5 31t20.5 11q20 0 20 -16v-6q20 10 44 15
t44 5q47 0 75.5 -24t28.5 -68q0 -100 -98 -178q-93 -74 -194 -74q-27 0 -48 6l-86 -214q-3 -16 -13 -26t-19 -10q-7 0 -12.5 8.5t-5.5 21.5l4 20q8 29 26 72q7 17 66 142q-14 14 -14 30q0 18 18 18l22 -2q35 67 51 99q22 44 31 67z" />
    <glyph glyph-name="Ntilde" unicode="&#xd1;" horiz-adv-x="534" 
d="M64 282q48 99 139 198q103 112 169 112q26 0 44 -18q20 -23 20 -52q0 -40 -28.5 -89t-71.5 -93q-9 -7 -17 -11.5t-15 -4.5q-10 0 -18 11q-4 6 -4 13q0 15 20 32q49 38 77 81q25 38 25 65q0 28 -24 28h-10q-58 -17 -150 -128q-79 -95 -110 -158q-54 -105 -54 -168
q0 -35 15.5 -54.5t42.5 -19.5q40 0 89 38q54 42 99 116q19 26 34 26q4 -6 4 -8q0 -4 -0.5 -8t-3.5 -10q-52 -94 -121 -147q-64 -49 -121 -49q-42 0 -67 27t-25 79q0 38 15 85.5t47 106.5z" />
    <glyph glyph-name="Ntilde" unicode="&#x421;" horiz-adv-x="534" 
d="M64 282q48 99 139 198q103 112 169 112q26 0 44 -18q20 -23 20 -52q0 -40 -28.5 -89t-71.5 -93q-9 -7 -17 -11.5t-15 -4.5q-10 0 -18 11q-4 6 -4 13q0 15 20 32q49 38 77 81q25 38 25 65q0 28 -24 28h-10q-58 -17 -150 -128q-79 -95 -110 -158q-54 -105 -54 -168
q0 -35 15.5 -54.5t42.5 -19.5q40 0 89 38q54 42 99 116q19 26 34 26q4 -6 4 -8q0 -4 -0.5 -8t-3.5 -10q-52 -94 -121 -147q-64 -49 -121 -49q-42 0 -67 27t-25 79q0 38 15 85.5t47 106.5z" />
    <glyph glyph-name="Ograve" unicode="&#xd2;" horiz-adv-x="624" 
d="M256 534q-50 0 -94 -12l-88 -28q-11 0 -18 14l-4 6q0 16 27.5 29.5t60.5 16.5q98 26 215 39q84 9 153 9q22 0 33 -7.5t11 -16.5t-11 -16.5t-27 -7.5q-99 -9 -124.5 -10.5t-81.5 -1.5l2 -10q0 -12 -30 -56q-16 -24 -24 -40l-110 -202q-70 -134 -90 -212q-9 -36 -30 -36
q-7 0 -13 6q-13 12 -13 34l2 16q11 44 65 146q24 45 105 188q62 110 84 152z" />
    <glyph glyph-name="Ograve" unicode="&#x422;" horiz-adv-x="624" 
d="M256 534q-50 0 -94 -12l-88 -28q-11 0 -18 14l-4 6q0 16 27.5 29.5t60.5 16.5q98 26 215 39q84 9 153 9q22 0 33 -7.5t11 -16.5t-11 -16.5t-27 -7.5q-99 -9 -124.5 -10.5t-81.5 -1.5l2 -10q0 -12 -30 -56q-16 -24 -24 -40l-110 -202q-70 -134 -90 -212q-9 -36 -30 -36
q-7 0 -13 6q-13 12 -13 34l2 16q11 44 65 146q24 45 105 188q62 110 84 152z" />
    <glyph glyph-name="Oacute" unicode="&#xd3;" horiz-adv-x="652" 
d="M258 116q-24 -50 -75 -82t-105 -32q-11 0 -25 3.5t-25 7t-18.5 10t-7.5 13.5q0 22 44 22q12 -2 17.5 -3t16.5 -1q38 0 70 18q38 21 58 62q26 50 53 96q24 41 57 92q-31 -31 -64 -61q-39 -36 -64 -53q-15 -9 -30.5 -15.5t-29.5 -6.5q-18 0 -29 12t-11 40l2 24
q0 64 73.5 168.5t146.5 149.5q12 6 22 6q13 0 21 -9q5 -5 5 -11q0 -7 -7 -16t-21 -16q-81 -49 -144 -155q-52 -87 -52 -127l2 -4q5 -10 12 -10q40 0 161 130q104 111 181 220q13 20 28 20q9 0 15.5 -8.5t6.5 -19.5q0 -8 -2.5 -16t-7.5 -16q-65 -75 -144 -201
q-72 -115 -130 -231z" />
    <glyph glyph-name="Oacute" unicode="&#x423;" horiz-adv-x="652" 
d="M258 116q-24 -50 -75 -82t-105 -32q-11 0 -25 3.5t-25 7t-18.5 10t-7.5 13.5q0 22 44 22q12 -2 17.5 -3t16.5 -1q38 0 70 18q38 21 58 62q26 50 53 96q24 41 57 92q-31 -31 -64 -61q-39 -36 -64 -53q-15 -9 -30.5 -15.5t-29.5 -6.5q-18 0 -29 12t-11 40l2 24
q0 64 73.5 168.5t146.5 149.5q12 6 22 6q13 0 21 -9q5 -5 5 -11q0 -7 -7 -16t-21 -16q-81 -49 -144 -155q-52 -87 -52 -127l2 -4q5 -10 12 -10q40 0 161 130q104 111 181 220q13 20 28 20q9 0 15.5 -8.5t6.5 -19.5q0 -8 -2.5 -16t-7.5 -16q-65 -75 -144 -201
q-72 -115 -130 -231z" />
    <glyph glyph-name="Ocircumflex" unicode="&#xd4;" horiz-adv-x="712" 
d="M338 498q-7 1 -17 1.5t-15 0.5q-92 0 -183 -82q-81 -73 -81 -118q3 -25 23.5 -38.5t54.5 -13.5q40 0 112 24q25 50 52 107q39 83 54 119zM350 536q3 20 15 32t23 12q18 0 18 -14v-6q20 10 44 15t44 5q47 0 75.5 -24t28.5 -68q0 -100 -97 -178q-92 -74 -195 -74
q-24 0 -48 6l-86 -214q-3 -16 -13 -26t-19 -10q-7 0 -12.5 8.5t-5.5 21.5l4 20q11 41 41 105q23 48 35 73q-24 -9 -49 -15.5t-41 -6.5q-46 0 -75 26t-29 70q0 100 97 175q91 71 195 71q12 0 25.5 -0.5t24.5 -3.5zM284 288q20 -4 32 -4q90 0 175 81q75 71 75 117
q-3 25 -22.5 37.5t-51.5 12.5q-43 0 -100 -18q-40 -89 -55 -122q-34 -73 -53 -104z" />
    <glyph glyph-name="Ocircumflex" unicode="&#x424;" horiz-adv-x="712" 
d="M338 498q-7 1 -17 1.5t-15 0.5q-92 0 -183 -82q-81 -73 -81 -118q3 -25 23.5 -38.5t54.5 -13.5q40 0 112 24q25 50 52 107q39 83 54 119zM350 536q3 20 15 32t23 12q18 0 18 -14v-6q20 10 44 15t44 5q47 0 75.5 -24t28.5 -68q0 -100 -97 -178q-92 -74 -195 -74
q-24 0 -48 6l-86 -214q-3 -16 -13 -26t-19 -10q-7 0 -12.5 8.5t-5.5 21.5l4 20q11 41 41 105q23 48 35 73q-24 -9 -49 -15.5t-41 -6.5q-46 0 -75 26t-29 70q0 100 97 175q91 71 195 71q12 0 25.5 -0.5t24.5 -3.5zM284 288q20 -4 32 -4q90 0 175 81q75 71 75 117
q-3 25 -22.5 37.5t-51.5 12.5q-43 0 -100 -18q-40 -89 -55 -122q-34 -73 -53 -104z" />
    <glyph glyph-name="Otilde" unicode="&#xd5;" horiz-adv-x="702" 
d="M284 282q-39 -39 -115.5 -127.5t-104.5 -126.5q-24 -34 -44 -34q-3 0 -7.5 4.5t-4.5 9.5q0 4 2.5 10.5t9 21.5t69.5 88q57 65 115 131q64 73 72 89q0 84 -5.5 143.5t-20.5 88.5l-4 16q0 22 26 22q23 0 26 -18q9 -29 17 -79q12 -94 17 -127q60 60 99 97q74 70 127 103
q9 6 18 6q14 0 14 -20q0 -8 -1 -12q-4 -14 -11 -20q-41 -34 -115 -100q-58 -52 -131 -120l-2 -38q0 -77 14.5 -167.5t33.5 -140.5l2 -10q0 -10 -8 -16t-20 -6q-19 0 -28 18q-11 34 -25 115q-17 100 -17 169z" />
    <glyph glyph-name="Otilde" unicode="&#x425;" horiz-adv-x="702" 
d="M284 282q-39 -39 -115.5 -127.5t-104.5 -126.5q-24 -34 -44 -34q-3 0 -7.5 4.5t-4.5 9.5q0 4 2.5 10.5t9 21.5t69.5 88q57 65 115 131q64 73 72 89q0 84 -5.5 143.5t-20.5 88.5l-4 16q0 22 26 22q23 0 26 -18q9 -29 17 -79q12 -94 17 -127q60 60 99 97q74 70 127 103
q9 6 18 6q14 0 14 -20q0 -8 -1 -12q-4 -14 -11 -20q-41 -34 -115 -100q-58 -52 -131 -120l-2 -38q0 -77 14.5 -167.5t33.5 -140.5l2 -10q0 -10 -8 -16t-20 -6q-19 0 -28 18q-11 34 -25 115q-17 100 -17 169z" />
    <glyph glyph-name="Odieresis" unicode="&#xd6;" horiz-adv-x="662" 
d="M394 368q-93 -125 -156.5 -206t-103.5 -120q-46 -46 -82 -46q-23 0 -36.5 19.5t-13.5 52.5q0 73 59 190q50 98 123 197q66 89 104 119q10 9 20.5 13.5t15.5 4.5q14 0 14 -16q0 -18 -10 -28q-35 -35 -82 -92q-61 -74 -92 -128q-100 -167 -100 -250q0 -22 14 -22
q24 0 101 94q72 89 142 177t99 125q66 83 92 108q15 18 30 18q20 0 20 -24q0 -16 -12 -26q-51 -56 -136 -230q-88 -181 -88 -240q0 -4 2.5 -9l3.5 -7q11 -17 16.5 -33.5t5.5 -28.5q0 -34 -42 -49q-30 -11 -76 -11h-44q-34 0 -54 6t-20 22q4 8 4 14q2 2 18 2l88 -2q30 0 51 8
t21 24q0 18 -18 42q-8 3 -8 22q0 48 69 189q45 88 61 121z" />
    <glyph glyph-name="Odieresis" unicode="&#x426;" horiz-adv-x="662" 
d="M394 368q-93 -125 -156.5 -206t-103.5 -120q-46 -46 -82 -46q-23 0 -36.5 19.5t-13.5 52.5q0 73 59 190q50 98 123 197q66 89 104 119q10 9 20.5 13.5t15.5 4.5q14 0 14 -16q0 -18 -10 -28q-35 -35 -82 -92q-61 -74 -92 -128q-100 -167 -100 -250q0 -22 14 -22
q24 0 101 94q72 89 142 177t99 125q66 83 92 108q15 18 30 18q20 0 20 -24q0 -16 -12 -26q-51 -56 -136 -230q-88 -181 -88 -240q0 -4 2.5 -9l3.5 -7q11 -17 16.5 -33.5t5.5 -28.5q0 -34 -42 -49q-30 -11 -76 -11h-44q-34 0 -54 6t-20 22q4 8 4 14q2 2 18 2l88 -2q30 0 51 8
t21 24q0 18 -18 42q-8 3 -8 22q0 48 69 189q45 88 61 121z" />
    <glyph glyph-name="multiply" unicode="&#xd7;" horiz-adv-x="504" 
d="M186 322q-23 -23 -52 -44l-50 -36q-8 -4 -19 -6t-19 -2q-42 0 -42 70q0 9 2 33.5t2 28.5q7 71 35 120q32 56 101 100q15 6 34 6q11 0 20.5 -4t9.5 -10q0 -14 -26 -26q-69 -43 -102 -113q-24 -51 -24 -101l2 -20q8 -12 16 -12q37 0 132 98q84 86 154 184q13 20 28 20
q8 0 15 -8t7 -20q0 -9 -2.5 -16t-9.5 -16q-87 -102 -190 -280q-99 -171 -136 -280q-4 -10 -13 -17t-17 -7t-15 7.5t-7 20.5q0 4 2 10.5t4 13.5q9 40 59 135q46 88 101 171z" />
    <glyph glyph-name="multiply" unicode="&#x427;" horiz-adv-x="504" 
d="M186 322q-23 -23 -52 -44l-50 -36q-8 -4 -19 -6t-19 -2q-42 0 -42 70q0 9 2 33.5t2 28.5q7 71 35 120q32 56 101 100q15 6 34 6q11 0 20.5 -4t9.5 -10q0 -14 -26 -26q-69 -43 -102 -113q-24 -51 -24 -101l2 -20q8 -12 16 -12q37 0 132 98q84 86 154 184q13 20 28 20
q8 0 15 -8t7 -20q0 -9 -2.5 -16t-9.5 -16q-87 -102 -190 -280q-99 -171 -136 -280q-4 -10 -13 -17t-17 -7t-15 7.5t-7 20.5q0 4 2 10.5t4 13.5q9 40 59 135q46 88 101 171z" />
    <glyph glyph-name="Oslash" unicode="&#xd8;" horiz-adv-x="940" 
d="M322 66l-2 -10q0 -12 8 -12q7 0 16 12q21 15 60 63q19 23 78 98q53 67 86 105q60 77 95 122q68 87 91 110q16 16 32 16q8 0 15 -7t7 -15q0 -12 -14 -26q-53 -57 -137.5 -238.5t-84.5 -239.5l2 -8v-16q0 -12 -6 -20t-14 -8q-11 0 -21.5 14t-10.5 36q0 54 61 189
q14 32 63 129q-93 -123 -155 -203q-66 -85 -103 -121q-52 -52 -84 -52q-36 0 -36 64q0 54 62 189q25 54 64 131q-93 -125 -156.5 -206t-103.5 -120q-46 -46 -82 -46q-23 0 -36.5 19.5t-13.5 52.5q0 73 59 190q50 98 123 197q66 89 104 119q21 16 36 16q16 0 16 -14
q0 -16 -12 -28q-35 -35 -82 -92q-61 -74 -92 -128q-100 -167 -100 -250q0 -22 14 -22q24 0 101 94q72 89 142 177t99 125q66 83 92 108q7 8 15 12t15 4q8 0 15 -7t7 -15q0 -15 -14 -26q-49 -53 -127.5 -220t-90.5 -242z" />
    <glyph glyph-name="Oslash" unicode="&#x428;" horiz-adv-x="940" 
d="M322 66l-2 -10q0 -12 8 -12q7 0 16 12q21 15 60 63q19 23 78 98q53 67 86 105q60 77 95 122q68 87 91 110q16 16 32 16q8 0 15 -7t7 -15q0 -12 -14 -26q-53 -57 -137.5 -238.5t-84.5 -239.5l2 -8v-16q0 -12 -6 -20t-14 -8q-11 0 -21.5 14t-10.5 36q0 54 61 189
q14 32 63 129q-93 -123 -155 -203q-66 -85 -103 -121q-52 -52 -84 -52q-36 0 -36 64q0 54 62 189q25 54 64 131q-93 -125 -156.5 -206t-103.5 -120q-46 -46 -82 -46q-23 0 -36.5 19.5t-13.5 52.5q0 73 59 190q50 98 123 197q66 89 104 119q21 16 36 16q16 0 16 -14
q0 -16 -12 -28q-35 -35 -82 -92q-61 -74 -92 -128q-100 -167 -100 -250q0 -22 14 -22q24 0 101 94q72 89 142 177t99 125q66 83 92 108q7 8 15 12t15 4q8 0 15 -7t7 -15q0 -15 -14 -26q-49 -53 -127.5 -220t-90.5 -242z" />
    <glyph glyph-name="Ugrave" unicode="&#xd9;" horiz-adv-x="940" 
d="M534 38q32 112 42 143q35 110 70 179q-93 -123 -155 -203q-66 -85 -103 -121q-44 -44 -82 -44q-17 0 -27.5 13.5t-10.5 42.5q0 54 62 189q25 54 64 131q-93 -125 -156.5 -206t-103.5 -120q-46 -46 -82 -46q-23 0 -36.5 19.5t-13.5 52.5q0 73 59 190q50 98 123 197
q66 89 104 119q10 9 20.5 13.5t15.5 4.5q14 0 14 -16q0 -18 -10 -28q-35 -35 -82 -92q-61 -74 -92 -128q-100 -167 -100 -250q0 -22 14 -22q24 0 101 94q72 89 142 177t99 125q66 83 92 108q15 18 30 18q20 0 20 -24q0 -16 -12 -26q-49 -53 -127.5 -220t-90.5 -242l-2 -10
q0 -12 8 -12q7 0 16 12q21 15 60 63q19 23 78 98q53 67 86 105q60 77 95 122q68 87 91 110q16 16 32 16q20 0 20 -22q0 -14 -12 -26q-32 -35 -80 -152q-34 -83 -76 -207q-33 -97 -40 -125q-25 -75 -61 -107q-25 -23 -55 -23q-8 0 -15 1t-18.5 4t-34.5 7t-34 4
q-29 0 -49.5 -9.5t-34.5 -26.5q-5 -8 -20 -8q-8 0 -14 6t-6 12v6q0 28 31.5 47t72.5 19q8 0 38 -5t48 -5q32 0 53 15q27 19 35 63z" />
    <glyph glyph-name="Ugrave" unicode="&#x429;" horiz-adv-x="940" 
d="M534 38q32 112 42 143q35 110 70 179q-93 -123 -155 -203q-66 -85 -103 -121q-44 -44 -82 -44q-17 0 -27.5 13.5t-10.5 42.5q0 54 62 189q25 54 64 131q-93 -125 -156.5 -206t-103.5 -120q-46 -46 -82 -46q-23 0 -36.5 19.5t-13.5 52.5q0 73 59 190q50 98 123 197
q66 89 104 119q10 9 20.5 13.5t15.5 4.5q14 0 14 -16q0 -18 -10 -28q-35 -35 -82 -92q-61 -74 -92 -128q-100 -167 -100 -250q0 -22 14 -22q24 0 101 94q72 89 142 177t99 125q66 83 92 108q15 18 30 18q20 0 20 -24q0 -16 -12 -26q-49 -53 -127.5 -220t-90.5 -242l-2 -10
q0 -12 8 -12q7 0 16 12q21 15 60 63q19 23 78 98q53 67 86 105q60 77 95 122q68 87 91 110q16 16 32 16q20 0 20 -22q0 -14 -12 -26q-32 -35 -80 -152q-34 -83 -76 -207q-33 -97 -40 -125q-25 -75 -61 -107q-25 -23 -55 -23q-8 0 -15 1t-18.5 4t-34.5 7t-34 4
q-29 0 -49.5 -9.5t-34.5 -26.5q-5 -8 -20 -8q-8 0 -14 6t-6 12v6q0 28 31.5 47t72.5 19q8 0 38 -5t48 -5q32 0 53 15q27 19 35 63z" />
    <glyph glyph-name="Uacute" unicode="&#xda;" horiz-adv-x="494" 
d="M70 56q7 -2 14 -3t16 -1q92 0 184 83q82 74 82 119q-3 23 -24.5 35.5t-55.5 12.5q-24 0 -48 -4.5t-62 -15.5q-25 -50 -52 -107q-39 -83 -54 -119zM56 18q0 -22 -13 -34t-25 -12q-18 0 -18 14l2 6q53 123 79 184t41 88l114 260q3 17 11.5 26.5t16.5 9.5q20 0 20 -30
l-2 -18q-10 -40 -41 -106q-23 -49 -35 -74q20 10 44 15t44 5q47 0 75.5 -24t28.5 -68q0 -100 -97 -177q-92 -73 -195 -73q-14 0 -21 1.5t-29 6.5z" />
    <glyph glyph-name="Uacute" unicode="&#x42a;" horiz-adv-x="494" 
d="M70 56q7 -2 14 -3t16 -1q92 0 184 83q82 74 82 119q-3 23 -24.5 35.5t-55.5 12.5q-24 0 -48 -4.5t-62 -15.5q-25 -50 -52 -107q-39 -83 -54 -119zM56 18q0 -22 -13 -34t-25 -12q-18 0 -18 14l2 6q53 123 79 184t41 88l114 260q3 17 11.5 26.5t16.5 9.5q20 0 20 -30
l-2 -18q-10 -40 -41 -106q-23 -49 -35 -74q20 10 44 15t44 5q47 0 75.5 -24t28.5 -68q0 -100 -97 -177q-92 -73 -195 -73q-14 0 -21 1.5t-29 6.5z" />
    <glyph glyph-name="Ucircumflex" unicode="&#xdb;" horiz-adv-x="810" 
d="M70 56q7 -2 14 -3t16 -1q92 0 184 83q82 74 82 119q-3 23 -24.5 35.5t-55.5 12.5q-24 0 -48 -4.5t-62 -15.5q-25 -50 -52 -107q-39 -83 -54 -119zM56 18q0 -22 -13 -34t-25 -12q-18 0 -18 14l2 6q53 123 79 184t41 88l114 260q3 17 11.5 26.5t16.5 9.5q20 0 20 -30
l-2 -18q-10 -40 -41 -106q-23 -49 -35 -74q20 10 44 15t44 5q47 0 75.5 -24t28.5 -68q0 -100 -97 -177q-92 -73 -195 -73q-14 0 -21 1.5t-29 6.5zM368 36q0 39 40 123q33 70 89 162q43 71 91 143q21 37 46.5 67.5t39.5 30.5q11 0 15.5 -4.5t4.5 -13.5q0 -8 -5.5 -21
t-14.5 -27q-64 -87 -130 -195q-79 -130 -110 -211q-5 -13 -18 -75q-5 -25 -28 -25q-24 0 -24 26z" />
    <glyph glyph-name="Ucircumflex" unicode="&#x42b;" horiz-adv-x="810" 
d="M70 56q7 -2 14 -3t16 -1q92 0 184 83q82 74 82 119q-3 23 -24.5 35.5t-55.5 12.5q-24 0 -48 -4.5t-62 -15.5q-25 -50 -52 -107q-39 -83 -54 -119zM56 18q0 -22 -13 -34t-25 -12q-18 0 -18 14l2 6q53 123 79 184t41 88l114 260q3 17 11.5 26.5t16.5 9.5q20 0 20 -30
l-2 -18q-10 -40 -41 -106q-23 -49 -35 -74q20 10 44 15t44 5q47 0 75.5 -24t28.5 -68q0 -100 -97 -177q-92 -73 -195 -73q-14 0 -21 1.5t-29 6.5zM368 36q0 39 40 123q33 70 89 162q43 71 91 143q21 37 46.5 67.5t39.5 30.5q11 0 15.5 -4.5t4.5 -13.5q0 -8 -5.5 -21
t-14.5 -27q-64 -87 -130 -195q-79 -130 -110 -211q-5 -13 -18 -75q-5 -25 -28 -25q-24 0 -24 26z" />
    <glyph glyph-name="Udieresis" unicode="&#xdc;" horiz-adv-x="494" 
d="M70 56q7 -2 14 -3t16 -1q92 0 184 83q82 74 82 119q-3 23 -24.5 35.5t-55.5 12.5q-24 0 -48 -4.5t-62 -15.5q-25 -50 -52 -107q-39 -83 -54 -119zM56 18q0 -22 -13 -34t-25 -12q-18 0 -18 14l2 6q53 123 79 184t41 88q14 35 35 83q59 133 71 165l-88 2q-20 -3 -20 18
q0 7 8 13.5t22 6.5l4 2l96 -4q21 0 32.5 -8.5t11.5 -19.5q0 -16 -16 -16q-14 -40 -33.5 -86t-38.5 -88q20 10 44 15t44 5q47 0 75.5 -24t28.5 -68q0 -100 -97 -177q-92 -73 -195 -73q-14 0 -21 1.5t-29 6.5z" />
    <glyph glyph-name="Udieresis" unicode="&#x42c;" horiz-adv-x="494" 
d="M70 56q7 -2 14 -3t16 -1q92 0 184 83q82 74 82 119q-3 23 -24.5 35.5t-55.5 12.5q-24 0 -48 -4.5t-62 -15.5q-25 -50 -52 -107q-39 -83 -54 -119zM56 18q0 -22 -13 -34t-25 -12q-18 0 -18 14l2 6q53 123 79 184t41 88q14 35 35 83q59 133 71 165l-88 2q-20 -3 -20 18
q0 7 8 13.5t22 6.5l4 2l96 -4q21 0 32.5 -8.5t11.5 -19.5q0 -16 -16 -16q-14 -40 -33.5 -86t-38.5 -88q20 10 44 15t44 5q47 0 75.5 -24t28.5 -68q0 -100 -97 -177q-92 -73 -195 -73q-14 0 -21 1.5t-29 6.5z" />
    <glyph glyph-name="Yacute" unicode="&#xdd;" horiz-adv-x="514" 
d="M374 274q-19 -42 -37 -77t-37 -63q-52 -82 -107 -124q-49 -38 -91 -38t-68 36.5t-26 95.5q0 48 18 105.5t54 112.5q3 7 10 12q2 1 6 4q6 0 6 -14q0 -15 -6 -30q-29 -51 -43.5 -97.5t-14.5 -84.5q0 -39 15.5 -61.5t42.5 -22.5q33 0 76.5 35t91.5 107q10 13 37 68
q21 43 27 56q-10 3 -16 4q-19 4 -36 4q-18 0 -29.5 -3t-20.5 -13q-12 -4 -18 -4q-20 0 -20 16q0 6 4.5 13t15.5 15q13 7 27.5 10.5t32.5 3.5q25 0 53 -6q9 -2 23 -6q21 52 33.5 99t12.5 83l-2 22q-10 10 -36 10q-42 0 -85 -33q-49 -38 -69 -97q0 -17 -8.5 -26.5t-17.5 -9.5
q-8 0 -15 8t-7 22l4 18q19 65 82 113.5t120 48.5l28 -4q19 -4 28.5 -27.5t9.5 -56.5q0 -43 -14 -104t-34 -120z" />
    <glyph glyph-name="Yacute" unicode="&#x42d;" horiz-adv-x="514" 
d="M374 274q-19 -42 -37 -77t-37 -63q-52 -82 -107 -124q-49 -38 -91 -38t-68 36.5t-26 95.5q0 48 18 105.5t54 112.5q3 7 10 12q2 1 6 4q6 0 6 -14q0 -15 -6 -30q-29 -51 -43.5 -97.5t-14.5 -84.5q0 -39 15.5 -61.5t42.5 -22.5q33 0 76.5 35t91.5 107q10 13 37 68
q21 43 27 56q-10 3 -16 4q-19 4 -36 4q-18 0 -29.5 -3t-20.5 -13q-12 -4 -18 -4q-20 0 -20 16q0 6 4.5 13t15.5 15q13 7 27.5 10.5t32.5 3.5q25 0 53 -6q9 -2 23 -6q21 52 33.5 99t12.5 83l-2 22q-10 10 -36 10q-42 0 -85 -33q-49 -38 -69 -97q0 -17 -8.5 -26.5t-17.5 -9.5
q-8 0 -15 8t-7 22l4 18q19 65 82 113.5t120 48.5l28 -4q19 -4 28.5 -27.5t9.5 -56.5q0 -43 -14 -104t-34 -120z" />
    <glyph glyph-name="Thorn" unicode="&#xde;" horiz-adv-x="752" 
d="M468 540q-17 0 -51 -17t-45 -17q-8 0 -12 8l-2 8q0 22 53 44t109 22q29 0 51 -6.5t38 -22t24.5 -38.5t8.5 -49q0 -80 -70 -197q-55 -93 -130 -173q-46 -49 -94 -77.5t-86 -28.5q-30 0 -50 21t-24 65v16q0 35 16 81.5t42 96.5h-76q-34 -54 -57 -97q-26 -49 -39 -87
q-9 -22 -16 -61t-32 -39q-22 0 -22 26l4 20q0 35 31 103q22 48 73 139q-28 0 -28 14q0 10 16 17t30 7h6q50 88 90 146q24 42 46 68q26 32 40 32q22 0 22 -18q0 -7 -5 -19t-17 -29q-61 -86 -122 -186h78q41 67 96 129q51 57 104 99zM494 540q8 0 8 -8q0 -12 -34 -48l-60 -64
q-71 -78 -117.5 -171.5t-46.5 -150.5q0 -50 38 -50q62 0 176 147q50 65 82 119q20 40 32 75q16 47 16 83v30q-9 18 -22 28q-18 14 -44 14z" />
    <glyph glyph-name="Thorn" unicode="&#x42e;" horiz-adv-x="752" 
d="M468 540q-17 0 -51 -17t-45 -17q-8 0 -12 8l-2 8q0 22 53 44t109 22q29 0 51 -6.5t38 -22t24.5 -38.5t8.5 -49q0 -80 -70 -197q-55 -93 -130 -173q-46 -49 -94 -77.5t-86 -28.5q-30 0 -50 21t-24 65v16q0 35 16 81.5t42 96.5h-76q-34 -54 -57 -97q-26 -49 -39 -87
q-9 -22 -16 -61t-32 -39q-22 0 -22 26l4 20q0 35 31 103q22 48 73 139q-28 0 -28 14q0 10 16 17t30 7h6q50 88 90 146q24 42 46 68q26 32 40 32q22 0 22 -18q0 -7 -5 -19t-17 -29q-61 -86 -122 -186h78q41 67 96 129q51 57 104 99zM494 540q8 0 8 -8q0 -12 -34 -48l-60 -64
q-71 -78 -117.5 -171.5t-46.5 -150.5q0 -50 38 -50q62 0 176 147q50 65 82 119q20 40 32 75q16 47 16 83v30q-9 18 -22 28q-18 14 -44 14z" />
    <glyph glyph-name="germandbls" unicode="&#xdf;" horiz-adv-x="534" 
d="M376 498q-7 1 -17 1.5t-15 0.5q-92 0 -183 -82q-81 -73 -81 -118q3 -25 23.5 -38.5t54.5 -13.5q40 0 112 24q25 50 52 107q39 83 54 119zM388 536q7 18 17 28t19 10q16 0 16 -24q0 -12 -2 -18l-108 -242l20 4q22 0 22 -16q0 -10 -17 -20t-49 -14l-96 -216
q-3 -15 -12.5 -25.5t-17.5 -10.5q-20 0 -20 30l4 20q6 26 19.5 59t30.5 65l-140 -128q-20 -20 -48 -20q-20 0 -20 12q0 11 10 18l172 154l-12 -4l-26 -2q-46 0 -75 26t-29 72q0 100 97 175q91 71 195 71q12 0 25.5 -0.5t24.5 -3.5z" />
    <glyph glyph-name="germandbls" unicode="&#x42f;" horiz-adv-x="534" 
d="M376 498q-7 1 -17 1.5t-15 0.5q-92 0 -183 -82q-81 -73 -81 -118q3 -25 23.5 -38.5t54.5 -13.5q40 0 112 24q25 50 52 107q39 83 54 119zM388 536q7 18 17 28t19 10q16 0 16 -24q0 -12 -2 -18l-108 -242l20 4q22 0 22 -16q0 -10 -17 -20t-49 -14l-96 -216
q-3 -15 -12.5 -25.5t-17.5 -10.5q-20 0 -20 30l4 20q6 26 19.5 59t30.5 65l-140 -128q-20 -20 -48 -20q-20 0 -20 12q0 11 10 18l172 154l-12 -4l-26 -2q-46 0 -75 26t-29 72q0 100 97 175q91 71 195 71q12 0 25.5 -0.5t24.5 -3.5z" />
    <glyph glyph-name="agrave" unicode="&#xe0;" horiz-adv-x="298" 
d="M136 102q-19 -33 -43.5 -53.5t-44.5 -20.5q-12 0 -22 9t-15 23t-5 26q0 50 35 115t81 93q27 18 58 18q42 0 42 -34l-4 -22q4 -4 4 -12q0 -13 -26 -66t-26 -70l-2 -14q0 -29 20 -40t20 -26q0 -16 -24 -16q-19 0 -34 14q-18 17 -18 46zM188 248q-1 11 -8 16.5t-16 5.5
q-13 0 -29.5 -11.5t-24.5 -22.5q-18 -29 -36 -67q-22 -47 -22 -67q0 -17 12 -20l2 -2q18 0 48 49q37 59 74 119z" />
    <glyph glyph-name="agrave" unicode="&#x430;" horiz-adv-x="298" 
d="M136 102q-19 -33 -43.5 -53.5t-44.5 -20.5q-12 0 -22 9t-15 23t-5 26q0 50 35 115t81 93q27 18 58 18q42 0 42 -34l-4 -22q4 -4 4 -12q0 -13 -26 -66t-26 -70l-2 -14q0 -29 20 -40t20 -26q0 -16 -24 -16q-19 0 -34 14q-18 17 -18 46zM188 248q-1 11 -8 16.5t-16 5.5
q-13 0 -29.5 -11.5t-24.5 -22.5q-18 -29 -36 -67q-22 -47 -22 -67q0 -17 12 -20l2 -2q18 0 48 49q37 59 74 119z" />
    <glyph glyph-name="aacute" unicode="&#xe1;" horiz-adv-x="416" 
d="M160 110q-16 -42 -43.5 -63t-56.5 -21q-17 0 -30.5 8.5t-18 19t-8 22.5t-3.5 22q0 40 21 87.5t55 82.5q11 18 23.5 23t32.5 5l28 -2q16 0 28 8l2 14q0 25 -80 78q-16 12 -16 28q0 24 22 51q19 23 38 33q23 8 58 13q40 4 80 9q20 -3 30 -10t10 -16q0 -16 -42 -16h-18
q-36 0 -78.5 -12.5t-47.5 -33.5l-2 -4q0 -8 66 -66q32 -28 32 -54q0 -10 -6 -22q-33 -66 -47 -99q-19 -45 -29 -85zM174 256l-32 2q-24 0 -41 -17.5t-38 -62t-21 -68.5q0 -19 14 -22l2 -2q29 0 78 92q20 39 38 78z" />
    <glyph glyph-name="aacute" unicode="&#x431;" horiz-adv-x="416" 
d="M160 110q-16 -42 -43.5 -63t-56.5 -21q-17 0 -30.5 8.5t-18 19t-8 22.5t-3.5 22q0 40 21 87.5t55 82.5q11 18 23.5 23t32.5 5l28 -2q16 0 28 8l2 14q0 25 -80 78q-16 12 -16 28q0 24 22 51q19 23 38 33q23 8 58 13q40 4 80 9q20 -3 30 -10t10 -16q0 -16 -42 -16h-18
q-36 0 -78.5 -12.5t-47.5 -33.5l-2 -4q0 -8 66 -66q32 -28 32 -54q0 -10 -6 -22q-33 -66 -47 -99q-19 -45 -29 -85zM174 256l-32 2q-24 0 -41 -17.5t-38 -62t-21 -68.5q0 -19 14 -22l2 -2q29 0 78 92q20 39 38 78z" />
    <glyph glyph-name="acircumflex" unicode="&#xe2;" horiz-adv-x="386" 
d="M288 496l-10 4q-5 0 -10 -7q-1 -2 -4 -7q-21 -38 -55 -103.5t-55 -108.5q12 11 29.5 18.5t32.5 7.5l12 -2q28 -3 28 -42v-14q-10 -53 -34 -95.5t-62 -79.5t-68 -37q-24 0 -44 26q-1 -13 -13.5 -24.5t-22.5 -11.5q-12 0 -12 16q6 20 8 32q12 34 50 102.5t78 138.5
q52 94 86.5 170.5t61.5 76.5q16 0 22 -27t6 -53q0 -54 -24 -94q-20 -34 -58 -56l-8 -4q-2 0 -5 5.5t-3 8.5l2 10q27 20 49.5 67t22.5 77v6zM62 88q12 -16 26 -16q31 0 66 50q22 28 38 58.5t16 53.5v14q-5 10 -18 10q-19 0 -57 -48q-19 -24 -31 -42z" />
    <glyph glyph-name="acircumflex" unicode="&#x432;" horiz-adv-x="386" 
d="M288 496l-10 4q-5 0 -10 -7q-1 -2 -4 -7q-21 -38 -55 -103.5t-55 -108.5q12 11 29.5 18.5t32.5 7.5l12 -2q28 -3 28 -42v-14q-10 -53 -34 -95.5t-62 -79.5t-68 -37q-24 0 -44 26q-1 -13 -13.5 -24.5t-22.5 -11.5q-12 0 -12 16q6 20 8 32q12 34 50 102.5t78 138.5
q52 94 86.5 170.5t61.5 76.5q16 0 22 -27t6 -53q0 -54 -24 -94q-20 -34 -58 -56l-8 -4q-2 0 -5 5.5t-3 8.5l2 10q27 20 49.5 67t22.5 77v6zM62 88q12 -16 26 -16q31 0 66 50q22 28 38 58.5t16 53.5v14q-5 10 -18 10q-19 0 -57 -48q-19 -24 -31 -42z" />
    <glyph glyph-name="atilde" unicode="&#xe3;" horiz-adv-x="366" 
d="M168 140q-86 -15 -86 -58l2 -14q1 -5 15 -10.5t43 -5.5q31 0 59 8.5t37 23.5q8 10 20 10q9 0 17.5 -6.5t8.5 -15.5q0 -16 -20 -30q-17 -15 -58 -28.5t-78 -13.5q-28 0 -49.5 8.5t-31 29.5t-9.5 40q0 38 29.5 64.5t80.5 41.5q30 7 47 24t17 32q0 22 -24 22l-10 -2
q-33 -5 -77 -24q-60 -26 -73 -56l-6 -2q-8 0 -12 6t-4 14q0 16 6 22q24 39 89 59q48 15 101 15q31 0 48.5 -12.5t17.5 -31.5q0 -21 -25 -50t-75 -60z" />
    <glyph glyph-name="atilde" unicode="&#x433;" horiz-adv-x="366" 
d="M168 140q-86 -15 -86 -58l2 -14q1 -5 15 -10.5t43 -5.5q31 0 59 8.5t37 23.5q8 10 20 10q9 0 17.5 -6.5t8.5 -15.5q0 -16 -20 -30q-17 -15 -58 -28.5t-78 -13.5q-28 0 -49.5 8.5t-31 29.5t-9.5 40q0 38 29.5 64.5t80.5 41.5q30 7 47 24t17 32q0 22 -24 22l-10 -2
q-33 -5 -77 -24q-60 -26 -73 -56l-6 -2q-8 0 -12 6t-4 14q0 16 6 22q24 39 89 59q48 15 101 15q31 0 48.5 -12.5t17.5 -31.5q0 -21 -25 -50t-75 -60z" />
    <glyph glyph-name="adieresis" unicode="&#xe4;" horiz-adv-x="346" 
d="M168 -14q34 24 57 47t37 47q4 9 9.5 13.5t12.5 4.5q14 0 14 -14q0 -6 -4 -10q-21 -39 -64 -78q-48 -44 -96 -62q-46 -129 -103 -197q-48 -57 -89 -57q-60 0 -60 74q4 48 68 105t144 87q21 38 36 70t24 58q-40 -46 -70 -46q-15 0 -24.5 15.5t-9.5 38.5q0 26 10.5 57.5
t33.5 68.5q37 56 73 83q31 23 59 23q16 0 27 -10t11 -24t-2 -18q18 -3 18 -16q0 -10 -12 -34q-6 -12 -11.5 -22.5t-31.5 -71.5q-51 -119 -57 -132zM180 154q26 38 31 47.5t8 22t3 28.5q0 22 -14 22q-11 0 -32 -23q-25 -28 -54 -77q-13 -18 -20.5 -39.5t-7.5 -34.5
q0 -24 14 -24q12 0 30 18q23 23 42 60zM74 -100q-62 -31 -107 -78q-39 -41 -39 -60q0 -14 7 -23t19 -9q13 0 34 18q20 20 40 55q11 20 46 97z" />
    <glyph glyph-name="adieresis" unicode="&#x434;" horiz-adv-x="346" 
d="M168 -14q34 24 57 47t37 47q4 9 9.5 13.5t12.5 4.5q14 0 14 -14q0 -6 -4 -10q-21 -39 -64 -78q-48 -44 -96 -62q-46 -129 -103 -197q-48 -57 -89 -57q-60 0 -60 74q4 48 68 105t144 87q21 38 36 70t24 58q-40 -46 -70 -46q-15 0 -24.5 15.5t-9.5 38.5q0 26 10.5 57.5
t33.5 68.5q37 56 73 83q31 23 59 23q16 0 27 -10t11 -24t-2 -18q18 -3 18 -16q0 -10 -12 -34q-6 -12 -11.5 -22.5t-31.5 -71.5q-51 -119 -57 -132zM180 154q26 38 31 47.5t8 22t3 28.5q0 22 -14 22q-11 0 -32 -23q-25 -28 -54 -77q-13 -18 -20.5 -39.5t-7.5 -34.5
q0 -24 14 -24q12 0 30 18q23 23 42 60zM74 -100q-62 -31 -107 -78q-39 -41 -39 -60q0 -14 7 -23t19 -9q13 0 34 18q20 20 40 55q11 20 46 97z" />
    <glyph glyph-name="aring" unicode="&#xe5;" horiz-adv-x="316" 
d="M54 114q0 -19 8 -29.5t22 -10.5q28 0 67 25t69 61q11 16 20 16q6 0 6 -12v-10q-12 -34 -69 -76q-63 -46 -111 -46q-34 0 -52 30q-4 9 -8 19.5t-4 20.5q0 33 23 78q20 39 41 62q26 25 49 40q32 22 53 22l18 -2q18 -12 18 -34q0 -26 -30 -64q-23 -29 -48 -50
q-12 -12 -36 -24q-16 -8 -36 -16zM60 160q32 0 80 48q20 20 20 38q0 12 -10 12q-7 0 -14 -3.5t-16 -12.5q-15 -15 -33 -39t-27 -43z" />
    <glyph glyph-name="aring" unicode="&#x435;" horiz-adv-x="316" 
d="M54 114q0 -19 8 -29.5t22 -10.5q28 0 67 25t69 61q11 16 20 16q6 0 6 -12v-10q-12 -34 -69 -76q-63 -46 -111 -46q-34 0 -52 30q-4 9 -8 19.5t-4 20.5q0 33 23 78q20 39 41 62q26 25 49 40q32 22 53 22l18 -2q18 -12 18 -34q0 -26 -30 -64q-23 -29 -48 -50
q-12 -12 -36 -24q-16 -8 -36 -16zM60 160q32 0 80 48q20 20 20 38q0 12 -10 12q-7 0 -14 -3.5t-16 -12.5q-15 -15 -33 -39t-27 -43z" />
    <glyph glyph-name="ae" unicode="&#xe6;" horiz-adv-x="614" 
d="M316 180q19 41 66 88q17 17 39 31q27 17 43 17q30 0 30 -42q0 -29 -21 -59.5t-37 -30.5l-8 4q-2 2 -4 4.5t-2 5.5q0 9 18 31t18 31l-2 8h-6q-16 0 -57.5 -48t-50.5 -80q-3 -10 -6.5 -23t-3.5 -17q0 -32 28 -32q22 0 54 25t60 67q9 18 24 18q14 0 14 -14l-2 -10
q-24 -44 -68 -82q-51 -44 -92 -44l-10 -2q-25 0 -35.5 16t-10.5 42q0 13 4 33t6 29h-30q-12 -37 -19 -56q-18 -47 -37 -78q-7 -4 -11 -6q-12 -6 -19 -6q-10 0 -10 14q12 20 28.5 59t27.5 73l-40 2q-10 -22 -13 -27q-11 -19 -29 -37q-19 -24 -43 -42q-29 -22 -51 -22
q-26 0 -38 30q-4 11 -8 25t-4 27q0 34 13.5 75t32.5 69q1 4 4 6t8 4q16 0 16 -20q0 -9 -6 -18q-34 -62 -34 -108t26 -46q11 0 24 9t28 27q19 18 39.5 70t20.5 76q0 2 -0.5 4.5t-1.5 5.5h-4q-7 0 -28 -43q-10 -21 -20 -21l-4 2q-10 3 -10 16q0 20 15.5 45t38.5 37q20 8 24 8
q13 0 19.5 -14.5t6.5 -35.5q0 -15 -3 -34.5t-5 -35.5h36q11 37 17.5 70.5t6.5 41.5q3 18 20 18q7 0 15.5 -5.5t8.5 -10.5q0 -29 -26 -114h30z" />
    <glyph glyph-name="ae" unicode="&#x436;" horiz-adv-x="614" 
d="M316 180q19 41 66 88q17 17 39 31q27 17 43 17q30 0 30 -42q0 -29 -21 -59.5t-37 -30.5l-8 4q-2 2 -4 4.5t-2 5.5q0 9 18 31t18 31l-2 8h-6q-16 0 -57.5 -48t-50.5 -80q-3 -10 -6.5 -23t-3.5 -17q0 -32 28 -32q22 0 54 25t60 67q9 18 24 18q14 0 14 -14l-2 -10
q-24 -44 -68 -82q-51 -44 -92 -44l-10 -2q-25 0 -35.5 16t-10.5 42q0 13 4 33t6 29h-30q-12 -37 -19 -56q-18 -47 -37 -78q-7 -4 -11 -6q-12 -6 -19 -6q-10 0 -10 14q12 20 28.5 59t27.5 73l-40 2q-10 -22 -13 -27q-11 -19 -29 -37q-19 -24 -43 -42q-29 -22 -51 -22
q-26 0 -38 30q-4 11 -8 25t-4 27q0 34 13.5 75t32.5 69q1 4 4 6t8 4q16 0 16 -20q0 -9 -6 -18q-34 -62 -34 -108t26 -46q11 0 24 9t28 27q19 18 39.5 70t20.5 76q0 2 -0.5 4.5t-1.5 5.5h-4q-7 0 -28 -43q-10 -21 -20 -21l-4 2q-10 3 -10 16q0 20 15.5 45t38.5 37q20 8 24 8
q13 0 19.5 -14.5t6.5 -35.5q0 -15 -3 -34.5t-5 -35.5h36q11 37 17.5 70.5t6.5 41.5q3 18 20 18q7 0 15.5 -5.5t8.5 -10.5q0 -29 -26 -114h30z" />
    <glyph glyph-name="ccedilla" unicode="&#xe7;" horiz-adv-x="336" 
d="M150 62l4 -30q0 -9 -2.5 -22t-3.5 -18q35 30 62 54q36 32 47 43t19 11q7 0 12.5 -6.5t5.5 -13.5q0 -15 -6 -17t-97 -78q-39 -33 -69 -49q-32 -133 -81 -207q-41 -62 -81 -67h-8q-24 0 -39.5 17.5t-20.5 48.5q0 49 56 112.5t132 103.5q16 38 18.5 61.5t5.5 46.5l-20 -2
q-18 0 -33 3.5t-15 10.5l2 4q4 19 16.5 23.5t45.5 4.5q21 0 54.5 23.5t53.5 50.5q11 13 16.5 30t5.5 34q0 16 -5 28t-11 12q-28 -3 -60 -58.5t-42 -55.5q-3 0 -6.5 6.5t-3.5 11.5q0 34 26 76q31 50 72 58q41 -4 59 -30q15 -21 15 -52q0 -11 -2 -21t-6 -21q-25 -61 -73 -100
q-16 -12 -43 -26zM64 -104q-56 -37 -94 -88q-32 -43 -32 -64v-4q1 -13 8.5 -20.5t17.5 -7.5q8 0 15.5 5.5t16.5 18.5q22 26 42 80q19 59 26 80z" />
    <glyph glyph-name="ccedilla" unicode="&#x437;" horiz-adv-x="336" 
d="M150 62l4 -30q0 -9 -2.5 -22t-3.5 -18q35 30 62 54q36 32 47 43t19 11q7 0 12.5 -6.5t5.5 -13.5q0 -15 -6 -17t-97 -78q-39 -33 -69 -49q-32 -133 -81 -207q-41 -62 -81 -67h-8q-24 0 -39.5 17.5t-20.5 48.5q0 49 56 112.5t132 103.5q16 38 18.5 61.5t5.5 46.5l-20 -2
q-18 0 -33 3.5t-15 10.5l2 4q4 19 16.5 23.5t45.5 4.5q21 0 54.5 23.5t53.5 50.5q11 13 16.5 30t5.5 34q0 16 -5 28t-11 12q-28 -3 -60 -58.5t-42 -55.5q-3 0 -6.5 6.5t-3.5 11.5q0 34 26 76q31 50 72 58q41 -4 59 -30q15 -21 15 -52q0 -11 -2 -21t-6 -21q-25 -61 -73 -100
q-16 -12 -43 -26zM64 -104q-56 -37 -94 -88q-32 -43 -32 -64v-4q1 -13 8.5 -20.5t17.5 -7.5q8 0 15.5 5.5t16.5 18.5q22 26 42 80q19 59 26 80z" />
    <glyph glyph-name="egrave" unicode="&#xe8;" horiz-adv-x="298" 
d="M132 102q-50 -68 -82 -68q-16 0 -29 13t-13 37q0 22 10.5 51.5t28 59.5t36.5 51q25 28 43 28t18 -10q0 -8 -34 -53q-39 -52 -50 -89q-2 -6 -3 -16.5t-1 -11.5q0 -12 6 -12q14 0 47.5 45.5t56.5 100.5q8 21 17.5 30.5t18.5 9.5q18 0 18 -26q0 -15 -8 -26
q-19 -32 -29.5 -60t-10.5 -46t7.5 -30.5t18.5 -17.5q22 -9 22 -26q0 -14 -28 -14q-26 0 -43 17.5t-17 46.5v16z" />
    <glyph glyph-name="egrave" unicode="&#x438;" horiz-adv-x="298" 
d="M132 102q-50 -68 -82 -68q-16 0 -29 13t-13 37q0 22 10.5 51.5t28 59.5t36.5 51q25 28 43 28t18 -10q0 -8 -34 -53q-39 -52 -50 -89q-2 -6 -3 -16.5t-1 -11.5q0 -12 6 -12q14 0 47.5 45.5t56.5 100.5q8 21 17.5 30.5t18.5 9.5q18 0 18 -26q0 -15 -8 -26
q-19 -32 -29.5 -60t-10.5 -46t7.5 -30.5t18.5 -17.5q22 -9 22 -26q0 -14 -28 -14q-26 0 -43 17.5t-17 46.5v16z" />
    <glyph glyph-name="eacute" unicode="&#xe9;" horiz-adv-x="336" 
d="M132 102q-50 -68 -82 -68q-16 0 -29 13t-13 37q0 22 10.5 51.5t28 59.5t36.5 51q25 28 43 28t18 -10q0 -8 -34 -53q-39 -52 -50 -89q-2 -6 -3 -16.5t-1 -11.5q0 -12 6 -12q14 0 47.5 45.5t56.5 100.5q8 21 17.5 30.5t18.5 9.5q18 0 18 -26q0 -15 -8 -26
q-19 -32 -29.5 -60t-10.5 -46t7.5 -30.5t18.5 -17.5q22 -9 22 -26q0 -14 -28 -14q-26 0 -43 17.5t-17 46.5v16zM182 354q6 0 35 13q16 7 21 7q18 0 18 -16v-4q0 -14 -28 -33t-46 -19l-6 2q-24 11 -39 34t-15 40q0 8 6 14q8 4 10 4q10 0 21 -13.5t23 -28.5z" />
    <glyph glyph-name="eacute" unicode="&#x439;" horiz-adv-x="336" 
d="M132 102q-50 -68 -82 -68q-16 0 -29 13t-13 37q0 22 10.5 51.5t28 59.5t36.5 51q25 28 43 28t18 -10q0 -8 -34 -53q-39 -52 -50 -89q-2 -6 -3 -16.5t-1 -11.5q0 -12 6 -12q14 0 47.5 45.5t56.5 100.5q8 21 17.5 30.5t18.5 9.5q18 0 18 -26q0 -15 -8 -26
q-19 -32 -29.5 -60t-10.5 -46t7.5 -30.5t18.5 -17.5q22 -9 22 -26q0 -14 -28 -14q-26 0 -43 17.5t-17 46.5v16zM182 354q6 0 35 13q16 7 21 7q18 0 18 -16v-4q0 -14 -28 -33t-46 -19l-6 2q-24 11 -39 34t-15 40q0 8 6 14q8 4 10 4q10 0 21 -13.5t23 -28.5z" />
    <glyph glyph-name="ecircumflex" unicode="&#xea;" horiz-adv-x="416" 
d="M170 298l-74 -124q33 40 88.5 79t81.5 39q18 0 18 -10v-8q0 -9 -36 -23q-28 -11 -46 -23q-32 -70 -32 -112t30 -42q22 0 52.5 25.5t57.5 68.5q2 8 7 12t13 4q8 -7 8 -12l-2 -12q-14 -43 -56 -85q-48 -49 -92 -49q-14 0 -18 2q-21 5 -29.5 28t-8.5 56q0 15 1 27.5t3 34.5
q-19 -19 -41 -53t-39 -65q-4 -10 -12.5 -15t-17.5 -5q-7 0 -12.5 5.5t-5.5 14.5l2 12q21 53 52 114q9 18 64 120q8 6 12 8q14 8 22 8q10 0 10 -12v-8z" />
    <glyph glyph-name="ecircumflex" unicode="&#x43a;" horiz-adv-x="416" 
d="M170 298l-74 -124q33 40 88.5 79t81.5 39q18 0 18 -10v-8q0 -9 -36 -23q-28 -11 -46 -23q-32 -70 -32 -112t30 -42q22 0 52.5 25.5t57.5 68.5q2 8 7 12t13 4q8 -7 8 -12l-2 -12q-14 -43 -56 -85q-48 -49 -92 -49q-14 0 -18 2q-21 5 -29.5 28t-8.5 56q0 15 1 27.5t3 34.5
q-19 -19 -41 -53t-39 -65q-4 -10 -12.5 -15t-17.5 -5q-7 0 -12.5 5.5t-5.5 14.5l2 12q21 53 52 114q9 18 64 120q8 6 12 8q14 8 22 8q10 0 10 -12v-8z" />
    <glyph glyph-name="edieresis" unicode="&#xeb;" horiz-adv-x="356" 
d="M94 190q29 43 77.5 70.5t82.5 27.5q20 0 20 -14q0 -8 -5.5 -18.5t-14.5 -19.5q-25 -27 -47.5 -79.5t-22.5 -82.5q0 -2 1 -5t3 -7q10 -10 10 -22q0 -9 -9.5 -16.5t-18.5 -7.5t-18 13t-15.5 30.5t-6.5 34.5q0 21 11 48t33 58q-45 -31 -83 -88q-63 -96 -75 -96t-12 10
q0 22 34 80q28 48 56 84z" />
    <glyph glyph-name="edieresis" unicode="&#x43b;" horiz-adv-x="356" 
d="M94 190q29 43 77.5 70.5t82.5 27.5q20 0 20 -14q0 -8 -5.5 -18.5t-14.5 -19.5q-25 -27 -47.5 -79.5t-22.5 -82.5q0 -2 1 -5t3 -7q10 -10 10 -22q0 -9 -9.5 -16.5t-18.5 -7.5t-18 13t-15.5 30.5t-6.5 34.5q0 21 11 48t33 58q-45 -31 -83 -88q-63 -96 -75 -96t-12 10
q0 22 34 80q28 48 56 84z" />
    <glyph glyph-name="igrave" unicode="&#xec;" horiz-adv-x="446" 
d="M4 42q0 75 84 157q77 75 128 75h10q6 0 6 -6q0 -8 -17.5 -38.5t-18.5 -35.5q19 13 53 44q56 50 81 50q20 0 20 -14q0 -8 -5.5 -18.5t-14.5 -19.5q-31 -26 -55.5 -69.5t-24.5 -72.5q0 -21 14 -32q10 -10 10 -22q0 -9 -9.5 -16.5t-18.5 -7.5t-18 12q-11 20 -15 30
q-7 18 -7 36q0 21 11 48t33 58q-54 -43 -84 -92q-45 -72 -56 -72q-16 0 -16 18q0 22 21 67t41 73q-38 -24 -69 -70q-26 -39 -43 -88q-3 -20 -22 -20q-18 0 -18 26z" />
    <glyph glyph-name="igrave" unicode="&#x43c;" horiz-adv-x="446" 
d="M4 42q0 75 84 157q77 75 128 75h10q6 0 6 -6q0 -8 -17.5 -38.5t-18.5 -35.5q19 13 53 44q56 50 81 50q20 0 20 -14q0 -8 -5.5 -18.5t-14.5 -19.5q-31 -26 -55.5 -69.5t-24.5 -72.5q0 -21 14 -32q10 -10 10 -22q0 -9 -9.5 -16.5t-18.5 -7.5t-18 12q-11 20 -15 30
q-7 18 -7 36q0 21 11 48t33 58q-54 -43 -84 -92q-45 -72 -56 -72q-16 0 -16 18q0 22 21 67t41 73q-38 -24 -69 -70q-26 -39 -43 -88q-3 -20 -22 -20q-18 0 -18 26z" />
    <glyph glyph-name="iacute" unicode="&#xed;" horiz-adv-x="336" 
d="M100 160q-22 -27 -47 -86q-16 -38 -39 -38q-14 0 -14 12q0 16 19 55q5 9 41 77q57 108 72 108q16 0 16 -14q0 -10 -12.5 -31.5t-23.5 -40.5h38q39 52 55 69t35 17q20 0 20 -14q0 -8 -16 -30q-45 -61 -52 -76q-14 -29 -22 -53q-12 -34 -12 -57q0 -19 8 -30q6 -12 6 -24
q0 -16 -14 -16q-12 0 -26 14q-18 22 -18 52q0 27 13 69q10 28 13 39z" />
    <glyph glyph-name="iacute" unicode="&#x43d;" horiz-adv-x="336" 
d="M100 160q-22 -27 -47 -86q-16 -38 -39 -38q-14 0 -14 12q0 16 19 55q5 9 41 77q57 108 72 108q16 0 16 -14q0 -10 -12.5 -31.5t-23.5 -40.5h38q39 52 55 69t35 17q20 0 20 -14q0 -8 -16 -30q-45 -61 -52 -76q-14 -29 -22 -53q-12 -34 -12 -57q0 -19 8 -30q6 -12 6 -24
q0 -16 -14 -16q-12 0 -26 14q-18 22 -18 52q0 27 13 69q10 28 13 39z" />
    <glyph glyph-name="icircumflex" unicode="&#xee;" horiz-adv-x="288" 
d="M132 154q-5 0 -7 2t-3 4q0 8 22 38q19 26 22 30q10 20 10 30q0 16 -14 16q-12 0 -34 -23q-27 -29 -54 -77q-26 -40 -26 -68t22 -28q17 0 35 20t27 56zM186 322q15 -1 22.5 -14t7.5 -34q0 -20 -7.5 -46.5t-22.5 -59.5q-28 -61 -61 -98q-37 -42 -71 -42q-23 0 -34.5 15.5
t-11.5 40.5q0 70 55 151q59 87 123 87z" />
    <glyph glyph-name="icircumflex" unicode="&#x43e;" horiz-adv-x="288" 
d="M132 154q-5 0 -7 2t-3 4q0 8 22 38q19 26 22 30q10 20 10 30q0 16 -14 16q-12 0 -34 -23q-27 -29 -54 -77q-26 -40 -26 -68t22 -28q17 0 35 20t27 56zM186 322q15 -1 22.5 -14t7.5 -34q0 -20 -7.5 -46.5t-22.5 -59.5q-28 -61 -61 -98q-37 -42 -71 -42q-23 0 -34.5 15.5
t-11.5 40.5q0 70 55 151q59 87 123 87z" />
    <glyph glyph-name="idieresis" unicode="&#xef;" horiz-adv-x="336" 
d="M152 188q-38 -27 -69 -74q-51 -78 -69 -78q-14 0 -14 12q0 16 19 55q5 9 41 77q57 108 72 108q18 0 18 -14q0 -12 -13.5 -36t-24.5 -44q46 45 66 63q35 31 62 31q20 0 20 -14q0 -8 -16 -30q-45 -61 -52 -76q-14 -29 -22 -53q-12 -34 -12 -57q0 -19 8 -30q6 -12 6 -24
q0 -16 -14 -16q-12 0 -26 14q-18 22 -18 52q0 31 14 73q7 22 24 61z" />
    <glyph glyph-name="idieresis" unicode="&#x43f;" horiz-adv-x="336" 
d="M152 188q-38 -27 -69 -74q-51 -78 -69 -78q-14 0 -14 12q0 16 19 55q5 9 41 77q57 108 72 108q18 0 18 -14q0 -12 -13.5 -36t-24.5 -44q46 45 66 63q35 31 62 31q20 0 20 -14q0 -8 -16 -30q-45 -61 -52 -76q-14 -29 -22 -53q-12 -34 -12 -57q0 -19 8 -30q6 -12 6 -24
q0 -16 -14 -16q-12 0 -26 14q-18 22 -18 52q0 31 14 73q7 22 24 61z" />
    <glyph glyph-name="eth" unicode="&#xf0;" horiz-adv-x="416" 
d="M152 48q-49 -97 -92 -216q-21 -58 -40 -58h-6q-8 0 -8 16q0 33 42 130q48 112 104 214q116 214 126 214q18 0 18 -16q0 -10 -11 -28.5t-21 -35.5q36 26 62 26q16 0 26 -11t10 -33q0 -16 -5.5 -40t-16.5 -50q-23 -46 -67 -85q-48 -43 -85 -43q-23 0 -36 16zM166 82
q6 -12 22 -12t41 22q20 18 43 48q19 27 31.5 54.5t12.5 43.5q0 18 -12 18q-33 0 -81 -72q-24 -37 -57 -102z" />
    <glyph glyph-name="eth" unicode="&#x440;" horiz-adv-x="416" 
d="M152 48q-49 -97 -92 -216q-21 -58 -40 -58h-6q-8 0 -8 16q0 33 42 130q48 112 104 214q116 214 126 214q18 0 18 -16q0 -10 -11 -28.5t-21 -35.5q36 26 62 26q16 0 26 -11t10 -33q0 -16 -5.5 -40t-16.5 -50q-23 -46 -67 -85q-48 -43 -85 -43q-23 0 -36 16zM166 82
q6 -12 22 -12t41 22q20 18 43 48q19 27 31.5 54.5t12.5 43.5q0 18 -12 18q-33 0 -81 -72q-24 -37 -57 -102z" />
    <glyph glyph-name="ntilde" unicode="&#xf1;" horiz-adv-x="298" 
d="M18 160q15 51 72 108q17 17 39 31q27 17 43 17q30 0 30 -42q0 -30 -21 -60t-39 -30l-6 4q-6 0 -6 10q0 9 18 31t18 31l-4 8h-4q-16 0 -57.5 -48t-50.5 -80q-3 -10 -6.5 -23t-3.5 -17q0 -15 7.5 -23.5t18.5 -8.5q22 0 55.5 25t60.5 67q9 18 24 18q12 0 12 -14v-10
q-26 -45 -69 -82q-51 -44 -93 -44l-8 -2q-25 0 -36.5 16t-11.5 42q0 17 5.5 37.5t12.5 38.5z" />
    <glyph glyph-name="ntilde" unicode="&#x441;" horiz-adv-x="298" 
d="M18 160q15 51 72 108q17 17 39 31q27 17 43 17q30 0 30 -42q0 -30 -21 -60t-39 -30l-6 4q-6 0 -6 10q0 9 18 31t18 31l-4 8h-4q-16 0 -57.5 -48t-50.5 -80q-3 -10 -6.5 -23t-3.5 -17q0 -15 7.5 -23.5t18.5 -8.5q22 0 55.5 25t60.5 67q9 18 24 18q12 0 12 -14v-10
q-26 -45 -69 -82q-51 -44 -93 -44l-8 -2q-25 0 -36.5 16t-11.5 42q0 17 5.5 37.5t12.5 38.5z" />
    <glyph glyph-name="ograve" unicode="&#xf2;" horiz-adv-x="446" 
d="M102 188q27 25 55 51q39 35 65 35q16 0 16 -10q0 -9 -20.5 -36.5t-21.5 -33.5q19 13 53 44q56 50 81 50q20 0 20 -14q0 -8 -5.5 -18.5t-14.5 -19.5q-31 -26 -55.5 -69.5t-24.5 -72.5q0 -21 14 -32q10 -10 10 -22q0 -9 -9.5 -16.5t-18.5 -7.5t-18 12q-11 20 -15 30
q-7 18 -7 36q0 21 11 48t33 58q-54 -43 -84 -92q-45 -72 -56 -72q-16 0 -16 18q0 22 21 67t41 73q-38 -24 -69 -70q-26 -39 -43 -88q-3 -20 -22 -20q-18 0 -18 26q11 64 59 158t73 94q18 0 18 -10q0 -6 -26 -48q-18 -30 -26 -48z" />
    <glyph glyph-name="ograve" unicode="&#x442;" horiz-adv-x="446" 
d="M102 188q27 25 55 51q39 35 65 35q16 0 16 -10q0 -9 -20.5 -36.5t-21.5 -33.5q19 13 53 44q56 50 81 50q20 0 20 -14q0 -8 -5.5 -18.5t-14.5 -19.5q-31 -26 -55.5 -69.5t-24.5 -72.5q0 -21 14 -32q10 -10 10 -22q0 -9 -9.5 -16.5t-18.5 -7.5t-18 12q-11 20 -15 30
q-7 18 -7 36q0 21 11 48t33 58q-54 -43 -84 -92q-45 -72 -56 -72q-16 0 -16 18q0 22 21 67t41 73q-38 -24 -69 -70q-26 -39 -43 -88q-3 -20 -22 -20q-18 0 -18 26q11 64 59 158t73 94q18 0 18 -10q0 -6 -26 -48q-18 -30 -26 -48z" />
    <glyph glyph-name="oacute" unicode="&#xf3;" 
d="M198 -12q-63 -31 -108 -79q-38 -41 -38 -59q0 -32 22 -32q10 0 18.5 3.5t19.5 14.5q24 25 50 78.5t36 73.5zM276 154q-31 -48 -72.5 -82t-67.5 -34t-26 36l2 8q0 37 35 89q28 42 77 91q12 12 22 12q14 0 14 -18l-4 -14q-24 -28 -41.5 -50.5t-36.5 -51.5q-18 -21 -18 -36
q0 -8 8 -8q5 0 14.5 4.5t21.5 13.5q23 19 85 93q28 33 55 67q7 12 22 12q22 0 22 -22q0 -10 -4 -16q-23 -39 -36 -61q-44 -74 -58 -113q34 24 57 47t37 47q9 20 22 20q12 0 12 -18v-10q-23 -37 -66 -76q-49 -44 -96 -62q-46 -130 -102 -197q-48 -57 -90 -57q-58 0 -58 74
q4 49 67 105t145 89q29 53 36 66q15 29 22 52z" />
    <glyph glyph-name="oacute" unicode="&#x443;" 
d="M198 -12q-63 -31 -108 -79q-38 -41 -38 -59q0 -32 22 -32q10 0 18.5 3.5t19.5 14.5q24 25 50 78.5t36 73.5zM276 154q-31 -48 -72.5 -82t-67.5 -34t-26 36l2 8q0 37 35 89q28 42 77 91q12 12 22 12q14 0 14 -18l-4 -14q-24 -28 -41.5 -50.5t-36.5 -51.5q-18 -21 -18 -36
q0 -8 8 -8q5 0 14.5 4.5t21.5 13.5q23 19 85 93q28 33 55 67q7 12 22 12q22 0 22 -22q0 -10 -4 -16q-23 -39 -36 -61q-44 -74 -58 -113q34 24 57 47t37 47q9 20 22 20q12 0 12 -18v-10q-23 -37 -66 -76q-49 -44 -96 -62q-46 -130 -102 -197q-48 -57 -90 -57q-58 0 -58 74
q4 49 67 105t145 89q29 53 36 66q15 29 22 52z" />
    <glyph glyph-name="ocircumflex" unicode="&#xf4;" horiz-adv-x="416" 
d="M110 54q-31 7 -47.5 30.5t-16.5 53.5q0 33 16 69t40 63q30 30 54 43t42 13q29 0 36 -28q26 50 44 50t18 -16q0 -10 -11 -28.5t-21 -35.5q36 26 62 26q16 0 26 -11t10 -33q0 -16 -5.5 -40t-16.5 -50q-23 -46 -67 -85q-48 -43 -85 -43q-23 0 -36 16q-49 -97 -92 -216
q-21 -58 -40 -58h-6q-10 0 -10 18q0 33 53 150q38 79 53 112zM130 90l22 44l38 74q8 16 12 27t4 21l-2 12q-3 8 -16 8q-15 0 -38 -20q-27 -24 -42 -58q-24 -31 -24 -64q0 -18 12 -31t34 -13zM166 82q6 -12 22 -12q22 0 47 20.5t45 49.5q38 51 38 92q0 9 -4 16.5t-10 7.5
q-13 0 -24.5 -8t-27.5 -26q-24 -27 -51.5 -77t-34.5 -63z" />
    <glyph glyph-name="ocircumflex" unicode="&#x444;" horiz-adv-x="416" 
d="M110 54q-31 7 -47.5 30.5t-16.5 53.5q0 33 16 69t40 63q30 30 54 43t42 13q29 0 36 -28q26 50 44 50t18 -16q0 -10 -11 -28.5t-21 -35.5q36 26 62 26q16 0 26 -11t10 -33q0 -16 -5.5 -40t-16.5 -50q-23 -46 -67 -85q-48 -43 -85 -43q-23 0 -36 16q-49 -97 -92 -216
q-21 -58 -40 -58h-6q-10 0 -10 18q0 33 53 150q38 79 53 112zM130 90l22 44l38 74q8 16 12 27t4 21l-2 12q-3 8 -16 8q-15 0 -38 -20q-27 -24 -42 -58q-24 -31 -24 -64q0 -18 12 -31t34 -13zM166 82q6 -12 22 -12q22 0 47 20.5t45 49.5q38 51 38 92q0 9 -4 16.5t-10 7.5
q-13 0 -24.5 -8t-27.5 -26q-24 -27 -51.5 -77t-34.5 -63z" />
    <glyph glyph-name="otilde" unicode="&#xf5;" horiz-adv-x="346" 
d="M110 114q-10 -12 -24 -29q-37 -42 -42 -49q-13 -16 -26 -16q-16 0 -16 14q0 15 22 34l86 92v90q2 44 20 44q13 0 16.5 -6.5t3.5 -23.5v-56q11 15 30 35q26 27 35.5 39t20.5 12q18 0 18 -14q0 -6 -6 -12q-12 -15 -53 -59q-34 -37 -45 -55l-6 -38q0 -32 16 -32q13 0 36 26
t40 58q8 12 20 12t12 -14l-4 -18q-20 -37 -56 -75q-42 -45 -66 -45q-18 0 -25 24t-7 62z" />
    <glyph glyph-name="otilde" unicode="&#x445;" horiz-adv-x="346" 
d="M110 114q-10 -12 -24 -29q-37 -42 -42 -49q-13 -16 -26 -16q-16 0 -16 14q0 15 22 34l86 92v90q2 44 20 44q13 0 16.5 -6.5t3.5 -23.5v-56q11 15 30 35q26 27 35.5 39t20.5 12q18 0 18 -14q0 -6 -6 -12q-12 -15 -53 -59q-34 -37 -45 -55l-6 -38q0 -32 16 -32q13 0 36 26
t40 58q8 12 20 12t12 -14l-4 -18q-20 -37 -56 -75q-42 -45 -66 -45q-18 0 -25 24t-7 62z" />
    <glyph glyph-name="odieresis" unicode="&#xf6;" horiz-adv-x="298" 
d="M132 102q-50 -68 -82 -68q-16 0 -29 13t-13 37q0 22 10.5 51.5t28 59.5t36.5 51q25 28 43 28t18 -10q0 -8 -34 -53q-39 -52 -50 -89q-2 -6 -3 -16.5t-1 -11.5q0 -12 6 -12q14 0 47.5 45.5t56.5 100.5q8 21 17.5 30.5t18.5 9.5q18 0 18 -26q0 -15 -8 -26
q-19 -32 -29.5 -60t-10.5 -46t7.5 -30.5t18.5 -17.5q20 -20 20 -42q0 -24 -24.5 -40t-43.5 -16l-44 -4q-11 0 -18.5 5.5t-7.5 16.5l-2 4q0 8 48 15t48 25v8q-14 10 -27 21q-15 15 -15 39v8z" />
    <glyph glyph-name="odieresis" unicode="&#x446;" horiz-adv-x="298" 
d="M132 102q-50 -68 -82 -68q-16 0 -29 13t-13 37q0 22 10.5 51.5t28 59.5t36.5 51q25 28 43 28t18 -10q0 -8 -34 -53q-39 -52 -50 -89q-2 -6 -3 -16.5t-1 -11.5q0 -12 6 -12q14 0 47.5 45.5t56.5 100.5q8 21 17.5 30.5t18.5 9.5q18 0 18 -26q0 -15 -8 -26
q-19 -32 -29.5 -60t-10.5 -46t7.5 -30.5t18.5 -17.5q20 -20 20 -42q0 -24 -24.5 -40t-43.5 -16l-44 -4q-11 0 -18.5 5.5t-7.5 16.5l-2 4q0 8 48 15t48 25v8q-14 10 -27 21q-15 15 -15 39v8z" />
    <glyph glyph-name="divide" unicode="&#xf7;" horiz-adv-x="346" 
d="M38 126q-30 0 -30 20q0 17 18 44q26 49 67 77q30 21 47 21q5 0 7 -2.5t3 -3.5q0 -10 -37 -44q-29 -25 -57 -50q3 -12 6.5 -18t9.5 -6l6 3q9 5 12 9q3 2 61 52q70 60 97 60q20 0 20 -14q0 -8 -16 -30q-45 -61 -52 -76q-14 -29 -22 -53q-12 -34 -12 -57q0 -14 8 -30
q6 -8 6 -24t-14 -16q-12 0 -25 13t-13 43q0 31 16 87q8 27 16 55q-14 -7 -43 -27q-49 -33 -79 -33z" />
    <glyph glyph-name="divide" unicode="&#x447;" horiz-adv-x="346" 
d="M38 126q-30 0 -30 20q0 17 18 44q26 49 67 77q30 21 47 21q5 0 7 -2.5t3 -3.5q0 -10 -37 -44q-29 -25 -57 -50q3 -12 6.5 -18t9.5 -6l6 3q9 5 12 9q3 2 61 52q70 60 97 60q20 0 20 -14q0 -8 -16 -30q-45 -61 -52 -76q-14 -29 -22 -53q-12 -34 -12 -57q0 -14 8 -30
q6 -8 6 -24t-14 -16q-12 0 -25 13t-13 43q0 31 16 87q8 27 16 55q-14 -7 -43 -27q-49 -33 -79 -33z" />
    <glyph glyph-name="oslash" unicode="&#xf8;" horiz-adv-x="406" 
d="M110 72q-18 -24 -36.5 -36t-31.5 -12q-7 0 -14 3.5t-14 10.5q-14 14 -14 36q0 23 10.5 52t29.5 58q18 31 37 52q25 28 43 28t18 -8q0 -9 -34 -55q-39 -53 -50 -89l-8 -30q0 -12 8 -12t26 19t40 51q7 14 11 21q13 25 19 33q19 32 36 52q24 28 42 28t18 -10q0 -8 -34 -53
q-39 -52 -50 -89l-4 -28q0 -12 6 -12q14 0 47.5 45.5t56.5 100.5q8 21 17.5 30.5t18.5 9.5q18 0 18 -26q0 -15 -8 -26q-19 -32 -29.5 -60t-10.5 -46q0 -19 8 -31t20 -17q20 -10 20 -26q0 -14 -28 -14q-26 0 -43 17.5t-17 46.5l2 16q-53 -68 -84 -68q-7 0 -14.5 3.5t-16 10.5
t-11.5 24z" />
    <glyph glyph-name="oslash" unicode="&#x448;" horiz-adv-x="406" 
d="M110 72q-18 -24 -36.5 -36t-31.5 -12q-7 0 -14 3.5t-14 10.5q-14 14 -14 36q0 23 10.5 52t29.5 58q18 31 37 52q25 28 43 28t18 -8q0 -9 -34 -55q-39 -53 -50 -89l-8 -30q0 -12 8 -12t26 19t40 51q7 14 11 21q13 25 19 33q19 32 36 52q24 28 42 28t18 -10q0 -8 -34 -53
q-39 -52 -50 -89l-4 -28q0 -12 6 -12q14 0 47.5 45.5t56.5 100.5q8 21 17.5 30.5t18.5 9.5q18 0 18 -26q0 -15 -8 -26q-19 -32 -29.5 -60t-10.5 -46q0 -19 8 -31t20 -17q20 -10 20 -26q0 -14 -28 -14q-26 0 -43 17.5t-17 46.5l2 16q-53 -68 -84 -68q-7 0 -14.5 3.5t-16 10.5
t-11.5 24z" />
    <glyph glyph-name="ugrave" unicode="&#xf9;" horiz-adv-x="406" 
d="M112 80q-38 -44 -64 -44q-8 0 -16 6.5t-12 11.5q-12 12 -12 34q0 24 10.5 52.5t28 59.5t36.5 52q25 28 43 28t18 -10q0 -9 -34 -55q-39 -53 -50 -89q-6 -18 -6 -30q0 -10 6 -10l10 4q23 13 54 66q6 10 13.5 20.5l12.5 17.5q19 32 36 52q24 28 42 28t18 -10q0 -8 -34 -53
q-39 -52 -50 -89l-4 -28q0 -12 6 -12q14 0 47.5 45.5t56.5 100.5q8 21 17.5 30.5t18.5 9.5q18 0 18 -26q0 -15 -8 -26q-19 -32 -29.5 -60t-10.5 -46q0 -19 8 -31t20 -17q20 -23 20 -42q0 -24 -24.5 -40t-45.5 -16l-44 -4q-11 0 -18.5 5.5t-7.5 16.5l-2 4q0 8 48 15t48 25v8
q-14 10 -27 21q-15 15 -15 39l2 8q-53 -68 -84 -68q-7 0 -14.5 3.5t-16.5 12t-9 30.5z" />
    <glyph glyph-name="ugrave" unicode="&#x449;" horiz-adv-x="406" 
d="M112 80q-38 -44 -64 -44q-8 0 -16 6.5t-12 11.5q-12 12 -12 34q0 24 10.5 52.5t28 59.5t36.5 52q25 28 43 28t18 -10q0 -9 -34 -55q-39 -53 -50 -89q-6 -18 -6 -30q0 -10 6 -10l10 4q23 13 54 66q6 10 13.5 20.5l12.5 17.5q19 32 36 52q24 28 42 28t18 -10q0 -8 -34 -53
q-39 -52 -50 -89l-4 -28q0 -12 6 -12q14 0 47.5 45.5t56.5 100.5q8 21 17.5 30.5t18.5 9.5q18 0 18 -26q0 -15 -8 -26q-19 -32 -29.5 -60t-10.5 -46q0 -19 8 -31t20 -17q20 -23 20 -42q0 -24 -24.5 -40t-45.5 -16l-44 -4q-11 0 -18.5 5.5t-7.5 16.5l-2 4q0 8 48 15t48 25v8
q-14 10 -27 21q-15 15 -15 39l2 8q-53 -68 -84 -68q-7 0 -14.5 3.5t-16.5 12t-9 30.5z" />
    <glyph glyph-name="uacute" unicode="&#xfa;" horiz-adv-x="258" 
d="M64 142q-4 -9 -8 -21.5t-6 -20.5l-4 -16q0 -12 11 -20t27 -8q20 0 38 14t18 38v12q0 15 -10 22.5t-24 7.5q-22 0 -42 -8zM80 176q7 1 17 1.5t15 0.5q29 0 48.5 -14t19.5 -44v-14q0 -40 -40 -65q-34 -21 -76 -21q-27 0 -45.5 10.5t-18.5 27.5l2 6q4 39 38 109t68 115
q11 14 24 14q12 0 12 -16q0 -11 -10 -24q-28 -35 -54 -86z" />
    <glyph glyph-name="uacute" unicode="&#x44a;" horiz-adv-x="258" 
d="M64 142q-4 -9 -8 -21.5t-6 -20.5l-4 -16q0 -12 11 -20t27 -8q20 0 38 14t18 38v12q0 15 -10 22.5t-24 7.5q-22 0 -42 -8zM80 176q7 1 17 1.5t15 0.5q29 0 48.5 -14t19.5 -44v-14q0 -40 -40 -65q-34 -21 -76 -21q-27 0 -45.5 10.5t-18.5 27.5l2 6q4 39 38 109t68 115
q11 14 24 14q12 0 12 -16q0 -11 -10 -24q-28 -35 -54 -86z" />
    <glyph glyph-name="ucircumflex" unicode="&#xfb;" horiz-adv-x="386" 
d="M302 276q16 16 24 16q12 0 12 -18q0 -13 -8 -24q-23 -27 -59 -104t-41.5 -104.5t-21.5 -27.5q-18 0 -18 30q6 40 41.5 113.5t70.5 118.5zM64 132q-4 -9 -8 -21.5t-6 -20.5l-4 -16q0 -12 11 -20t27 -8q20 0 38 14t18 38v12q0 15 -10 22.5t-24 7.5q-22 0 -42 -8zM80 166
q7 1 17 1.5t15 0.5q29 0 48.5 -14t19.5 -44v-14q0 -40 -40 -65q-34 -21 -76 -21q-27 0 -45.5 10.5t-18.5 27.5l2 8q4 38 37.5 107t68.5 115q11 14 24 14q12 0 12 -16q0 -11 -10 -24q-28 -35 -54 -86z" />
    <glyph glyph-name="ucircumflex" unicode="&#x44b;" horiz-adv-x="386" 
d="M302 276q16 16 24 16q12 0 12 -18q0 -13 -8 -24q-23 -27 -59 -104t-41.5 -104.5t-21.5 -27.5q-18 0 -18 30q6 40 41.5 113.5t70.5 118.5zM64 132q-4 -9 -8 -21.5t-6 -20.5l-4 -16q0 -12 11 -20t27 -8q20 0 38 14t18 38v12q0 15 -10 22.5t-24 7.5q-22 0 -42 -8zM80 166
q7 1 17 1.5t15 0.5q29 0 48.5 -14t19.5 -44v-14q0 -40 -40 -65q-34 -21 -76 -21q-27 0 -45.5 10.5t-18.5 27.5l2 8q4 38 37.5 107t68.5 115q11 14 24 14q12 0 12 -16q0 -11 -10 -24q-28 -35 -54 -86z" />
    <glyph glyph-name="udieresis" unicode="&#xfc;" horiz-adv-x="268" 
d="M74 142q-4 -9 -8 -21.5t-6 -20.5l-4 -16q0 -12 11 -20t27 -8q20 0 38 14t18 38v12q0 15 -10 22.5t-24 7.5q-22 0 -42 -8zM90 176q7 1 17 1.5t15 0.5q29 0 48.5 -14t19.5 -44v-14q0 -40 -40 -65q-34 -21 -76 -21q-27 0 -45.5 10.5t-18.5 27.5l2 6q3 33 27 87t55 101
q0 7 -7 9.5t-21 2.5l-40 -2l-6 2q-6 3 -9 4q-9 5 -9 10q0 7 20 16h52q40 0 55 -8.5t15 -23.5q-28 -35 -54 -86z" />
    <glyph glyph-name="udieresis" unicode="&#x44c;" horiz-adv-x="268" 
d="M74 142q-4 -9 -8 -21.5t-6 -20.5l-4 -16q0 -12 11 -20t27 -8q20 0 38 14t18 38v12q0 15 -10 22.5t-24 7.5q-22 0 -42 -8zM90 176q7 1 17 1.5t15 0.5q29 0 48.5 -14t19.5 -44v-14q0 -40 -40 -65q-34 -21 -76 -21q-27 0 -45.5 10.5t-18.5 27.5l2 6q3 33 27 87t55 101
q0 7 -7 9.5t-21 2.5l-40 -2l-6 2q-6 3 -9 4q-9 5 -9 10q0 7 20 16h52q40 0 55 -8.5t15 -23.5q-28 -35 -54 -86z" />
    <glyph glyph-name="yacute" unicode="&#xfd;" horiz-adv-x="288" 
d="M192 148q-10 -22 -13 -27q-11 -19 -29 -37q-19 -24 -43 -42q-29 -22 -51 -22q-26 0 -37 26.5t-11 55.5t6 56q4 4 6 5q7 5 12 5q14 0 14 -16q-2 -14 -4 -28.5t-2 -15.5q0 -19 7 -31.5t19 -12.5q22 0 52 36q7 5 15 21q1 1 13 29q-13 7 -20 10q-22 10 -34 10h-4q-4 3 -5 5
q-5 6 -5 11q0 12 16 12h8q15 0 38 -10q7 -3 20 -10q16 45 16 70v8q-9 6 -18 6t-41 -13q-17 -7 -25 -7l-8 2q-3 0 -5 2t-3 4q0 10 28.5 25t55.5 15l4 2q25 0 36.5 -16t11.5 -40q0 -20 -7 -46q-10 -31 -13 -42z" />
    <glyph glyph-name="yacute" unicode="&#x44d;" horiz-adv-x="288" 
d="M192 148q-10 -22 -13 -27q-11 -19 -29 -37q-19 -24 -43 -42q-29 -22 -51 -22q-26 0 -37 26.5t-11 55.5t6 56q4 4 6 5q7 5 12 5q14 0 14 -16q-2 -14 -4 -28.5t-2 -15.5q0 -19 7 -31.5t19 -12.5q22 0 52 36q7 5 15 21q1 1 13 29q-13 7 -20 10q-22 10 -34 10h-4q-4 3 -5 5
q-5 6 -5 11q0 12 16 12h8q15 0 38 -10q7 -3 20 -10q16 45 16 70v8q-9 6 -18 6t-41 -13q-17 -7 -25 -7l-8 2q-3 0 -5 2t-3 4q0 10 28.5 25t55.5 15l4 2q25 0 36.5 -16t11.5 -40q0 -20 -7 -46q-10 -31 -13 -42z" />
    <glyph glyph-name="thorn" unicode="&#xfe;" horiz-adv-x="386" 
d="M120 164l-42 -4q-16 -36 -24 -57t-8 -31q-6 -30 -24 -30q-16 0 -16 30q4 38 41 113.5t71 118.5q11 14 22 14q14 0 14 -16q0 -11 -9.5 -23t-23.5 -35.5t-25 -45.5h40q28 55 63 87q40 37 81 37q15 -1 22.5 -14t7.5 -34q0 -20 -7.5 -46.5t-22.5 -59.5q-28 -61 -61 -98
q-37 -42 -71 -42q-23 0 -34.5 15.5t-11.5 40.5q0 11 3.5 30.5t14.5 49.5zM226 154q-5 0 -7 2t-3 4q0 7 16 29q26 35 28 39q10 20 10 30q0 16 -14 16q-12 0 -34 -23q-27 -29 -54 -77q-26 -40 -26 -68t22 -28q17 0 35 20t27 56z" />
    <glyph glyph-name="thorn" unicode="&#x44e;" horiz-adv-x="386" 
d="M120 164l-42 -4q-16 -36 -24 -57t-8 -31q-6 -30 -24 -30q-16 0 -16 30q4 38 41 113.5t71 118.5q11 14 22 14q14 0 14 -16q0 -11 -9.5 -23t-23.5 -35.5t-25 -45.5h40q28 55 63 87q40 37 81 37q15 -1 22.5 -14t7.5 -34q0 -20 -7.5 -46.5t-22.5 -59.5q-28 -61 -61 -98
q-37 -42 -71 -42q-23 0 -34.5 15.5t-11.5 40.5q0 11 3.5 30.5t14.5 49.5zM226 154q-5 0 -7 2t-3 4q0 7 16 29q26 35 28 39q10 20 10 30q0 16 -14 16q-12 0 -34 -23q-27 -29 -54 -77q-26 -40 -26 -68t22 -28q17 0 35 20t27 56z" />
    <glyph glyph-name="ydieresis" unicode="&#xff;" horiz-adv-x="316" 
d="M180 174q13 29 16 44q2 2 2 12q0 12 -11 21t-27 9q-20 0 -36.5 -13.5t-19.5 -38.5l-2 -12q0 -16 11 -24t25 -8q11 0 22 3t20 7zM166 140q-9 -2 -16.5 -3t-15.5 -1q-22 -8 -60 -53t-44 -47q-12 0 -20 5t-8 11l2 4q8 13 33 39q54 56 57 59q-16 5 -24 13t-8 23l2 20
q0 40 39 64q33 20 75 20q27 0 46.5 -10.5t19.5 -27.5v-4q-6 -42 -38 -109.5t-68 -114.5q-13 -16 -26 -16q-12 0 -12 16q0 13 11.5 26.5t28 40t26.5 45.5z" />
    <glyph glyph-name="ydieresis" unicode="&#x44f;" horiz-adv-x="316" 
d="M180 174q13 29 16 44q2 2 2 12q0 12 -11 21t-27 9q-20 0 -36.5 -13.5t-19.5 -38.5l-2 -12q0 -16 11 -24t25 -8q11 0 22 3t20 7zM166 140q-9 -2 -16.5 -3t-15.5 -1q-22 -8 -60 -53t-44 -47q-12 0 -20 5t-8 11l2 4q8 13 33 39q54 56 57 59q-16 5 -24 13t-8 23l2 20
q0 40 39 64q33 20 75 20q27 0 46.5 -10.5t19.5 -27.5v-4q-6 -42 -38 -109.5t-68 -114.5q-13 -16 -26 -16q-12 0 -12 16q0 13 11.5 26.5t28 40t26.5 45.5z" />
  </font>
</defs>
</svg>
